<?xml version="1.0" encoding="UTF-8" standalone="no"?>
<!-- Created with Inkscape (http://www.inkscape.org/) -->

<svg
   xmlns:dc="http://purl.org/dc/elements/1.1/"
   xmlns:cc="http://creativecommons.org/ns#"
   xmlns:rdf="http://www.w3.org/1999/02/22-rdf-syntax-ns#"
   xmlns:svg="http://www.w3.org/2000/svg"
   xmlns="http://www.w3.org/2000/svg"
   xmlns:sodipodi="http://sodipodi.sourceforge.net/DTD/sodipodi-0.dtd"
   xmlns:inkscape="http://www.inkscape.org/namespaces/inkscape"
   id="svg3055"
   version="1.1"
   inkscape:version="0.48.2 r9819"
   width="239.96503"
   height="229.32712"
   sodipodi:docname="crimson.svg">
  <metadata
     id="metadata3061">
    <rdf:RDF>
      <cc:Work
         rdf:about="">
        <dc:format>image/svg+xml</dc:format>
        <dc:type
           rdf:resource="http://purl.org/dc/dcmitype/StillImage" />
        <dc:title></dc:title>
      </cc:Work>
    </rdf:RDF>
  </metadata>
  <defs
     id="defs3059" />
  <sodipodi:namedview
     pagecolor="#ffffff"
     bordercolor="#666666"
     borderopacity="1"
     objecttolerance="10"
     gridtolerance="10"
     guidetolerance="10"
     inkscape:pageopacity="0"
     inkscape:pageshadow="2"
     inkscape:window-width="1265"
     inkscape:window-height="738"
     id="namedview3057"
     showgrid="false"
     inkscape:zoom="0.59573746"
     inkscape:cx="366.384"
     inkscape:cy="-87.51639"
     inkscape:window-x="0"
     inkscape:window-y="0"
     inkscape:window-maximized="0"
     inkscape:current-layer="svg3055"
     fit-margin-top="0"
     fit-margin-left="0"
     fit-margin-right="0"
     fit-margin-bottom="0" />
  <path
     style="fill:#8c1b17;fill-opacity:1;fill-rule:nonzero;stroke:#8c1b17;stroke-width:0.28668398000000000;stroke-linecap:butt;stroke-linejoin:miter;stroke-miterlimit:4;stroke-opacity:1;stroke-dasharray:none;stroke-dashoffset:0"
     d="M 35.70199,228.86 C 27.124156,227.53364 16.823454,222.4 10.945245,216.52179 7.7024162,213.27896 4.523807,208.11491 2.4327015,202.69209 0.25668243,197.04906 -0.49560247,188.49825 0.72763316,183.31151 2.4187732,176.14078 7.7229125,168.8139 12.560263,166.9665 c 3.933593,-1.50225 4.158488,-0.9019 2.567662,6.85442 -1.279914,6.24042 -1.295265,6.62469 -0.406152,10.16664 3.115211,12.41004 12.607327,22.22887 23.731937,24.54877 4.72523,0.98538 10.831399,0.76868 15.603495,-0.55372 14.758714,-4.08986 26.327092,-16.31235 42.83351,-45.25547 3.147325,-5.51866 6.202065,-10.84548 6.788295,-11.83737 1.59564,-2.69976 0.65456,-4.09063 -4.727875,-6.9876 -5.19509,-2.79613 -6.972634,-4.9995 -8.799249,-10.90721 -2.182847,-7.05984 -1.2268,-15.02204 2.462209,-20.5059 2.387352,-3.54889 6.547565,-6.59538 7.325861,-5.36464 0.294274,0.46535 0.539004,1.38401 0.543834,2.04147 0.0163,2.22714 2.36905,8.53788 4.20378,11.27602 2.00754,2.99603 4.41617,4.44745 7.359,4.4345 3.77338,-0.0166 3.73578,0.0339 18.9547,-25.482036 8.18559,-13.723908 36.08915,-52.986553 38.84203,-54.653993 1.58189,-0.958152 3.46212,-4.076631 3.46484,-5.746614 0.003,-1.888121 -2.9464,-3.002375 -6.92733,-2.617018 -1.70746,0.165291 -8.56513,-0.233196 -15.23926,-0.885535 -13.78834,-1.347665 -19.1264,-2.703816 -24.60571,-6.251143 -6.73474,-4.360101 -9.55523,-9.118914 -9.57896,-16.161942 -0.0177,-5.2324606 0.93717,-7.6121715 4.25793,-10.6122737 l 2.43931,-2.2037745 0.38025,1.391054 c 0.84181,3.0795132 2.97232,6.7166733 5.44733,9.2995732 4.8815,5.094284 8.43783,6.615249 19.17376,8.20019 11.61325,1.714457 30.25922,1.111185 39.79641,-1.287565 6.10907,-1.536525 16.53725,-7.398422 22.01862,-12.3771111 3.35226,-3.044849 5.96755,-4.0626553 10.51025,-4.0903403 3.27272,-0.019952 4.42086,0.2797856 8.17049,2.1329518 3.26449,1.6133965 4.36268,2.445184 4.36268,3.3043553 0,2.5315993 -1.46859,6.8854743 -4.69023,13.9049393 -7.94886,17.319391 -17.0491,46.158266 -22.82177,72.32282 -0.97406,4.414932 -2.17954,9.112532 -2.67884,10.439092 -1.86242,4.94819 0.0216,6.46527 8.05839,6.48894 5.46378,0.0162 8.59464,0.64758 10.58752,2.13549 4.61215,3.44345 6.94972,9.79777 5.91079,16.06749 -0.33154,2.0008 -1.18807,4.84843 -1.90341,6.32807 -1.45119,3.00172 -6.4595,8.34518 -7.49745,7.9992 -0.36855,-0.12286 -0.86277,-0.94382 -1.09827,-1.82438 -1.27847,-4.78036 -7.13674,-6.71815 -14.00782,-4.63349 -1.55516,0.47183 -3.14645,1.06535 -3.53619,1.31893 -1.27515,0.82963 -2.40763,14.58066 -2.78555,33.82337 -0.31796,16.18915 -0.24108,19.29236 0.56168,22.67165 2.49296,10.49434 8.24808,14.31308 19.62806,13.02395 5.62802,-0.63755 9.26198,-1.73281 16.31447,-4.9171 5.134,-2.31806 6.26567,-2.12988 6.26567,1.04189 0,5.1369 -4.26528,12.70832 -8.88721,15.77592 -4.54331,3.01542 -13.09251,6.94495 -17.63999,8.108 -6.42771,1.64393 -16.0166,2.09444 -19.97766,0.93859 -7.42257,-2.16594 -13.35093,-7.21521 -16.88165,-14.37836 -4.6174,-9.36782 -5.87723,-20.06194 -4.87503,-41.38154 0.38288,-8.14468 0.93806,-16.74363 1.23371,-19.10877 1.32417,-10.5925 1.32453,-10.51299 -0.0539,-11.75404 -0.9601,-0.86441 -2.01085,-1.12919 -4.26792,-1.07547 -1.64682,0.0392 -3.49631,0.33999 -4.10996,0.6684 -0.61365,0.32842 -4.01148,1.00589 -7.55074,1.50549 -3.53926,0.4996 -9.25137,1.30495 -12.69359,1.78964 -3.4422,0.4847 -7.77134,1.39216 -9.6203,2.01656 l -3.36176,1.13527 -3.32227,6.72732 c -11.69737,23.68604 -23.43441,40.97921 -36.281666,53.45678 -12.025969,11.67992 -22.669961,18.10657 -34.614422,20.89956 -3.458336,0.80867 -17.155007,1.13833 -21.214612,0.5106 z M 159.54946,118.27173 c 4.5726,-0.49235 10.5126,-1.40662 13.19999,-2.03171 l 4.88617,-1.13653 1.31093,-6.14665 c 2.31497,-10.854402 9.31103,-39.235816 10.98465,-44.56229 2.12328,-6.757517 3.10402,-11.904639 2.62897,-13.797401 -0.37678,-1.501223 -0.40181,-1.508533 -1.56836,-0.457813 -1.83947,1.656823 -7.92091,9.076315 -12.62432,15.401956 -9.17204,12.335517 -18.36835,26.970041 -27.74333,44.149318 -1.71342,3.13978 -3.3433,9.04158 -2.68012,9.70476 0.15039,0.15039 0.95251,0.16051 1.78251,0.0225 0.82998,-0.13802 5.2503,-0.65378 9.82291,-1.14613 l 0,3e-5 z"
     id="path3854"
     inkscape:connector-curvature="0" />
</svg>
