<?xml version="1.0" encoding="UTF-8" standalone="no"?>
<!-- Created with Inkscape (http://www.inkscape.org/) -->

<svg
   xmlns:dc="http://purl.org/dc/elements/1.1/"
   xmlns:cc="http://creativecommons.org/ns#"
   xmlns:rdf="http://www.w3.org/1999/02/22-rdf-syntax-ns#"
   xmlns:svg="http://www.w3.org/2000/svg"
   xmlns="http://www.w3.org/2000/svg"
   xmlns:sodipodi="http://sodipodi.sourceforge.net/DTD/sodipodi-0.dtd"
   xmlns:inkscape="http://www.inkscape.org/namespaces/inkscape"
   version="1.1"
   width="1129"
   height="1342"
   id="svg2"
   inkscape:version="0.48.2 r9819"
   sodipodi:docname="heart.svg">
  <sodipodi:namedview
     pagecolor="#ffffff"
     bordercolor="#666666"
     borderopacity="1"
     objecttolerance="10"
     gridtolerance="10"
     guidetolerance="10"
     inkscape:pageopacity="0"
     inkscape:pageshadow="2"
     inkscape:window-width="1040"
     inkscape:window-height="673"
     id="namedview3079"
     showgrid="false"
     inkscape:zoom="0.33159463"
     inkscape:cx="564.5"
     inkscape:cy="671"
     inkscape:window-x="0"
     inkscape:window-y="0"
     inkscape:window-maximized="0"
     inkscape:current-layer="svg2" />
  <metadata
     id="metadata8">
    <rdf:RDF>
      <cc:Work
         rdf:about="">
        <dc:format>image/svg+xml</dc:format>
        <dc:type
           rdf:resource="http://purl.org/dc/dcmitype/StillImage" />
        <dc:title />
      </cc:Work>
    </rdf:RDF>
  </metadata>
  <defs
     id="defs6" />
  <g
     transform="translate(11.372931,51.177963)"
     id="g2987"
     style="fill:#f08080;stroke:none">
    <path
       d="m 716.5,1241.6097 c -10.13139,-2.4725 -20.78855,-10.4287 -25.00651,-18.6688 -2.95631,-5.7754 -5.18725,-16.5405 -6.47715,-31.2545 -1.53617,-17.5233 -3.30398,-24.1746 -13.2059,-49.6864 C 634.24077,1045.2035 558.63356,936.8495 482.58167,870.81298 457.48588,849.02209 435.32903,833.9072 392,809.02026 321.79339,768.69561 249.6821,719.05331 189,669.27256 156.64784,642.73237 150.82405,637.46107 123.32168,609.82502 94.256457,580.6185 92.275359,578.37574 69.609927,549.01887 L 46.07649,518.53773 29.359547,485.54438 12.642605,452.55102 6.8547992,419.02551 C 3.3509233,398.72952 1.0608534,382.54042 1.0514335,378 c -0.02884,-13.90094 4.1837991,-35.58505 10.9764325,-56.5 6.856038,-21.11018 16.180845,-37.48761 26.759775,-46.99898 3.979243,-3.57768 5.257269,-5.51976 6.189413,-9.40537 2.571069,-10.71742 17.552417,-31.16007 34.525617,-47.11159 11.487104,-10.79565 13.434624,-12.17221 40.044529,-28.30444 l 24.04721,-14.57859 28.95279,-6.41566 28.9528,-6.41566 30.5,0.9145 30.5,0.9145 31.5,7.05857 c 31.47103,7.05207 31.52781,7.06949 61.72949,18.94022 28.66267,11.26582 31.69475,12.71411 58.5,27.94284 26.19788,14.88368 30.037,17.43539 52.36532,34.80511 22.99414,17.88769 24.94413,19.67766 42.68748,39.18436 20.3283,22.34853 19.48575,20.92812 22.80924,38.45284 1.78218,9.39736 -1.60749,18.66432 -8.04462,21.99309 -2.69997,1.39621 -3.09034,1.22336 -14.16171,-6.27048 -13.5736,-9.18753 -22.70513,-16.07072 -45.3852,-34.2106 -38.43211,-30.73861 -56.61568,-42.06585 -82.58498,-51.44528 -11.12218,-4.01705 -12.13497,-4.63105 -23.69881,-14.36734 C 342.37724,232.84626 327.82695,225.64364 306,220.3342 l -14.5,-3.52715 -25,0.52535 c -20.71346,0.43528 -28.63887,1.05314 -46.22265,3.60348 -11.67246,1.69298 -28.97048,3.99338 -38.44004,5.11201 l -17.21739,2.03387 -5.55996,4.61877 c -3.05798,2.54033 -11.53183,10.65348 -18.83078,18.02924 -31.66485,31.99805 -51.674815,66.31838 -59.868731,102.68455 -4.340807,19.26534 -4.582621,33.9447 -0.90743,55.08568 2.084761,11.99227 3.576225,16.89677 10.400061,34.19934 4.38145,11.10964 8.30664,20.78464 8.722644,21.5 0.416004,0.71537 6.381166,9.40066 13.255916,19.30066 17.332,24.95898 34.57711,42.51587 63.16836,64.31037 30.77703,23.46069 62.97028,43.24834 125.5,77.13884 25.57988,13.86405 58.88406,33.38906 76.21454,44.68175 55.307,36.03856 102.46131,81.76258 143.0239,138.68571 20.85853,29.27161 26.3524,37.9006 39.27227,61.68333 6.72268,12.375 14.20896,25.50584 16.63619,29.17965 8.295,12.55512 28.48616,34.31931 71.73199,77.32035 50.35004,50.065 62.27083,63.9487 78.9308,91.9275 8.51896,14.3068 11.21075,19.9578 17.38641,36.5 6.63499,17.7726 7.73531,21.8255 11.96539,44.0725 l 4.65847,24.5 0.09,25 c 0.0641,17.8001 -0.27374,26.0237 -1.17305,28.5546 -1.93712,5.4516 -8.80958,11.562 -15.65132,13.9159 -6.77999,2.3327 -18.96773,2.6203 -27.08561,0.6392 z M 679.35673,976.13413 c -1.7288,-1.08621 -3.89598,-3.02324 -4.81597,-4.30452 C 672.24824,968.63677 659,944.00495 659,942.93541 c 0,-0.47431 3.43154,-13.14131 7.62565,-28.1489 L 674.2513,887.5 693.3224,852.02047 c 16.51976,-30.73309 22.47904,-40.6328 44.54538,-74 C 773.15874,724.65592 832.93386,643.14605 908.01959,546 c 37.36023,-48.33673 59.49292,-79.13492 67.55178,-94 3.72717,-6.875 13.37421,-22.4 21.43787,-34.5 13.98096,-20.97929 15.17826,-23.1831 25.80496,-47.5 l 11.1438,-25.5 6.4157,-27.5 6.4157,-27.5 1.622,-26.84405 1.622,-26.84406 -4.6476,-26.59163 -4.6475,-26.59162 -10.9064,-23.06432 L 1018.9256,136.5 1000.2253,117.75266 981.52505,99.005319 954.51253,87.119704 927.5,75.234089 908.43684,73.048573 889.37367,70.863056 869.93684,74.349973 c -18.5078,3.32025 -20.21718,3.826279 -35.7628,10.586898 -21.70865,9.440856 -22.14525,9.67778 -40.74099,22.107879 -38.29499,25.59784 -77.78791,64.97 -115.80067,115.4466 -16.53966,21.96278 -26.74947,38.34488 -34.77717,55.80155 -7.58861,16.50184 -16.6072,41.06538 -22.83955,62.2071 -9.87168,33.48723 -25.40667,80.03128 -30.54863,91.52609 -3.06897,6.86065 -8.5366,17.71246 -12.15028,24.11512 -7.10679,12.59168 -11.4698,16.92029 -20.35018,20.18974 -5.08559,1.87234 -16.47632,2.21074 -22.07414,0.65579 l -3.60758,-1.0021 -0.67386,-9.78392 c -0.63223,-9.17959 -0.42933,-10.80052 3.28484,-26.24232 7.27742,-30.2561 19.07062,-63.33327 43.12602,-120.9584 16.56478,-39.68123 37.92834,-82.72278 48.95303,-98.6266 5.54849,-8.00404 6.02512,-9.11846 6.02512,-14.08728 0,-4.52293 0.64699,-6.4684 4,-12.02776 2.2,-3.64765 4,-7.02906 4,-7.51425 0,-1.43715 21.2495,-28.57903 33.21126,-42.42057 21.32157,-24.67224 37.40163,-41.68013 51.28874,-54.248169 44.1428,-39.949864 81.25794,-61.576682 122.93572,-71.634072 11.71068,-2.825938 18.82572,-5.053249 20.5,-6.417374 1.41036,-1.149088 4.58928,-3.0582801 7.06428,-4.2426487 4.06673,-1.9460629 6.85892,-2.2236421 29,-2.8829677 23.22524,-0.6916104 25.04632,-0.6116018 35,1.537715 5.775,1.247007 15.675,4.1586784 22,6.4703804 64.2148,23.469651 121.3723,73.147271 140.4669,122.084776 24.2263,62.08975 25.5339,159.65118 3.0847,230.15827 -5.239,16.45451 -11.0499,26.92029 -27.8754,50.20541 -7.1542,9.90077 -16.9903,28.46169 -23.6592,44.64514 -18.8465,45.73538 -24.2444,55.36765 -49.875,89 -11.2161,14.71769 -40.51291,48.293 -57.58962,66 -36.23954,37.57711 -59.96755,66.44167 -113.0314,137.5 -65.69442,87.97205 -101.92782,146.10008 -126.0039,202.14381 -7.19538,16.74925 -8.08316,18.30606 -11.55023,20.25467 -5.62706,3.16258 -11.76937,3.64879 -15.61012,1.23565 z"
       id="path3001"
       style="fill:#f08080;fill-opacity:1;stroke:none" />
    <path
       d="m 716.5,1241.6097 c -10.13139,-2.4725 -20.78855,-10.4287 -25.00651,-18.6688 -2.95631,-5.7754 -5.18725,-16.5405 -6.47715,-31.2545 -1.53617,-17.5233 -3.30398,-24.1746 -13.2059,-49.6864 C 634.24077,1045.2035 558.63356,936.8495 482.58167,870.81298 457.48588,849.02209 435.32903,833.9072 392,809.02026 321.79339,768.69561 249.6821,719.05331 189,669.27256 156.64784,642.73237 150.82405,637.46107 123.32168,609.82502 94.256457,580.6185 92.275359,578.37574 69.609927,549.01887 L 46.07649,518.53773 29.359547,485.54438 12.642605,452.55102 6.8547992,419.02551 C 3.3509233,398.72952 1.0608534,382.54042 1.0514335,378 c -0.02884,-13.90094 4.1837991,-35.58505 10.9764325,-56.5 6.856038,-21.11018 16.180845,-37.48761 26.759775,-46.99898 3.979243,-3.57768 5.257269,-5.51976 6.189413,-9.40537 2.571069,-10.71742 17.552417,-31.16007 34.525617,-47.11159 11.487104,-10.79565 13.434624,-12.17221 40.044529,-28.30444 l 24.04721,-14.57859 28.95279,-6.41566 28.9528,-6.41566 30.5,0.9145 30.5,0.9145 31.5,7.05857 c 31.47103,7.05207 31.52781,7.06949 61.72949,18.94022 28.66267,11.26582 31.69475,12.71411 58.5,27.94284 26.19788,14.88368 30.037,17.43539 52.36532,34.80511 22.99414,17.88769 24.94413,19.67766 42.68748,39.18436 20.3283,22.34853 19.48575,20.92812 22.80924,38.45284 1.78218,9.39736 -1.60749,18.66432 -8.04462,21.99309 -2.69997,1.39621 -3.09034,1.22336 -14.16171,-6.27048 -13.5736,-9.18753 -22.70513,-16.07072 -45.3852,-34.2106 -38.43211,-30.73861 -56.61568,-42.06585 -82.58498,-51.44528 -11.12218,-4.01705 -12.13497,-4.63105 -23.69881,-14.36734 C 342.37724,232.84626 327.82695,225.64364 306,220.3342 l -14.5,-3.52715 -25,0.52535 c -20.71346,0.43528 -28.63887,1.05314 -46.22265,3.60348 -11.67246,1.69298 -28.97048,3.99338 -38.44004,5.11201 l -17.21739,2.03387 -5.55996,4.61877 c -3.05798,2.54033 -11.53183,10.65348 -18.83078,18.02924 -31.66485,31.99805 -51.674815,66.31838 -59.868731,102.68455 -4.340807,19.26534 -4.582621,33.9447 -0.90743,55.08568 2.084761,11.99227 3.576225,16.89677 10.400061,34.19934 4.38145,11.10964 8.30664,20.78464 8.722644,21.5 0.416004,0.71537 6.381166,9.40066 13.255916,19.30066 17.332,24.95898 34.57711,42.51587 63.16836,64.31037 30.77703,23.46069 62.97028,43.24834 125.5,77.13884 25.57988,13.86405 58.88406,33.38906 76.21454,44.68175 55.307,36.03856 102.46131,81.76258 143.0239,138.68571 20.85853,29.27161 26.3524,37.9006 39.27227,61.68333 6.72268,12.375 14.20896,25.50584 16.63619,29.17965 8.295,12.55512 28.48616,34.31931 71.73199,77.32035 50.35004,50.065 62.27083,63.9487 78.9308,91.9275 8.51896,14.3068 11.21075,19.9578 17.38641,36.5 6.63499,17.7726 7.73531,21.8255 11.96539,44.0725 l 4.65847,24.5 0.09,25 c 0.0641,17.8001 -0.27374,26.0237 -1.17305,28.5546 -1.93712,5.4516 -8.80958,11.562 -15.65132,13.9159 -6.77999,2.3327 -18.96773,2.6203 -27.08561,0.6392 z M 679.35673,976.13413 c -1.7288,-1.08621 -3.89598,-3.02324 -4.81597,-4.30452 C 672.24824,968.63677 659,944.00495 659,942.93541 c 0,-0.47431 3.43154,-13.14131 7.62565,-28.1489 L 674.2513,887.5 693.3224,852.02047 c 16.51976,-30.73309 22.47904,-40.6328 44.54538,-74 C 773.15874,724.65592 832.93386,643.14605 908.01959,546 c 37.36023,-48.33673 59.49292,-79.13492 67.55178,-94 3.72717,-6.875 13.37421,-22.4 21.43787,-34.5 13.98096,-20.97929 15.17826,-23.1831 25.80496,-47.5 l 11.1438,-25.5 6.4157,-27.5 6.4157,-27.5 1.622,-26.84405 1.622,-26.84406 -4.6476,-26.59163 -4.6475,-26.59162 -10.9064,-23.06432 L 1018.9256,136.5 1000.2253,117.75266 981.52505,99.005319 954.51253,87.119704 927.5,75.234089 908.43684,73.048573 889.37367,70.863056 869.93684,74.349973 c -18.5078,3.32025 -20.21718,3.826279 -35.7628,10.586898 -21.70865,9.440856 -22.14525,9.67778 -40.74099,22.107879 -38.29499,25.59784 -77.78791,64.97 -115.80067,115.4466 -16.53966,21.96278 -26.74947,38.34488 -34.77717,55.80155 -7.58861,16.50184 -16.6072,41.06538 -22.83955,62.2071 -9.87168,33.48723 -25.40667,80.03128 -30.54863,91.52609 -3.06897,6.86065 -8.5366,17.71246 -12.15028,24.11512 -7.10679,12.59168 -11.4698,16.92029 -20.35018,20.18974 -5.08559,1.87234 -16.47632,2.21074 -22.07414,0.65579 l -3.60758,-1.0021 -0.67386,-9.78392 c -0.63223,-9.17959 -0.42933,-10.80052 3.28484,-26.24232 7.27742,-30.2561 19.07062,-63.33327 43.12602,-120.9584 16.56478,-39.68123 37.92834,-82.72278 48.95303,-98.6266 5.54849,-8.00404 6.02512,-9.11846 6.02512,-14.08728 0,-4.52293 0.64699,-6.4684 4,-12.02776 2.2,-3.64765 4,-7.02906 4,-7.51425 0,-1.43715 21.2495,-28.57903 33.21126,-42.42057 21.32157,-24.67224 37.40163,-41.68013 51.28874,-54.248169 44.1428,-39.949864 81.25794,-61.576682 122.93572,-71.634072 11.71068,-2.825938 18.82572,-5.053249 20.5,-6.417374 1.41036,-1.149088 4.58928,-3.0582801 7.06428,-4.2426487 4.06673,-1.9460629 6.85892,-2.2236421 29,-2.8829677 23.22524,-0.6916104 25.04632,-0.6116018 35,1.537715 5.775,1.247007 15.675,4.1586784 22,6.4703804 64.2148,23.469651 121.3723,73.147271 140.4669,122.084776 24.2263,62.08975 25.5339,159.65118 3.0847,230.15827 -5.239,16.45451 -11.0499,26.92029 -27.8754,50.20541 -7.1542,9.90077 -16.9903,28.46169 -23.6592,44.64514 -18.8465,45.73538 -24.2444,55.36765 -49.875,89 -11.2161,14.71769 -40.51291,48.293 -57.58962,66 -36.23954,37.57711 -59.96755,66.44167 -113.0314,137.5 -65.69442,87.97205 -101.92782,146.10008 -126.0039,202.14381 -7.19538,16.74925 -8.08316,18.30606 -11.55023,20.25467 -5.62706,3.16258 -11.76937,3.64879 -15.61012,1.23565 z"
       id="path2999"
       style="fill:#f08080;fill-opacity:1;stroke:none" />
    <path
       d="m 716.5,1241.6097 c -10.13139,-2.4725 -20.78855,-10.4287 -25.00651,-18.6688 -2.95631,-5.7754 -5.18725,-16.5405 -6.47715,-31.2545 -1.53617,-17.5233 -3.30398,-24.1746 -13.2059,-49.6864 C 634.24077,1045.2035 558.63356,936.8495 482.58167,870.81298 457.48588,849.02209 435.32903,833.9072 392,809.02026 321.79339,768.69561 249.6821,719.05331 189,669.27256 156.64784,642.73237 150.82405,637.46107 123.32168,609.82502 94.256457,580.6185 92.275359,578.37574 69.609927,549.01887 L 46.07649,518.53773 29.359547,485.54438 12.642605,452.55102 6.8547992,419.02551 C 3.3509233,398.72952 1.0608534,382.54042 1.0514335,378 c -0.02884,-13.90094 4.1837991,-35.58505 10.9764325,-56.5 6.856038,-21.11018 16.180845,-37.48761 26.759775,-46.99898 3.979243,-3.57768 5.257269,-5.51976 6.189413,-9.40537 2.571069,-10.71742 17.552417,-31.16007 34.525617,-47.11159 11.487104,-10.79565 13.434624,-12.17221 40.044529,-28.30444 l 24.04721,-14.57859 28.95279,-6.41566 28.9528,-6.41566 30.5,0.9145 30.5,0.9145 31.5,7.05857 c 31.47103,7.05207 31.52781,7.06949 61.72949,18.94022 28.66267,11.26582 31.69475,12.71411 58.5,27.94284 26.19788,14.88368 30.037,17.43539 52.36532,34.80511 22.99414,17.88769 24.94413,19.67766 42.68748,39.18436 20.3283,22.34853 19.48575,20.92812 22.80924,38.45284 1.78218,9.39736 -1.60749,18.66432 -8.04462,21.99309 -2.69997,1.39621 -3.09034,1.22336 -14.16171,-6.27048 -13.5736,-9.18753 -22.70513,-16.07072 -45.3852,-34.2106 -38.43211,-30.73861 -56.61568,-42.06585 -82.58498,-51.44528 -11.12218,-4.01705 -12.13497,-4.63105 -23.69881,-14.36734 C 342.37724,232.84626 327.82695,225.64364 306,220.3342 l -14.5,-3.52715 -25,0.52535 c -20.71346,0.43528 -28.63887,1.05314 -46.22265,3.60348 -11.67246,1.69298 -28.97048,3.99338 -38.44004,5.11201 l -17.21739,2.03387 -5.55996,4.61877 c -3.05798,2.54033 -11.53183,10.65348 -18.83078,18.02924 -31.66485,31.99805 -51.674815,66.31838 -59.868731,102.68455 -4.340807,19.26534 -4.582621,33.9447 -0.90743,55.08568 2.084761,11.99227 3.576225,16.89677 10.400061,34.19934 4.38145,11.10964 8.30664,20.78464 8.722644,21.5 0.416004,0.71537 6.381166,9.40066 13.255916,19.30066 17.332,24.95898 34.57711,42.51587 63.16836,64.31037 30.77703,23.46069 62.97028,43.24834 125.5,77.13884 25.57988,13.86405 58.88406,33.38906 76.21454,44.68175 55.307,36.03856 102.46131,81.76258 143.0239,138.68571 20.85853,29.27161 26.3524,37.9006 39.27227,61.68333 6.72268,12.375 14.20896,25.50584 16.63619,29.17965 8.295,12.55512 28.48616,34.31931 71.73199,77.32035 50.35004,50.065 62.27083,63.9487 78.9308,91.9275 8.51896,14.3068 11.21075,19.9578 17.38641,36.5 6.63499,17.7726 7.73531,21.8255 11.96539,44.0725 l 4.65847,24.5 0.09,25 c 0.0641,17.8001 -0.27374,26.0237 -1.17305,28.5546 -1.93712,5.4516 -8.80958,11.562 -15.65132,13.9159 -6.77999,2.3327 -18.96773,2.6203 -27.08561,0.6392 z M 679.35673,976.13413 c -1.7288,-1.08621 -3.89598,-3.02324 -4.81597,-4.30452 C 672.24824,968.63677 659,944.00495 659,942.93541 c 0,-0.47431 3.43154,-13.14131 7.62565,-28.1489 L 674.2513,887.5 693.3224,852.02047 c 16.51976,-30.73309 22.47904,-40.6328 44.54538,-74 C 773.15874,724.65592 832.93386,643.14605 908.01959,546 c 37.36023,-48.33673 59.49292,-79.13492 67.55178,-94 3.72717,-6.875 13.37421,-22.4 21.43787,-34.5 13.98096,-20.97929 15.17826,-23.1831 25.80496,-47.5 l 11.1438,-25.5 6.4157,-27.5 6.4157,-27.5 1.622,-26.84405 1.622,-26.84406 -4.6476,-26.59163 -4.6475,-26.59162 -10.9064,-23.06432 L 1018.9256,136.5 1000.2253,117.75266 981.52505,99.005319 954.51253,87.119704 927.5,75.234089 908.43684,73.048573 889.37367,70.863056 869.93684,74.349973 c -18.5078,3.32025 -20.21718,3.826279 -35.7628,10.586898 -21.70865,9.440856 -22.14525,9.67778 -40.74099,22.107879 -38.29499,25.59784 -77.78791,64.97 -115.80067,115.4466 -16.53966,21.96278 -26.74947,38.34488 -34.77717,55.80155 -7.58861,16.50184 -16.6072,41.06538 -22.83955,62.2071 -9.87168,33.48723 -25.40667,80.03128 -30.54863,91.52609 -3.06897,6.86065 -8.5366,17.71246 -12.15028,24.11512 -7.10679,12.59168 -11.4698,16.92029 -20.35018,20.18974 -5.08559,1.87234 -16.47632,2.21074 -22.07414,0.65579 l -3.60758,-1.0021 -0.67386,-9.78392 c -0.63223,-9.17959 -0.42933,-10.80052 3.28484,-26.24232 7.27742,-30.2561 19.07062,-63.33327 43.12602,-120.9584 16.56478,-39.68123 37.92834,-82.72278 48.95303,-98.6266 5.54849,-8.00404 6.02512,-9.11846 6.02512,-14.08728 0,-4.52293 0.64699,-6.4684 4,-12.02776 2.2,-3.64765 4,-7.02906 4,-7.51425 0,-1.43715 21.2495,-28.57903 33.21126,-42.42057 21.32157,-24.67224 37.40163,-41.68013 51.28874,-54.248169 44.1428,-39.949864 81.25794,-61.576682 122.93572,-71.634072 11.71068,-2.825938 18.82572,-5.053249 20.5,-6.417374 1.41036,-1.149088 4.58928,-3.0582801 7.06428,-4.2426487 4.06673,-1.9460629 6.85892,-2.2236421 29,-2.8829677 23.22524,-0.6916104 25.04632,-0.6116018 35,1.537715 5.775,1.247007 15.675,4.1586784 22,6.4703804 64.2148,23.469651 121.3723,73.147271 140.4669,122.084776 24.2263,62.08975 25.5339,159.65118 3.0847,230.15827 -5.239,16.45451 -11.0499,26.92029 -27.8754,50.20541 -7.1542,9.90077 -16.9903,28.46169 -23.6592,44.64514 -18.8465,45.73538 -24.2444,55.36765 -49.875,89 -11.2161,14.71769 -40.51291,48.293 -57.58962,66 -36.23954,37.57711 -59.96755,66.44167 -113.0314,137.5 -65.69442,87.97205 -101.92782,146.10008 -126.0039,202.14381 -7.19538,16.74925 -8.08316,18.30606 -11.55023,20.25467 -5.62706,3.16258 -11.76937,3.64879 -15.61012,1.23565 z"
       id="path2997"
       style="fill:#f08080;fill-opacity:1;stroke:none" />
    <path
       d="m 716.5,1241.6097 c -10.13139,-2.4725 -20.78855,-10.4287 -25.00651,-18.6688 -2.95631,-5.7754 -5.18725,-16.5405 -6.47715,-31.2545 -1.53617,-17.5233 -3.30398,-24.1746 -13.2059,-49.6864 C 634.24077,1045.2035 558.63356,936.8495 482.58167,870.81298 457.48588,849.02209 435.32903,833.9072 392,809.02026 321.79339,768.69561 249.6821,719.05331 189,669.27256 156.64784,642.73237 150.82405,637.46107 123.32168,609.82502 94.256457,580.6185 92.275359,578.37574 69.609927,549.01887 L 46.07649,518.53773 29.359547,485.54438 12.642605,452.55102 6.8547992,419.02551 C 3.3509233,398.72952 1.0608534,382.54042 1.0514335,378 c -0.02884,-13.90094 4.1837991,-35.58505 10.9764325,-56.5 6.856038,-21.11018 16.180845,-37.48761 26.759775,-46.99898 3.979243,-3.57768 5.257269,-5.51976 6.189413,-9.40537 2.571069,-10.71742 17.552417,-31.16007 34.525617,-47.11159 11.487104,-10.79565 13.434624,-12.17221 40.044529,-28.30444 l 24.04721,-14.57859 28.95279,-6.41566 28.9528,-6.41566 30.5,0.9145 30.5,0.9145 31.5,7.05857 c 31.47103,7.05207 31.52781,7.06949 61.72949,18.94022 28.66267,11.26582 31.69475,12.71411 58.5,27.94284 26.19788,14.88368 30.037,17.43539 52.36532,34.80511 22.99414,17.88769 24.94413,19.67766 42.68748,39.18436 20.3283,22.34853 19.48575,20.92812 22.80924,38.45284 1.78218,9.39736 -1.60749,18.66432 -8.04462,21.99309 -2.69997,1.39621 -3.09034,1.22336 -14.16171,-6.27048 -13.5736,-9.18753 -22.70513,-16.07072 -45.3852,-34.2106 -38.43211,-30.73861 -56.61568,-42.06585 -82.58498,-51.44528 -11.12218,-4.01705 -12.13497,-4.63105 -23.69881,-14.36734 C 342.37724,232.84626 327.82695,225.64364 306,220.3342 l -14.5,-3.52715 -25,0.52535 c -20.71346,0.43528 -28.63887,1.05314 -46.22265,3.60348 -11.67246,1.69298 -28.97048,3.99338 -38.44004,5.11201 l -17.21739,2.03387 -5.55996,4.61877 c -3.05798,2.54033 -11.53183,10.65348 -18.83078,18.02924 -31.66485,31.99805 -51.674815,66.31838 -59.868731,102.68455 -4.340807,19.26534 -4.582621,33.9447 -0.90743,55.08568 2.084761,11.99227 3.576225,16.89677 10.400061,34.19934 4.38145,11.10964 8.30664,20.78464 8.722644,21.5 0.416004,0.71537 6.381166,9.40066 13.255916,19.30066 17.332,24.95898 34.57711,42.51587 63.16836,64.31037 30.77703,23.46069 62.97028,43.24834 125.5,77.13884 25.57988,13.86405 58.88406,33.38906 76.21454,44.68175 55.307,36.03856 102.46131,81.76258 143.0239,138.68571 20.85853,29.27161 26.3524,37.9006 39.27227,61.68333 6.72268,12.375 14.20896,25.50584 16.63619,29.17965 8.295,12.55512 28.48616,34.31931 71.73199,77.32035 50.35004,50.065 62.27083,63.9487 78.9308,91.9275 8.51896,14.3068 11.21075,19.9578 17.38641,36.5 6.63499,17.7726 7.73531,21.8255 11.96539,44.0725 l 4.65847,24.5 0.09,25 c 0.0641,17.8001 -0.27374,26.0237 -1.17305,28.5546 -1.93712,5.4516 -8.80958,11.562 -15.65132,13.9159 -6.77999,2.3327 -18.96773,2.6203 -27.08561,0.6392 z M 679.35673,976.13413 c -1.7288,-1.08621 -3.89598,-3.02324 -4.81597,-4.30452 C 672.24824,968.63677 659,944.00495 659,942.93541 c 0,-0.47431 3.43154,-13.14131 7.62565,-28.1489 L 674.2513,887.5 693.3224,852.02047 c 16.51976,-30.73309 22.47904,-40.6328 44.54538,-74 C 773.15874,724.65592 832.93386,643.14605 908.01959,546 c 37.36023,-48.33673 59.49292,-79.13492 67.55178,-94 3.72717,-6.875 13.37421,-22.4 21.43787,-34.5 13.98096,-20.97929 15.17826,-23.1831 25.80496,-47.5 l 11.1438,-25.5 6.4157,-27.5 6.4157,-27.5 1.622,-26.84405 1.622,-26.84406 -4.6476,-26.59163 -4.6475,-26.59162 -10.9064,-23.06432 L 1018.9256,136.5 1000.2253,117.75266 981.52505,99.005319 954.51253,87.119704 927.5,75.234089 908.43684,73.048573 889.37367,70.863056 869.93684,74.349973 c -18.5078,3.32025 -20.21718,3.826279 -35.7628,10.586898 -21.70865,9.440856 -22.14525,9.67778 -40.74099,22.107879 -38.29499,25.59784 -77.78791,64.97 -115.80067,115.4466 -16.53966,21.96278 -26.74947,38.34488 -34.77717,55.80155 -7.58861,16.50184 -16.6072,41.06538 -22.83955,62.2071 -9.87168,33.48723 -25.40667,80.03128 -30.54863,91.52609 -3.06897,6.86065 -8.5366,17.71246 -12.15028,24.11512 -7.10679,12.59168 -11.4698,16.92029 -20.35018,20.18974 -5.08559,1.87234 -16.47632,2.21074 -22.07414,0.65579 l -3.60758,-1.0021 -0.67386,-9.78392 c -0.63223,-9.17959 -0.42933,-10.80052 3.28484,-26.24232 7.27742,-30.2561 19.07062,-63.33327 43.12602,-120.9584 16.56478,-39.68123 37.92834,-82.72278 48.95303,-98.6266 5.54849,-8.00404 6.02512,-9.11846 6.02512,-14.08728 0,-4.52293 0.64699,-6.4684 4,-12.02776 2.2,-3.64765 4,-7.02906 4,-7.51425 0,-1.43715 21.2495,-28.57903 33.21126,-42.42057 21.32157,-24.67224 37.40163,-41.68013 51.28874,-54.248169 44.1428,-39.949864 81.25794,-61.576682 122.93572,-71.634072 11.71068,-2.825938 18.82572,-5.053249 20.5,-6.417374 1.41036,-1.149088 4.58928,-3.0582801 7.06428,-4.2426487 4.06673,-1.9460629 6.85892,-2.2236421 29,-2.8829677 23.22524,-0.6916104 25.04632,-0.6116018 35,1.537715 5.775,1.247007 15.675,4.1586784 22,6.4703804 64.2148,23.469651 121.3723,73.147271 140.4669,122.084776 24.2263,62.08975 25.5339,159.65118 3.0847,230.15827 -5.239,16.45451 -11.0499,26.92029 -27.8754,50.20541 -7.1542,9.90077 -16.9903,28.46169 -23.6592,44.64514 -18.8465,45.73538 -24.2444,55.36765 -49.875,89 -11.2161,14.71769 -40.51291,48.293 -57.58962,66 -36.23954,37.57711 -59.96755,66.44167 -113.0314,137.5 -65.69442,87.97205 -101.92782,146.10008 -126.0039,202.14381 -7.19538,16.74925 -8.08316,18.30606 -11.55023,20.25467 -5.62706,3.16258 -11.76937,3.64879 -15.61012,1.23565 z"
       id="path2995"
       style="fill:#f08080;fill-opacity:1;stroke:none" />
    <path
       d="m 716.5,1241.6097 c -10.13139,-2.4725 -20.78855,-10.4287 -25.00651,-18.6688 -2.95631,-5.7754 -5.18725,-16.5405 -6.47715,-31.2545 -1.53617,-17.5233 -3.30398,-24.1746 -13.2059,-49.6864 C 634.24077,1045.2035 558.63356,936.8495 482.58167,870.81298 457.48588,849.02209 435.32903,833.9072 392,809.02026 321.79339,768.69561 249.6821,719.05331 189,669.27256 156.64784,642.73237 150.82405,637.46107 123.32168,609.82502 94.256457,580.6185 92.275359,578.37574 69.609927,549.01887 L 46.07649,518.53773 29.359547,485.54438 12.642605,452.55102 6.8547992,419.02551 C 3.3509233,398.72952 1.0608534,382.54042 1.0514335,378 c -0.02884,-13.90094 4.1837991,-35.58505 10.9764325,-56.5 6.856038,-21.11018 16.180845,-37.48761 26.759775,-46.99898 3.979243,-3.57768 5.257269,-5.51976 6.189413,-9.40537 2.571069,-10.71742 17.552417,-31.16007 34.525617,-47.11159 11.487104,-10.79565 13.434624,-12.17221 40.044529,-28.30444 l 24.04721,-14.57859 28.95279,-6.41566 28.9528,-6.41566 30.5,0.9145 30.5,0.9145 31.5,7.05857 c 31.47103,7.05207 31.52781,7.06949 61.72949,18.94022 28.66267,11.26582 31.69475,12.71411 58.5,27.94284 26.19788,14.88368 30.037,17.43539 52.36532,34.80511 22.99414,17.88769 24.94413,19.67766 42.68748,39.18436 20.3283,22.34853 19.48575,20.92812 22.80924,38.45284 1.78218,9.39736 -1.60749,18.66432 -8.04462,21.99309 -2.69997,1.39621 -3.09034,1.22336 -14.16171,-6.27048 -13.5736,-9.18753 -22.70513,-16.07072 -45.3852,-34.2106 -38.43211,-30.73861 -56.61568,-42.06585 -82.58498,-51.44528 -11.12218,-4.01705 -12.13497,-4.63105 -23.69881,-14.36734 C 342.37724,232.84626 327.82695,225.64364 306,220.3342 l -14.5,-3.52715 -25,0.52535 c -20.71346,0.43528 -28.63887,1.05314 -46.22265,3.60348 -11.67246,1.69298 -28.97048,3.99338 -38.44004,5.11201 l -17.21739,2.03387 -5.55996,4.61877 c -3.05798,2.54033 -11.53183,10.65348 -18.83078,18.02924 -31.66485,31.99805 -51.674815,66.31838 -59.868731,102.68455 -4.340807,19.26534 -4.582621,33.9447 -0.90743,55.08568 2.084761,11.99227 3.576225,16.89677 10.400061,34.19934 4.38145,11.10964 8.30664,20.78464 8.722644,21.5 0.416004,0.71537 6.381166,9.40066 13.255916,19.30066 17.332,24.95898 34.57711,42.51587 63.16836,64.31037 30.77703,23.46069 62.97028,43.24834 125.5,77.13884 25.57988,13.86405 58.88406,33.38906 76.21454,44.68175 55.307,36.03856 102.46131,81.76258 143.0239,138.68571 20.85853,29.27161 26.3524,37.9006 39.27227,61.68333 6.72268,12.375 14.20896,25.50584 16.63619,29.17965 8.295,12.55512 28.48616,34.31931 71.73199,77.32035 50.35004,50.065 62.27083,63.9487 78.9308,91.9275 8.51896,14.3068 11.21075,19.9578 17.38641,36.5 6.63499,17.7726 7.73531,21.8255 11.96539,44.0725 l 4.65847,24.5 0.09,25 c 0.0641,17.8001 -0.27374,26.0237 -1.17305,28.5546 -1.93712,5.4516 -8.80958,11.562 -15.65132,13.9159 -6.77999,2.3327 -18.96773,2.6203 -27.08561,0.6392 z M 679.35673,976.13413 c -1.7288,-1.08621 -3.89598,-3.02324 -4.81597,-4.30452 C 672.24824,968.63677 659,944.00495 659,942.93541 c 0,-0.47431 3.43154,-13.14131 7.62565,-28.1489 L 674.2513,887.5 693.3224,852.02047 c 16.51976,-30.73309 22.47904,-40.6328 44.54538,-74 C 773.15874,724.65592 832.93386,643.14605 908.01959,546 c 37.36023,-48.33673 59.49292,-79.13492 67.55178,-94 3.72717,-6.875 13.37421,-22.4 21.43787,-34.5 13.98096,-20.97929 15.17826,-23.1831 25.80496,-47.5 l 11.1438,-25.5 6.4157,-27.5 6.4157,-27.5 1.622,-26.84405 1.622,-26.84406 -4.6476,-26.59163 -4.6475,-26.59162 -10.9064,-23.06432 L 1018.9256,136.5 1000.2253,117.75266 981.52505,99.005319 954.51253,87.119704 927.5,75.234089 908.43684,73.048573 889.37367,70.863056 869.93684,74.349973 c -18.5078,3.32025 -20.21718,3.826279 -35.7628,10.586898 -21.70865,9.440856 -22.14525,9.67778 -40.74099,22.107879 -38.29499,25.59784 -77.78791,64.97 -115.80067,115.4466 -16.53966,21.96278 -26.74947,38.34488 -34.77717,55.80155 -7.58861,16.50184 -16.6072,41.06538 -22.83955,62.2071 -9.87168,33.48723 -25.40667,80.03128 -30.54863,91.52609 -3.06897,6.86065 -8.5366,17.71246 -12.15028,24.11512 -7.10679,12.59168 -11.4698,16.92029 -20.35018,20.18974 -5.08559,1.87234 -16.47632,2.21074 -22.07414,0.65579 l -3.60758,-1.0021 -0.67386,-9.78392 c -0.63223,-9.17959 -0.42933,-10.80052 3.28484,-26.24232 7.27742,-30.2561 19.07062,-63.33327 43.12602,-120.9584 16.56478,-39.68123 37.92834,-82.72278 48.95303,-98.6266 5.54849,-8.00404 6.02512,-9.11846 6.02512,-14.08728 0,-4.52293 0.64699,-6.4684 4,-12.02776 2.2,-3.64765 4,-7.02906 4,-7.51425 0,-1.43715 21.2495,-28.57903 33.21126,-42.42057 21.32157,-24.67224 37.40163,-41.68013 51.28874,-54.248169 44.1428,-39.949864 81.25794,-61.576682 122.93572,-71.634072 11.71068,-2.825938 18.82572,-5.053249 20.5,-6.417374 1.41036,-1.149088 4.58928,-3.0582801 7.06428,-4.2426487 4.06673,-1.9460629 6.85892,-2.2236421 29,-2.8829677 23.22524,-0.6916104 25.04632,-0.6116018 35,1.537715 5.775,1.247007 15.675,4.1586784 22,6.4703804 64.2148,23.469651 121.3723,73.147271 140.4669,122.084776 24.2263,62.08975 25.5339,159.65118 3.0847,230.15827 -5.239,16.45451 -11.0499,26.92029 -27.8754,50.20541 -7.1542,9.90077 -16.9903,28.46169 -23.6592,44.64514 -18.8465,45.73538 -24.2444,55.36765 -49.875,89 -11.2161,14.71769 -40.51291,48.293 -57.58962,66 -36.23954,37.57711 -59.96755,66.44167 -113.0314,137.5 -65.69442,87.97205 -101.92782,146.10008 -126.0039,202.14381 -7.19538,16.74925 -8.08316,18.30606 -11.55023,20.25467 -5.62706,3.16258 -11.76937,3.64879 -15.61012,1.23565 z"
       id="path2993"
       style="fill:#f08080;fill-opacity:1;stroke:none" />
    <path
       d="m 716.5,1241.6097 c -10.13139,-2.4725 -20.78855,-10.4287 -25.00651,-18.6688 -2.95631,-5.7754 -5.18725,-16.5405 -6.47715,-31.2545 -1.53617,-17.5233 -3.30398,-24.1746 -13.2059,-49.6864 C 634.24077,1045.2035 558.63356,936.8495 482.58167,870.81298 457.48588,849.02209 435.32903,833.9072 392,809.02026 321.79339,768.69561 249.6821,719.05331 189,669.27256 156.64784,642.73237 150.82405,637.46107 123.32168,609.82502 94.253828,580.61586 92.277017,578.37789 69.599252,549.00507 L 46.05514,518.51014 29.14682,485.00507 C 12.569365,452.15563 12.208118,451.30432 10.685811,441.5 9.8318319,436 7.3031692,420.9969 5.0665607,408.15977 c -2.2507606,-12.91835 -4.0585516,-26.53721 -4.0486239,-30.5 0.049234,-19.65273 9.5750602,-57.87922 19.2119642,-77.09628 5.277754,-10.52443 12.398464,-20.52475 18.55774,-26.06247 3.979243,-3.57768 5.257269,-5.51976 6.189413,-9.40537 2.571069,-10.71742 17.552417,-31.16007 34.525617,-47.11159 11.487104,-10.79565 13.434624,-12.17221 40.044529,-28.30444 l 24.04721,-14.57859 28.95279,-6.41566 28.9528,-6.41566 30.5,0.9145 30.5,0.9145 31.5,7.05857 c 31.47103,7.05207 31.52781,7.06949 61.72949,18.94022 28.66267,11.26582 31.69475,12.71411 58.5,27.94284 26.19788,14.88368 30.037,17.43539 52.36532,34.80511 22.99414,17.88769 24.94413,19.67766 42.68748,39.18436 20.3283,22.34853 19.48575,20.92812 22.80924,38.45284 1.78218,9.39736 -1.60749,18.66432 -8.04462,21.99309 -2.69997,1.39621 -3.09034,1.22336 -14.16171,-6.27048 -13.5736,-9.18753 -22.70513,-16.07072 -45.3852,-34.2106 -38.43211,-30.73861 -56.61568,-42.06585 -82.58498,-51.44528 -11.12218,-4.01705 -12.13497,-4.63105 -23.69881,-14.36734 C 342.37724,232.84626 327.82695,225.64364 306,220.3342 l -14.5,-3.52715 -25,0.52535 c -20.71346,0.43528 -28.63887,1.05314 -46.22265,3.60348 -11.67246,1.69298 -28.97048,3.99338 -38.44004,5.11201 l -17.21739,2.03387 -5.55996,4.61877 c -3.05798,2.54033 -11.53183,10.65348 -18.83078,18.02924 -31.66485,31.99805 -51.674815,66.31838 -59.868731,102.68455 -4.340807,19.26534 -4.582621,33.9447 -0.90743,55.08568 2.084761,11.99227 3.576225,16.89677 10.400061,34.19934 4.38145,11.10964 8.30664,20.78464 8.722644,21.5 0.416004,0.71537 6.381166,9.40066 13.255916,19.30066 17.332,24.95898 34.57711,42.51587 63.16836,64.31037 30.77703,23.46069 62.97028,43.24834 125.5,77.13884 25.57988,13.86405 58.88406,33.38906 76.21454,44.68175 55.307,36.03856 102.46131,81.76258 143.0239,138.68571 20.85853,29.27161 26.3524,37.9006 39.27227,61.68333 6.72268,12.375 14.20896,25.50584 16.63619,29.17965 8.295,12.55512 28.48616,34.31931 71.73199,77.32035 50.35004,50.065 62.27083,63.9487 78.9308,91.9275 8.51896,14.3068 11.21075,19.9578 17.38641,36.5 6.63499,17.7726 7.73531,21.8255 11.96539,44.0725 l 4.65847,24.5 0.09,25 c 0.0641,17.8001 -0.27374,26.0237 -1.17305,28.5546 -1.93712,5.4516 -8.80958,11.562 -15.65132,13.9159 -6.77999,2.3327 -18.96773,2.6203 -27.08561,0.6392 z M 679.35673,976.13413 c -1.7288,-1.08621 -3.89598,-3.02324 -4.81597,-4.30452 C 672.24824,968.63677 659,944.00495 659,942.93541 c 0,-0.47431 3.43154,-13.14131 7.62565,-28.1489 L 674.2513,887.5 693.3224,852.02047 c 16.51976,-30.73309 22.47904,-40.6328 44.54538,-74 C 773.15874,724.65592 832.93386,643.14605 908.01959,546 c 37.36023,-48.33673 59.49292,-79.13492 67.55178,-94 3.72717,-6.875 13.37421,-22.4 21.43787,-34.5 13.98096,-20.97929 15.17826,-23.1831 25.80496,-47.5 l 11.1438,-25.5 6.4157,-27.5 6.4157,-27.5 1.622,-26.84405 1.622,-26.84406 -4.6476,-26.59163 -4.6475,-26.59162 -10.9064,-23.06432 L 1018.9256,136.5 1000.2253,117.75266 981.52505,99.005319 954.51253,87.119704 927.5,75.234089 908.43684,73.048573 889.37367,70.863056 869.93684,74.349973 c -18.5078,3.32025 -20.21718,3.826279 -35.7628,10.586898 -21.70865,9.440856 -22.14525,9.67778 -40.74099,22.107879 -38.29499,25.59784 -77.78791,64.97 -115.80067,115.4466 -16.53966,21.96278 -26.74947,38.34488 -34.77717,55.80155 -7.58861,16.50184 -16.6072,41.06538 -22.83955,62.2071 -9.87168,33.48723 -25.40667,80.03128 -30.54863,91.52609 -3.06897,6.86065 -8.5366,17.71246 -12.15028,24.11512 -7.10679,12.59168 -11.4698,16.92029 -20.35018,20.18974 -5.08559,1.87234 -16.47632,2.21074 -22.07414,0.65579 l -3.60758,-1.0021 -0.67386,-9.78392 c -0.63223,-9.17959 -0.42933,-10.80052 3.28484,-26.24232 7.27742,-30.2561 19.07062,-63.33327 43.12602,-120.9584 16.56478,-39.68123 37.92834,-82.72278 48.95303,-98.6266 5.54849,-8.00404 6.02512,-9.11846 6.02512,-14.08728 0,-4.52293 0.64699,-6.4684 4,-12.02776 2.2,-3.64765 4,-7.02906 4,-7.51425 0,-1.43715 21.2495,-28.57903 33.21126,-42.42057 21.32157,-24.67224 37.40163,-41.68013 51.28874,-54.248169 44.1428,-39.949864 81.25794,-61.576682 122.93572,-71.634072 11.71068,-2.825938 18.82572,-5.053249 20.5,-6.417374 1.41036,-1.149088 4.58928,-3.0582801 7.06428,-4.2426487 4.06673,-1.9460629 6.85892,-2.2236421 29,-2.8829677 23.22524,-0.6916104 25.04632,-0.6116018 35,1.537715 5.775,1.247007 15.675,4.1586784 22,6.4703804 64.2148,23.469651 121.3723,73.147271 140.4669,122.084776 24.2263,62.08975 25.5339,159.65118 3.0847,230.15827 -5.239,16.45451 -11.0499,26.92029 -27.8754,50.20541 -7.1542,9.90077 -16.9903,28.46169 -23.6592,44.64514 -18.8465,45.73538 -24.2444,55.36765 -49.875,89 -11.2161,14.71769 -40.51291,48.293 -57.58962,66 -36.23954,37.57711 -59.96755,66.44167 -113.0314,137.5 -65.69442,87.97205 -101.92782,146.10008 -126.0039,202.14381 -7.19538,16.74925 -8.08316,18.30606 -11.55023,20.25467 -5.62706,3.16258 -11.76937,3.64879 -15.61012,1.23565 z"
       id="path2991"
       style="fill:#f08080;fill-opacity:1;stroke:none" />
    <path
       style="fill:#f08080;fill-opacity:1;stroke:none"
       d="M 716.5,1241.5275 C 666.32028,1208.3222 688.58584,1135.1441 650.15855,1092.0987 587.91386,965.35096 489.688,853.48964 361.74871,790.64718 237.40885,713.30567 112.07058,624.76028 34.766086,497.4937 -4.1743415,427.16042 -12.598931,333.16353 40.786782,267.51344 82.161939,195.07382 165.79529,154.45742 248.27707,163.58181 c 96.68821,8.44899 187.05365,57.55432 258.14087,121.52683 37.37458,22.29698 19.72023,92.33312 -20.07367,42.52797 -57.3983,-42.11986 -116.6586,-85.98531 -184.82138,-107.66501 -53.84086,-7.33523 -117.76128,-4.28263 -161.15862,30.55645 -59.268283,52.81353 -84.669979,145.95719 -39.79804,215.7172 73.1786,122.71678 225.65064,151.86694 327.60398,242.55886 81.22346,59.27324 117.81279,155.85282 180.65725,230.72845 72.26431,64.32754 151.2724,142.80634 151.12246,246.82494 7.70925,29.1941 -6.11153,69.7099 -43.44992,55.17 z m -19.04271,-14.4584 c 0.51762,-4.9152 -2.93769,3.2926 0,0 z M 511.66667,894.54399 c -2.72638,-3.55744 0.14736,4.79909 0,0 z M 473.45729,859.0691 c 0.51769,-4.91525 -2.93778,3.29247 0,0 z m 70.16329,-13.68968 c -3.30156,-2.48286 1.11738,8.47196 0,0 z m -39.95391,-55.83543 c -2.72638,-3.55744 0.14736,4.79909 0,0 z M 309.45729,756.0691 c 0.51769,-4.91525 -2.93778,3.29247 0,0 z M 247.12756,598.25 c 2.20795,-4.5007 -7.40678,7.84753 0,0 z m -65.46089,-41.70601 c -2.72638,-3.55744 0.14736,4.79909 0,0 z m -64.26968,-61.37732 c -2.05463,-3.59205 -2.05467,3.59203 0,0 z M 527.66667,346.54399 c -2.72638,-3.55744 0.14736,4.79909 0,0 z m -54.04609,-33.16457 c -3.30156,-2.48286 1.11738,8.47196 0,0 z M 118,273.39235 115.67498,272.91917 118,273.39235 z m 273.39699,-12.22568 c -2.05463,-3.59205 -2.05467,3.59203 0,0 z M 65.607127,238.52894 c 0.290144,-8.0048 -2.61341,3.83584 0,0 z M 89.457295,212.9309 c -3.721713,-4.72181 -0.198187,5.63719 0,0 z M 99,207.62244 c -4.609381,-3.87651 -2.747694,-2.31082 0,0 z M 679.35673,976.10353 C 636.98244,928.66691 687.43137,868.81415 709.50875,823.80078 793.86867,679.18075 911.76626,557.83095 999.05939,415.36776 1055.5217,328.65644 1076.9158,197.68583 1000.4854,115.7826 947.92227,62.147546 859.73994,59.374421 799.66495,102.20056 724.0143,154.06764 660.86843,228.30978 627.12622,314.0574 604.30433,366.54798 606.50709,434.95594 558.27937,472.69985 495.82882,451.26699 573.45998,356.23563 582.16019,308.1676 619.02557,225.41856 660.37213,141.38534 732.50726,83.294791 798.45542,26.938271 896.13563,-20.522228 981.16361,21.244739 1059.9887,53.955388 1119.9226,131.9061 1118.7488,219.04637 c 6.3593,72.52558 -3.412,151.52826 -50.5818,209.8446 -28.9626,69.51782 -68.0459,134.93921 -123.94156,186.1414 -87.67589,98.54379 -169.11346,204.51168 -230.43498,321.5397 -5.72786,16.05204 -11.19461,43.77072 -34.43373,39.53146 z m -17.69006,-35.55954 c -2.72638,-3.55744 0.14736,4.79909 0,0 z M 854,721.39235 851.67498,720.91917 854,721.39235 z m 33.66667,-141.84836 c -2.72638,-3.55744 0.14736,4.79909 0,0 z m 87.94046,-1.01505 c 0.29015,-8.0048 -2.6134,3.83584 0,0 z M 921.45729,534.0691 c 0.51769,-4.91525 -2.93778,3.29247 0,0 z m 24,-32 c 0.51769,-4.91525 -2.93778,3.29247 0,0 z M 568.87082,466.34434 c -4.24687,-4.54396 -1.22934,5.43286 0,0 z M 703.66667,186.54399 c -2.72638,-3.55744 0.14736,4.79909 0,0 z m 21,-24 c -2.72638,-3.55744 0.14736,4.79909 0,0 z m 292.41663,-31.96066 c -2.6505,-9.44578 -4.6209,3.91871 0,0 z m -248.46798,-9.16808 c -3.74165,-3.05131 0.4955,8.74812 0,0 z m 240.83188,0.49934 c -4.6493,-2.65727 0.2974,5.34681 0,0 z m -8,-8 c -4.64928,-2.65725 0.2974,5.34681 0,0 z m -8.36387,-7.33126 c -2.65057,-9.445745 -4.62095,3.91862 0,0 z m -7.62604,-7.514232 c 0.5177,-4.915256 -2.93778,3.292472 0,0 z m -10.0603,-5.902431 c -2.05464,-3.592036 -2.05464,3.592032 0,0 z"
       id="path2989"
       inkscape:connector-curvature="0" />
  </g>
</svg>
