<?xml version="1.0" encoding="UTF-8" standalone="no"?>
<!-- Created with Inkscape (http://www.inkscape.org/) -->

<svg
   xmlns:dc="http://purl.org/dc/elements/1.1/"
   xmlns:cc="http://creativecommons.org/ns#"
   xmlns:rdf="http://www.w3.org/1999/02/22-rdf-syntax-ns#"
   xmlns:svg="http://www.w3.org/2000/svg"
   xmlns="http://www.w3.org/2000/svg"
   version="1.1"
   width="366.46295"
   height="213.59117"
   id="svg3235">
  <metadata
     id="metadata3241">
    <rdf:RDF>
      <cc:Work
         rdf:about="">
        <dc:format>image/svg+xml</dc:format>
        <dc:type
           rdf:resource="http://purl.org/dc/dcmitype/StillImage" />
        <dc:title></dc:title>
      </cc:Work>
    </rdf:RDF>
  </metadata>
  <defs
     id="defs3239" />
  <g
     transform="translate(-14.935347,-36.904236)"
     id="g3251">
    <path
       d="m 103.22373,249.19734 c -3.909266,-1.39616 -10.862206,-6.46966 -14.526506,-10.59988 -1.21989,-1.375 -2.98558,-4.59714 -3.92374,-7.16031 -1.63911,-4.47822 -1.8353,-4.63928 -5.0211,-4.1223 -9.48999,1.54002 -13.49114,-9.42636 -9.8154,-26.90201 2.25483,-10.72014 6.51506,-18.70264 13.25056,-24.82785 7.22539,-6.57071 12.88653,-9.44333 22.269856,-11.30034 8.83016,-1.74753 16.23491,-1.06711 23.38585,2.14891 7.61837,3.42624 10.73848,6.2908 17.3225,15.90373 6.18236,9.02648 12.21008,23.62932 12.22529,29.61716 0.006,2.19364 0.37476,2.71596 1.59005,2.24961 2.77079,-1.06325 107.28979,-0.62179 107.95589,0.45598 0.24161,0.39094 -0.23907,1.2738 -1.06818,1.9619 -1.18818,0.9861 -11.83571,1.09602 -50.26833,0.51895 -26.81847,-0.40269 -50.77265,-0.4241 -53.23151,-0.0476 -3.93229,0.60213 -4.68506,1.1423 -6.25108,4.48564 -1.7519,3.74023 -6.23195,6.68107 -8.84895,5.80874 -0.67705,-0.22568 -2.28784,1.6417 -3.57953,4.14973 -2.37923,4.61964 -9.64492,11.98131 -13.61916,13.79906 -5.60888,2.56541 -7.5371,3.21502 -12.47116,4.2015 -6.85116,1.36978 -10.83319,1.28157 -15.37535,-0.34062 z m 16.67457,-3.96208 c 10.36951,-2.23281 17.98192,-7.83561 22.11004,-16.27319 2.45478,-5.01738 2.62116,-6.15443 2.16808,-14.81648 -0.4069,-7.77915 -0.93985,-10.14839 -3.11949,-13.86766 -4.07433,-6.95232 -13.9418,-15.33016 -20.19808,-17.14892 -14.60506,-4.2458 -25.427506,0.32313 -33.087096,13.96845 -2.62083,4.66891 -2.796,5.69529 -2.64543,15.5 0.23046,15.00613 2.46869,20.74959 10.72152,27.51216 7.726916,6.33163 13.115846,7.48012 24.050456,5.12564 z m -11.27486,-16.30837 c -4.49531,-1.59068 -6.41308,-4.48384 -7.77131,-11.72388 -0.82904,-4.41916 2.50272,-11.0146 6.64667,-13.15752 6.54804,-3.38613 15.39333,1.25672 16.47163,8.64587 0.57781,3.95953 -1.01359,7.42773 -4.6448,10.12256 -2.45261,1.82015 -2.76721,1.83141 -6.74135,0.24128 -3.38935,-1.35615 -4.37775,-2.36578 -5.28698,-5.4005 -0.91463,-3.05276 -0.82514,-4.29938 0.49136,-6.84522 2.12514,-4.10956 2.03155,-4.90382 -0.32638,-2.76992 -5.11611,4.63002 -4.0511,13.7913 1.95376,16.80635 11.42546,5.73673 21.11808,-5.22126 15.08265,-17.05168 -2.19141,-4.29551 -5.24215,-6.44804 -10.85039,-7.65579 -4.58115,-0.98656 -4.04162,-2.54098 0.88197,-2.54098 5.69642,0 10.19763,3.04236 12.85018,8.68541 4.87802,10.37755 1.33014,20.64386 -8.06542,23.33847 -4.30744,1.23536 -5.44709,1.16134 -10.69159,-0.69445 z m 10.00159,-10.07943 c 3.79374,-4.3203 3.02428,-8.44367 -1.92695,-10.32612 -3.16823,-1.20456 -4.98427,-0.26772 -6.19093,3.19371 -2.2546,6.46756 3.93009,11.90146 8.11788,7.13241 z m -36.587566,-6 c -0.086,-10.9388 0.0933,-12.09519 2.59635,-16.75 4.56798,-8.49482 11.71177,-15.07796 18.617296,-17.15622 6.25728,-1.88316 10.42673,-1.68406 18.57624,0.88706 6.05798,1.91125 8.01686,3.16476 13.67377,8.75 8.98892,8.87503 11.89219,15.14472 12.22701,26.40455 0.13953,4.6923 0.55835,8.83613 0.93072,9.20849 0.37237,0.37237 1.79505,-0.0555 3.16151,-0.95085 3.77814,-2.47554 4.24218,-7.36421 1.6105,-16.96696 -2.75388,-10.04869 -5.49603,-15.54011 -12.14946,-24.33052 -5.94714,-7.85726 -6.46793,-8.30928 -13.8831,-12.05011 -4.87804,-2.4609 -6.57429,-2.77167 -15,-2.74822 -8.54941,0.0238 -10.1778,0.34382 -16.273826,3.19823 -8.09432,3.79008 -16.30607,11.6179 -19.60738,18.69066 -3.19683,6.84893 -5.3647,17.94321 -4.8782,24.96475 0.34029,4.91125 0.86687,6.29482 3.1399,8.25 1.50207,1.29203 3.77053,2.34914 5.04103,2.34914 2.2875,0 2.30909,-0.11441 2.21764,-11.75 z M 299.58131,236.1369 c -1.82435,-0.82457 -5.72304,-3.96365 -8.66376,-6.97572 -4.51234,-4.62181 -5.53539,-5.2492 -6.55545,-4.0201 -1.67518,2.01847 -5.86578,1.81355 -9.61071,-0.46996 -4.59546,-2.80215 -5.88564,-7.51333 -5.67686,-20.72953 0.16489,-10.43823 0.39749,-11.62832 3.61571,-18.5 1.89172,-4.03927 4.96241,-8.77543 6.82377,-10.5248 7.23723,-6.80179 18.64784,-10.48243 30.38429,-9.80083 7.16259,0.41597 18.41616,4.51664 23.41747,8.53306 7.08495,5.68973 11.76157,17.11944 12.76001,31.18562 l 0.62201,8.76282 5.28515,0 c 11.995,0 13.3617,-2.51873 14.92184,-27.5 0.27479,-4.4 0.7628,-9.6875 1.08447,-11.75 0.62124,-3.98336 -0.12347,-4.77158 -2.03645,-2.15542 -1.04309,1.42651 -1.52903,1.4401 -4.61025,0.12888 -5.43477,-2.31277 -7.71007,-5.50495 -8.37295,-11.74703 -0.46451,-4.37403 -0.16876,-6.3431 1.42106,-9.46144 1.1042,-2.16583 2.00764,-3.99044 2.00764,-4.0547 0,-0.25616 -85.35724,-0.90965 -113.5,-0.86895 -19.18715,0.0277 -33.7845,0.53261 -40.5,1.40072 -8.17225,1.05642 -23.6906,1.26355 -70,0.93431 -73.160606,-0.52014 -92.525016,-0.42566 -97.325086,0.47484 l -3.73039,0.69982 0.5446,4.69949 c 0.29954,2.58471 1.43179,12.57448 2.51612,22.19948 1.08434,9.625 2.40294,20.425 2.93024,24 0.5273,3.575 1.22066,8.525 1.5408,11 0.92921,7.18358 0.79191,7.11782 12.52676,5.99971 5.71521,-0.54455 11.17626,-1.23923 12.13566,-1.54373 1.29149,-0.4099 1.70487,-0.0294 1.59226,1.46549 -0.16777,2.22726 -1.41392,2.49772 -16.72772,3.63051 -4.67322,0.34568 -8.83573,1.15041 -9.25002,1.78827 -0.49173,0.75707 -0.96736,0.37853 -1.36988,-1.09025 -0.62672,-2.28691 -1.94475,-2.9845 -2.55001,-1.34961 -0.49689,1.34219 -10.48374,-0.50942 -14.03373,-2.60193 -1.98208,-1.16831 -3.70467,-3.4696 -4.91632,-6.56795 -1.61394,-4.12705 -1.70285,-5.37641 -0.66005,-9.27532 1.47708,-5.52264 3.76078,-7.12626 11.39349,-8.00052 3.23581,-0.37064 5.92686,-0.73706 5.98011,-0.81428 0.0533,-0.0772 -0.23231,-3.29039 -0.63459,-7.14039 -4.72227,-45.19368 -4.77276,-45.91531 -5.52732,-79 -0.73944,-32.422016 0.27822,-60.500006 2.19276,-60.500006 0.75478,0 1.37232,-0.37793 1.37232,-0.83984 0,-1.21064 14.71586,-3.54279 29.5,-4.67511 57.468326,-4.40153 87.589456,-5.17197 118.499996,-3.03099 2.475,0.17143 8.775,0.60098 14,0.95455 16.15928,1.09349 59.98621,8.10384 76.40862,12.22197 8.8269,2.21345 22.77203,6.5275 29.62757,9.16555 1.3551,0.52145 4.07013,1.45541 6.0334,2.07547 5.69949,1.80007 28.06718,14.9572 32.24494,18.96712 14.6108,14.023843 23.81022,29.383736 28.11183,46.937176 1.31064,5.34826 2.69902,10.51161 3.0853,11.47411 0.49444,1.23203 0.22668,1.75 -0.90467,1.75 -0.88385,0 -1.60699,-0.45 -1.60699,-1 0,-0.55 -0.675,-1 -1.5,-1 -0.90036,0 -1.5,-0.92329 -1.5,-2.30961 0,-3.59193 -4.01955,-18.69035 -6.30692,-23.69039 -3.9131,-8.55373 -12.53213,-20.526311 -19.84895,-27.571891 -9.51876,-9.165905 -24.04602,-17.532615 -31.30401,-18.028975 -11.82736,-0.80886 -35.25482,-1.27157 -37.76574,-0.74591 l -2.72563,0.57061 0.38675,26.138082 c 0.21271,14.375944 0.71198,28.517614 1.10948,31.425924 l 0.72272,5.28783 11.36615,-0.14545 11.36615,-0.14545 0,-2.94204 c 0,-1.61813 0.68069,-4.25836 1.51264,-5.86718 1.45769,-2.81885 1.3877,-3.08881 -1.92626,-7.43033 -1.8914,-2.47787 -3.72741,-5.41421 -4.08003,-6.52522 -0.35262,-1.111 -1.2458,-2.02 -1.98484,-2.02 -1.66631,0 -6.52151,-5.640808 -6.52151,-7.576727 0,-0.842317 -0.99637,-1.423275 -2.44098,-1.423275 -2.4758,0 -4.77591,-1.973406 -2.36804,-2.03168 0.71996,-0.01742 0.0715,-0.954957 -1.44098,-2.083407 -3.23296,-2.412052 -3.61513,-4.344413 -0.70892,-3.58442 1.72016,0.44983 1.93245,0.193006 1.35014,-1.633369 -1.02632,-3.219028 -1.00157,-4.167128 0.10878,-4.167128 0.55,0 0.9375,0.5625 0.86111,1.25 -0.22959,2.066304 0.6262,1.41359 1.63889,-1.25 0.52277,-1.375 1.36761,-2.5 1.87742,-2.5 1.16404,0 3.10629,5.448378 3.17242,8.899227 0.0441,2.299129 0.2885,2.108707 2.1075,-1.641803 1.13171,-2.333424 2.46093,-3.993344 2.95383,-3.688714 1.01889,0.62971 0.19954,4.603788 -1.70673,8.278131 -1.0654,2.053559 -1.04006,2.957107 0.14731,5.253239 1.77822,3.438696 2.87077,4.131756 6.89889,4.376306 2.82813,0.17171 8.98363,3.5627 10.67436,5.88038 1.49449,2.04868 1.84313,-1.68509 0.52164,-5.58654 -2.29234,-6.76767 -3.05552,-15.368894 -1.66215,-18.732786 3.22056,-7.77512 16.03999,-10.01865 21.70539,-3.79867 3.43217,3.76813 5.60702,11.944904 4.38459,16.484668 -1.07626,3.996918 -4.31753,8.276568 -6.26841,8.276568 -0.61382,0 -0.30155,0.9 0.69394,2 0.99549,1.1 2.58527,2 3.53286,2 2.8184,0 8.67956,2.80819 9.31447,4.46274 0.32445,0.84549 1.14402,1.53726 1.82129,1.53726 0.95774,0 0.96471,-0.26667 0.0314,-1.2 -1.99483,-1.99483 -1.36593,-3.54651 1.89867,-4.68455 2.12302,-0.74009 3.69733,-0.75981 5,-0.0626 2.50051,1.33823 2.43818,2.25236 -0.0987,1.44719 -2.20359,-0.69939 -6,0.19078 -6,1.40687 0,1.22247 4.82728,3.09664 6.41083,2.48897 0.78899,-0.30276 1.6802,-1.19068 1.98047,-1.97316 1.57817,-4.11264 8.95476,0.93885 10.08518,6.90634 1.69737,8.96044 2.77002,11.56438 4.88822,11.86646 2.9442,0.41988 2.68901,3.08323 -0.3647,3.80636 -1.375,0.3256 -4.975,0.25486 -8,-0.15722 -5.34117,-0.72758 -32.39674,-1.13412 -64,-0.96167 -8.525,0.0465 -25.625,0.76619 -38,1.59927 -37.54007,2.52716 -161.788506,2.44761 -177.906266,-0.11391 -1.95123,-0.3101 -11.59847,-0.85733 -21.43831,-1.21607 l -17.89061,-0.65228 0.50694,6.30601 c 0.27882,3.46831 0.69958,6.49864 0.93502,6.73408 0.23543,0.23544 9.17273,0.0977 19.86065,-0.30601 10.68793,-0.40374 27.30759,-0.37523 36.93259,0.0634 22.260846,1.01439 106.535526,0.093 122.999996,-1.34476 6.875,-0.60037 24.425,-1.01237 39,-0.91557 20.96294,0.13923 99.84658,0.161 114.5,0.0316 1.65,-0.0146 3.49961,0.63901 4.11024,1.4524 0.61064,0.81339 1.87048,1.47889 2.79966,1.47889 0.92918,0 2.93688,0.64509 4.46156,1.43353 2.8515,1.47457 5.12854,6.73846 5.12854,11.85576 0,2.95068 -4.29481,8.4921 -7.5371,9.72482 -2.40162,0.91309 -2.9112,4.06097 -4.0086,24.76245 -0.56489,10.65636 -2.42397,16.17869 -6.6411,19.72716 -2.58019,2.17109 -3.93367,2.49628 -10.38993,2.49628 -6.72775,0 -7.42327,0.18523 -7.42327,1.97695 0,2.62023 -4.16897,5.24882 -7.68536,4.84571 -2.36484,-0.2711 -3.24556,0.3486 -5.51118,3.87778 -1.4831,2.31023 -4.57222,5.44169 -6.86471,6.95879 -3.65432,2.41832 -5.29437,2.79665 -13.30346,3.06891 -6.53892,0.22228 -10.07802,-0.11556 -12.45228,-1.1887 z m 17.75675,-3.02926 c 2.16981,-0.36659 4.47611,-1.30635 5.12512,-2.08835 0.649,-0.78201 1.60705,-1.42183 2.12899,-1.42183 2.18986,0 5.8206,-5.54082 8.1438,-12.42814 1.9477,-5.77415 2.13977,-13.79012 0.48764,-20.35135 -3.25376,-12.92185 -24.30251,-22.43591 -35.51815,-16.05425 -9.84332,5.60081 -12.48652,10.12681 -12.93315,22.14562 -0.3026,8.14266 -0.0965,9.29486 2.62763,14.69138 4.34772,8.61277 11.00639,14.36398 18.49836,15.97737 3.17348,0.68341 5.07233,0.60532 11.43976,-0.47045 z m -9.96725,-10.22519 c -6.60144,-4.57896 -9.0748,-8.70569 -9.1253,-15.22526 -0.0312,-4.03053 0.52181,-5.85476 2.60154,-8.58142 5.79706,-7.60034 17.05315,-5.03558 19.03725,4.33774 0.90387,4.2701 -1.0641,9.07304 -4.20727,10.26808 -7.98275,3.03503 -12.27055,-2.07195 -9.1809,-10.93491 0.83033,-2.38189 1.69751,-3.14922 3.55901,-3.14922 1.38615,0 2.19124,-0.4368 1.84316,-1 -1.16491,-1.88487 -4.65471,-0.99914 -7.57692,1.92308 -4.66575,4.66574 -3.73376,11.6225 2.2947,17.12865 3.85329,3.51943 4.97096,3.61278 9.52892,0.7958 4.90526,-3.03162 6.60127,-7.51674 5.14235,-13.59899 -1.56175,-6.51092 -3.13144,-8.72024 -8.38164,-11.79706 -4.79352,-2.80919 -5.44812,-3.87652 -2.96249,-4.83034 0.91474,-0.35102 3.53655,0.89404 6.42748,3.05232 4.54513,3.39325 4.99122,4.12638 6.45507,10.60852 2.04232,9.04366 1.97892,11.53926 -0.39198,15.42768 -1.85472,3.04187 -8.42419,7.29034 -11.27315,7.29034 -0.72453,0 -2.42996,-0.77175 -3.78983,-1.71501 z m 8.61467,-13.7777 c 1.04223,-1.59065 1.40004,-3.42207 0.98874,-5.0608 -0.54723,-2.18036 -1.12528,-2.52116 -3.82869,-2.25729 -2.6224,0.25597 -3.34654,0.88065 -4.10464,3.54091 -1.65982,5.82445 3.69487,8.73688 6.94459,3.77718 z m -32.51979,12.91151 c 1.08576,-1.30826 1.07255,-1.95557 -0.0765,-3.75 -1.99842,-3.12078 -2.98989,-14.29762 -1.78912,-20.1688 1.67325,-8.18137 4.6599,-13.21299 10.20951,-17.19998 9.07942,-6.52292 15.23729,-7.22027 26.4699,-2.99758 12.83176,4.82386 18.23035,11.99092 18.91928,25.11687 0.23393,4.45694 -0.0648,9.87845 -0.66374,12.04781 -1.08739,3.93819 -0.41559,5.50225 2.36331,5.50225 3.2711,0 3.8233,-1.83404 3.65168,-12.12853 -0.3715,-22.28426 -7.71359,-33.35534 -25.08358,-37.82332 -18.9204,-4.86679 -35.58834,1.69126 -42.21948,16.61136 -4.78349,10.76286 -4.40717,29.69413 0.67826,34.12112 3.03238,2.63977 5.70782,2.87706 7.54051,0.6688 z m -253.530076,-9.6688 c -0.69682,-2.3375 -1.58521,-6.83793 -1.9742,-10.00096 -0.68895,-5.60204 -0.77661,-5.73526 -3.38519,-5.14448 -3.84173,0.87007 -6.18375,4.01801 -6.14248,8.25622 0.0633,6.49615 4.18912,11.02459 10.11669,11.10378 l 2.65214,0.0354 -1.26696,-4.25 z m 6.10204,1.5 c -0.41818,-1.47714 -1.88196,-12.56017 -2.07836,-15.7363 -0.0335,-0.54247 -0.84849,-1.13797 -1.81099,-1.32333 -2.11217,-0.40677 -2.27731,2.21512 -0.6305,10.01041 1.28748,6.09439 2.51186,8.79922 3.98307,8.79922 0.56772,0 0.80926,-0.7875 0.53678,-1.75 z M 362.40057,166.8144 c -2.34097,-3.16633 -3.54255,-8.92818 -2.62459,-12.58558 0.34195,-1.36247 1.83626,-3.92059 3.32068,-5.68472 l 2.69894,-3.20751 -2.44865,0.75282 c -3.422,1.05208 -4.52426,2.09394 -6.40221,6.05142 -2.29723,4.84107 -1.43453,10.92023 2.06862,14.57672 3.66697,3.8275 6.19892,3.8999 3.38721,0.0968 z m 13.84366,-2.54107 c 1.99856,-1.85367 2.27837,-2.8903 1.88962,-7.00054 -0.55171,-5.83327 -1.94256,-7.37757 -7.42811,-8.24761 -3.97502,-0.63046 -4.29912,-0.49018 -6.24626,2.70366 -2.44211,4.00571 -2.59354,6.93846 -0.5612,10.86858 2.8213,5.4558 7.57491,6.10109 12.34595,1.67591 z M 205.3983,133.98076 c 15.675,-0.21997 32.325,-0.62397 37,-0.89779 4.675,-0.27382 11.14499,-0.53311 14.37775,-0.57619 l 5.87775,-0.0783 -0.86319,-5.66549 c -0.79559,-5.22182 -1.00389,-12.85173 -1.28764,-47.165536 l -0.10337,-12.5 -15.75065,-0.0398 c -8.66286,-0.0219 -33.52565,-0.17398 -55.25065,-0.33795 -21.725,-0.16396 -44.675,-0.0675 -51,0.21426 -6.325,0.28181 -22.075,0.13372 -35,-0.32907 -12.924996,-0.4628 -34.892786,-1.12014 -48.817296,-1.46077 l -25.31731,-0.61931 0.31731,33.033692 c 0.30947,32.218884 0.36663,33.036374 2.3173,33.142314 1.1,0.0597 4.7,0.0479 8,-0.0263 5.16739,-0.1162 17.75484,0.64919 39.5,2.40184 3.025,0.24381 15.4,0.73866 27.499996,1.09965 12.1,0.361 22.225,0.88543 22.5,1.16541 0.275,0.27998 11.075,0.17836 24,-0.22582 12.925,-0.40418 36.325,-0.91484 52,-1.1348 z m 146.51242,-8.98857 c -1.11644,-3.84041 -1.94493,-5.31294 -2.49159,-4.42843 -0.45044,0.72882 -1.48403,1.06993 -2.29687,0.75802 -1.48328,-0.56919 -1.46381,-0.21714 0.40243,7.27568 0.31857,1.27901 4.6887,3.10416 5.71612,2.38729 0.18839,-0.13144 -0.41015,-2.82809 -1.33009,-5.99256 z m -28.47999,1.88021 c -2.61741,-12.89577 -3.34988,-15.40879 -5.16306,-17.71388 -1.6116,-2.04882 -2.88704,-2.56106 -6.37685,-2.56106 -2.39928,0 -5.62912,0.4776 -7.17742,1.06133 -6.29596,2.37367 -13.36646,12.34583 -13.78249,19.43867 l -0.17596,3 16.72098,0.27494 16.72098,0.27493 -0.76618,-3.77493 z m 21.4445,1.97506 c -0.1847,-0.9625 -0.85494,-4.45 -1.48941,-7.75 l -1.15358,-6 -3.78364,0.14346 c -2.08101,0.0789 -4.70956,0.639 -5.84122,1.24465 -1.13167,0.60565 -3.69926,1.21609 -5.70577,1.35653 -3.49206,0.24443 -3.62093,0.38375 -3.01127,3.25536 0.35031,1.65 0.89178,4.4625 1.20328,6.25 l 0.56636,3.25 9.77554,0 c 8.77131,0 9.74104,-0.17978 9.43971,-1.75 z m 2.61685,-12.55622 c -1.30594,-1.30594 -1.48759,0.14136 -0.37332,2.97443 0.69488,1.76676 0.7337,1.7659 1.09378,-0.0244 0.20532,-1.02092 -0.11888,-2.34842 -0.72046,-2.95 z m -50.09378,-7.65542 c 0,-1.66117 -6.19033,-5.03046 -9.25,-5.03462 -3.94862,-0.005 -3.4279,2.57358 1.98288,9.82034 l 2.48192,3.32409 2.3926,-3.52103 c 1.31593,-1.93657 2.3926,-4.00152 2.3926,-4.58878 z m 33.375,7.16389 c 0.96611,-1.5632 -1.2921,-3.60465 -5.29472,-4.78649 l -4.06424,-1.20002 0.63024,2.64213 c 0.34663,1.45317 0.81958,2.97963 1.051,3.39213 0.56301,1.00357 7.05291,0.96321 7.67772,-0.0477 z m 14.98887,-3.17172 c -0.55036,-0.55036 -2.32607,2.02834 -2.34856,3.4106 -0.008,0.51762 0.6229,0.0683 1.40293,-0.99843 0.78003,-1.06675 1.20556,-2.15223 0.94563,-2.41217 z m -33.61132,-8.17742 c 2.88535,-0.0449 5.47401,-0.716 6.59983,-1.7111 2.53359,-2.23941 4.64762,-6.545419 4.64762,-9.466626 0,-3.931551 -2.78916,-10.68407 -5.22924,-12.65993 -5.05306,-4.09172 -13.8598,-2.86158 -17.31995,2.41928 -2.07422,3.165657 -1.53849,12.806423 1.07456,19.337066 1.45557,3.63783 1.92744,4.05623 3.57821,3.17277 1.04584,-0.55972 4.03788,-1.05088 6.64897,-1.09146 z m -5.00255,-5.015393 c -1.5125,-0.552412 -2.75,-1.465031 -2.75,-2.028041 0,-0.566156 0.78212,-0.721077 1.75,-0.346636 3.91073,1.512936 7.32083,1.723065 8.74752,0.539017 1.22423,-1.01602 1.50248,-0.966294 1.50248,0.268507 0,2.696326 -4.20687,3.409056 -9.25,1.567153 z m -3.73943,-7.324984 c -1.66895,-2.010963 -0.55073,-4.512735 2.01706,-4.512735 1.14972,0 1.83151,0.418906 1.51508,0.930902 -0.31644,0.511996 -0.11799,1.213553 0.44098,1.559017 0.55897,0.345463 1.01631,1.276557 1.01631,2.069098 0,1.887328 -3.41094,1.855688 -4.98943,-0.04628 z m 3.35106,-1.012735 c -0.6086,-1.585976 -2.36163,-2.080842 -2.36163,-0.666667 0,1.057514 1.09309,2.166667 2.13528,2.166667 0.44107,0 0.54293,-0.675 0.22635,-1.5 z m 7.26866,0.25 c -0.88248,-3.292964 -0.78368,-3.75 0.81069,-3.75 1.97724,0 2.81201,1.627546 2.05618,4.008949 -0.83798,2.640247 -2.12098,2.524362 -2.86687,-0.258949 z m 1.55304,-1.966667 c -0.71756,-0.717562 -1.18333,-0.776604 -1.18333,-0.15 0,1.334781 1.18261,2.517391 1.85,1.85 0.28417,-0.284166 -0.0158,-1.049166 -0.66667,-1.7 z M 283.8983,102.59746 c 0.33992,-0.55 0.15062,-1 -0.42066,-1 -0.57128,0 -1.95698,-1.800002 -3.07934,-4.000002 -2.08918,-4.095124 -4.08808,-5.384542 -3.48803,-2.25 0.18426,0.9625 0.36944,2.026814 0.41152,2.365141 0.14538,1.168829 4.22448,5.884861 5.09007,5.884861 0.47762,0 1.14652,-0.45 1.48644,-1 z m -9.5,-9.893013 c 0,-0.491156 -0.73865,-1.176458 -1.64144,-1.522892 -1.37248,-0.526667 -1.43434,-0.380336 -0.37756,0.893011 1.44013,1.735245 2.019,1.91584 2.019,0.629881 z m 2.24594,-5.585896 c -0.73255,-3.525757 -0.88537,-3.657897 -2.26574,-1.958977 -0.8722,1.073483 -0.96675,1.513332 -0.2302,1.070825 0.86094,-0.517235 1.25,-0.0064 1.25,1.641375 0,2.269667 0.92761,4.131406 1.6824,3.376618 0.19199,-0.191986 -0.004,-2.050415 -0.43646,-4.129841 z M 298.8483,64.733474 c -0.5225,-0.47518 -5.675,-2.43551 -11.45,-4.35627 -9.06191,-3.01399 -11.59569,-3.4551 -18.5,-3.22069 -10.84685,0.36825 -5.46031,0.36953 -111,-0.0263 -89.695636,-0.33642 -94.583076,-0.44827 -106.733456,-2.44265 -7.0034,-1.14955 -14.5409,-2.0901 -16.75,-2.0901 l -4.01654,0 0,5 0,5 7.75,0.0136 c 4.2625,0.008 11.575,0.25817 16.25,0.55712 4.675,0.29894 61.263006,0.66834 125.751126,0.82088 64.48811,0.15254 117.55061,0.57684 117.91666,0.94289 0.36605,0.36605 0.90554,0.66554 1.19888,0.66554 0.29333,0 0.10583,-0.38879 -0.41667,-0.86398 z m -142.95,-11.27618 c 27.5,6e-5 63.22633,0.31694 79.39186,0.70417 21.81251,0.52251 29.21111,0.41163 28.69098,-0.42997 -0.38548,-0.62372 -1.44194,-1.13404 -2.3477,-1.13404 -0.90575,0 -7.74169,-1.10584 -15.19098,-2.45742 -25.01511,-4.53869 -46.46032,-7.52056 -58.04416,-8.07081 -6.325,-0.30045 -13.975,-0.75242 -17,-1.0044 -23.33519,-1.94374 -42.65142,-1.51872 -95.999996,2.11235 -15.0047,1.02126 -37.57676,3.41623 -40.67473,4.31572 -1.7461,0.50698 -3.4336,0.6629 -3.75,0.3465 -0.3164,-0.3164 -0.57527,-0.11765 -0.57527,0.44165 0,0.56127 3.92069,1.31386 8.75,1.67961 4.8125,0.36447 13.7,1.50687 19.75,2.53867 8.92034,1.52131 14.40308,1.7892 29,1.41693 9.9,-0.25248 40.499996,-0.45901 67.999996,-0.45896 z"
       id="path3245"
       style="fill:#000000" />
    <text
       x="27.133722"
       y="120.19765"
       id="text3247"
       xml:space="preserve"
       style="font-size:64px;font-style:normal;font-variant:normal;font-weight:normal;font-stretch:normal;line-height:125%;letter-spacing:0px;word-spacing:0px;fill:#000000;fill-opacity:1;stroke:none;font-family:Arial;-inkscape-font-specification:Arial"><tspan
         x="27.133722"
         y="120.19765"
         id="tspan3249">MOVED</tspan></text>
  </g>
</svg>
