<?xml version="1.0" encoding="UTF-8" standalone="no"?>
<!-- Created with Inkscape (http://www.inkscape.org/) -->

<svg
   xmlns:dc="http://purl.org/dc/elements/1.1/"
   xmlns:cc="http://creativecommons.org/ns#"
   xmlns:rdf="http://www.w3.org/1999/02/22-rdf-syntax-ns#"
   xmlns:svg="http://www.w3.org/2000/svg"
   xmlns="http://www.w3.org/2000/svg"
   version="1.1"
   width="130"
   height="60"
   id="svg3091">
  <metadata
     id="metadata3097">
    <rdf:RDF>
      <cc:Work
         rdf:about="">
        <dc:format>image/svg+xml</dc:format>
        <dc:type
           rdf:resource="http://purl.org/dc/dcmitype/StillImage" />
        <dc:title></dc:title>
      </cc:Work>
    </rdf:RDF>
  </metadata>
  <defs
     id="defs3095" />
  <g
     transform="translate(1.04459,1.04459)"
     id="g3137">
    <path
       d="M 35.206653,53.395475 C 30.185002,50.822751 27,44.584582 27,37.321865 27,22.047524 42.502842,6.1639642 61.577462,1.8952512 67.897932,0.48079191 73.11516,1.3348248 76.631594,4.3595338 c 2.457752,2.1140688 2.667052,2.9513844 3.039902,12.1612352 0.381117,9.414044 0.252593,10.191128 -2.666112,16.119859 C 71.236174,44.359558 57.329839,53.939125 45,54.68797 40.249302,54.976501 37.613683,54.62866 35.206653,53.395475 z m 18.248754,-2.640426 c 8.635821,-4.378115 18.963715,-16.756053 21.57346,-25.855701 l 0.872784,-3.04322 -4.039754,3.649675 c -5.656983,5.110744 -6.048411,3.597428 -0.455603,-1.761425 5.324758,-5.102015 5.860541,-8.161137 2.178534,-12.438614 -2.104557,-2.4449151 -3.101283,-2.7969112 -7.75,-2.7369295 C 59.529202,8.6501951 56.158771,10.253558 49.265734,16.450991 40.203265,24.59893 36.144473,37.144473 41,42 c 1.9953,1.9953 5,2.716428 5,1.2 0,-0.44 -0.464752,-1.264752 -1.032783,-1.832783 C 43.713706,40.113706 44.632516,37.354994 46.54838,36.619808 47.979541,36.07062 51,38.412571 51,40.071429 51,42.048778 46.861638,45 44.088894,45 40.017903,45 36,40.092232 36,35.119619 36,26.914331 46.442278,13.424642 56.234496,8.9800113 62.407133,6.1782873 69.804639,6.378204 74.360453,9.4698632 77.689012,11.728684 78,11.780874 78,10.080647 78,9.0581536 77.139759,7.1592151 76.088353,5.860784 74.442002,3.8276262 73.294161,3.5 67.817326,3.5 62.656431,3.5 60.207016,4.1158301 54.820295,6.7677045 40.244007,13.943587 29.066288,31.878892 31.40408,44.340393 c 0.725281,3.866081 4.649032,8.315742 7.922808,8.98472 3.555456,0.726539 9.903838,-0.428271 14.128519,-2.570064 z M 82.718616,46.25 c 0.594539,-1.586416 0.481919,-1.609785 -1.2048,-0.25 -1.716698,1.383954 -1.817304,1.331719 -1.300416,-0.675182 0.378694,-1.47034 0.162764,-2.02266 -0.666371,-1.704491 -0.674631,0.25888 -1.77239,-0.186944 -2.439465,-0.99072 -0.990407,-1.193368 -0.812145,-1.588594 0.971914,-2.154832 1.669361,-0.529835 1.865548,-0.890717 0.83161,-1.529725 -2.361569,-1.459531 -0.139613,-2.220364 3.142747,-1.076128 l 3.155929,1.100163 -1.604882,-2.449359 C 81.603947,33.465913 81.575964,32.623304 83.5,33.361626 c 0.826743,0.317251 1.502229,0.02864 1.504967,-0.643011 0.0027,-0.670238 1.111549,0.131385 2.464037,1.781385 1.583841,1.932243 2.483711,2.466122 2.528302,1.5 0.04931,-1.068254 0.636943,-0.818487 2.04161,0.867758 1.587105,1.905253 2.25444,2.133667 3.41637,1.169351 0.794196,-0.659124 2.704425,-1.066196 4.244954,-0.904604 1.54053,0.161592 3.41241,-0.08409 4.15973,-0.545962 0.9132,-0.56439 2.07497,-0.0063 3.54284,1.702001 l 2.18408,2.541767 1.29288,-2.920821 c 0.71108,-1.606451 1.73239,-2.649188 2.26957,-2.317194 0.53718,0.331995 1.73583,-0.05569 2.66367,-0.861512 C 117.72539,33.069896 121,32.82188 121,34.337926 c 0,0.552526 -0.72674,1.80763 -1.61498,2.789121 -1.52907,1.689612 -1.41443,1.751984 2.15548,1.172668 2.83113,-0.459429 3.58209,-0.307083 3.01436,0.611521 -0.48255,0.78078 0.0115,1.42411 1.3656,1.778215 1.67168,0.437153 1.87915,0.84708 0.97817,1.932692 C 126.26969,43.379964 125.14933,44 124.40894,44 c -0.78575,0 -1.10654,0.624457 -0.77057,1.5 0.69898,1.821497 -0.7667,1.968205 -2.49762,0.25 -1.00966,-1.002248 -1.12719,-0.903147 -0.59301,0.5 0.52656,1.383104 0.13204,1.75 -1.88173,1.75 -1.40139,0 -2.84505,-0.480678 -3.20814,-1.068174 -0.3631,-0.587495 -1.28385,-0.828846 -2.04612,-0.536334 -0.82724,0.317443 -1.95882,-0.561522 -2.80703,-2.180395 l -1.42109,-2.712234 -1.24357,2.729347 c -1.49274,3.276213 -4.43797,4.42938 -6.64167,2.600467 -0.8831,-0.732908 -2.39921,-1.198118 -3.369132,-1.033801 C 96.863669,45.9794 95.908418,45.286812 95.515494,44.048817 94.633972,41.271387 93.349997,41.469364 92.589356,44.5 91.961375,47.002075 90,48.02089 90,45.845012 c 0,-0.691042 -0.734585,-0.490197 -1.828741,0.5 C 85.6276,48.646992 81.844999,48.58108 82.718616,46.25 z M 106,33.180335 c 0,-0.450815 1.125,-1.797839 2.5,-2.993386 1.375,-1.195547 2.5,-2.862072 2.5,-3.703389 0,-1.343982 -0.30347,-1.330824 -2.5,0.108397 -1.375,0.900935 -2.5,1.354965 -2.5,1.008957 0,-1.30668 6.57436,-6.543533 8.25,-6.571601 2.19814,-0.03682 2.23501,0.895552 0.0972,2.458741 -2.02532,1.480952 -0.93621,3.643442 1.43481,2.848876 0.94488,-0.316646 -0.30703,1.25882 -2.78203,3.501037 -4.25702,3.856629 -7,5.166352 -7,3.342368 z M 93.693922,32.360589 C 93.326845,31.993511 93.957246,30.187211 95.094814,28.346588 96.232382,26.505965 96.856892,25 96.482615,25 96.108338,25 98.141161,22.3 101,19 c 2.85884,-3.3 5.60336,-6 6.09894,-6 1.89421,0 0.75239,2.437626 -3.09894,6.615826 -4.727075,5.128271 -5.148096,6.95007 -1.06456,4.60644 3.32912,-1.910653 5.56788,-0.794688 2.6646,1.328239 -1.46642,1.072278 -1.63821,1.698577 -0.7571,2.760248 1.78309,2.148494 0.0783,2.867672 -2.61479,1.103079 -2.305399,-1.510554 -2.57246,-1.458145 -5.149162,1.010493 -1.494709,1.432022 -3.017989,2.303341 -3.385066,1.936264 z M 81.566615,30.107785 c -0.755929,-1.223118 0.635313,-4.200555 2.803607,-6.000079 2.048173,-1.699832 9.957812,-2.378217 9.309977,-0.798488 -0.268582,0.65493 -0.804646,1.978282 -1.191254,2.940782 -0.428983,1.067998 -0.248512,1.75 0.463083,1.75 0.641303,0 0.889281,0.447751 0.551061,0.995002 -0.33822,0.547252 -2.052278,0.944054 -3.809017,0.881782 -1.75674,-0.06227 -4.155785,0.204181 -5.331213,0.592116 -1.210161,0.399398 -2.423026,0.242765 -2.796244,-0.361115 z M 87.8,26.8 c 1.887588,-1.887588 1.402606,-2.978799 -0.8,-1.8 -1.1,0.588702 -2,1.504535 -2,2.035184 0,1.324387 1.354172,1.210644 2.8,-0.235184 z M 1.75,24.237039 C 0.7875,24.026011 0,23.266448 0,22.549121 0,20.815928 2.8538126,18.506122 3.774166,19.494404 4.1733747,19.923077 3.9375,20.474702 3.25,20.720238 1.4805231,21.352194 1.6957353,23 3.5477489,23 4.3990108,23 6.110175,21.905145 7.350336,20.566989 9.6760585,18.057493 15.569513,7.1660202 14.885165,6.6421547 14.673324,6.4799916 12.830596,5.3436497 10.790214,4.1169506 7.7391833,2.2826388 6.699079,2.0906805 4.9328549,3.035935 3.5011392,3.8021659 3.1186147,4.5186147 3.7852814,5.1852814 4.4519481,5.8519481 5.4658207,5.8210678 6.8268993,5.0926407 9.6602068,3.5763005 10.470472,3.7281891 9,5.5 7.5096307,7.2957852 3.8642678,7.4642678 2.2136536,5.8136536 c -0.9151285,-0.9151285 -0.811111,-1.6009768 0.4549876,-3 2.1393953,-2.36400522 5.466596,-2.29547037 10.3854118,0.2139224 3.00917,1.5351635 4.440675,1.7780212 5.894421,1 2.36609,-1.2662931 6.738831,-1.3425437 7.487871,-0.1305714 0.304909,0.4933526 -1.468533,3.1469708 -3.940983,5.8969295 -4.915556,5.4672809 -5.576674,6.8551339 -2.474695,5.1950059 2.496139,-1.335893 4.070301,-0.494334 3.354018,1.793085 C 23.078804,17.726911 23.81099,17.2625 25.001766,15.75 26.192542,14.2375 28.02928,13 29.083407,13 c 2.493788,0 2.45123,1.649166 -0.08341,3.232073 -1.1,0.686961 -2,1.645875 -2,2.130919 0,0.485043 0.65987,0.334254 1.466378,-0.335088 0.806508,-0.669342 2.044008,-1.021981 2.75,-0.783643 0.728506,0.245939 -0.15294,1.178915 -2.038213,2.157368 -2.482838,1.288588 -3.660061,1.443323 -4.660972,0.61264 -0.924017,-0.766866 -1.540026,-0.786342 -1.987182,-0.06283 C 22.173586,20.528149 21.203199,21 20.373595,21 c -1.099202,0 -1.318876,-0.597042 -0.809814,-2.200955 0.684692,-2.157276 0.647037,-2.167198 -1.89743,-0.5 C 14.087237,20.644171 13.74299,20.47511 14.51214,16.75 15.157637,13.623758 15.069574,13.67572 12.199517,18.114553 9.2239308,22.716599 5.3003697,25.015456 1.75,24.237039 z M 18.408043,10.5 C 19.814069,8.3541338 19.835344,8 18.558237,8 17.260229,8 15,10.816687 15,12.434259 15,13.856774 16.924148,12.76471 18.408043,10.5 z M 21.729167,5.3958333 C 21.396875,5.0635417 20.534375,5.0280154 19.8125,5.316886 c -0.797733,0.3192263 -0.560776,0.5561827 0.604167,0.6041666 1.054166,0.043421 1.644791,-0.1929276 1.3125,-0.5252193 z"
       id="path3161"
       style="fill:#e6e6e6;fill-opacity:1" />
    <path
       d="M 36.5,54.089065 C 27.811888,50.219792 24.73645,39.124904 29.111035,27.432779 34.762938,12.326715 58.354573,-1.6743319 71.975947,1.9935232 77.861309,3.5782865 78.9844,5.9827381 79.262624,17.59374 79.472501,26.352388 79.216857,28.079236 77.055894,32.5 71.50223,43.861338 56.441761,54.163029 44.597582,54.702197 41.243912,54.854862 37.6,54.578952 36.5,54.089065 z M 53.74382,50.62434 c 8.9315,-4.536217 18.754001,-16.534258 21.79546,-26.622837 0.69063,-2.290836 0.401229,-2.180482 -3.48195,1.327738 -2.329353,2.10443 -4.454373,3.60705 -4.722267,3.339155 -0.267895,-0.267894 1.572123,-2.385189 4.088928,-4.705098 5.618514,-5.178965 6.056764,-8.636389 1.652932,-13.040221 C 70.85116,8.6973139 69.240916,8.0052391 66.326923,8.021962 54.515401,8.0897461 39.032554,23.521866 39.009384,35.25 c -0.0096,4.852328 2.361958,8.75 5.323949,8.75 2.261672,0 2.719751,-1.240699 0.93887,-2.542911 -1.43393,-1.048515 -1.489997,-1.489737 -0.362011,-2.848876 C 45.644275,37.723696 47.089789,37 48.122445,37 49.536999,37 50,37.731117 50,39.964816 50,45.307741 43.076656,46.840844 38.924314,42.417413 36.976661,40.342605 36.509729,38.805065 36.54948,34.597432 36.611223,28.062009 39.921457,22.054127 46.93497,15.748376 53.331563,9.9972887 58.143812,7.7260296 65,7.2221406 69.652408,6.8802164 71.077904,7.212578 74.25,9.3788249 77.829022,11.822964 78,11.84784 78,9.9244087 78,8.8159839 76.836903,6.7459939 75.41534,5.3244308 73.043854,2.9529445 72.31186,2.7814166 66.540165,3.2447128 49.975401,4.574373 32.426333,22.3714 31.194628,39.089664 30.212321,52.422779 40.171838,57.51741 53.74382,50.62434 z M 82.718616,46.25 c 0.594539,-1.586416 0.481919,-1.609785 -1.2048,-0.25 -1.721429,1.387767 -1.817237,1.331548 -1.28049,-0.75138 0.336236,-1.304811 0.180509,-2.004384 -0.37039,-1.66391 -0.5228,0.323108 -1.636283,0.01836 -2.474407,-0.677223 -1.337105,-1.109698 -1.23982,-1.422293 0.793805,-2.550654 1.35281,-0.750609 1.714023,-1.300714 0.867666,-1.321398 -1.001302,-0.02447 -1.129054,-0.356381 -0.412839,-1.072596 0.707234,-0.707234 1.884222,-0.715108 3.7,-0.02475 C 85.2437,39.043153 85.88297,37.977689 83.5,36 82.675,35.315311 82,34.363034 82,33.88383 82,32.468669 85.745578,33.459776 87.955453,35.459686 89.209345,36.594443 90,36.840503 90,36.095971 c 0,-1.920605 2.020294,-0.164284 3.164666,2.751168 l 1.0413,2.652861 0.893255,-2.326942 c 0.720538,-1.877009 1.52518,-2.272498 4.161416,-2.045373 1.797493,0.154862 3.874033,-0.09288 4.614543,-0.550543 0.90959,-0.562155 2.06298,0.06658 3.5552,1.938008 l 2.20882,2.770119 1.30843,-3.158826 c 0.92039,-2.222019 1.65339,-2.872534 2.4716,-2.193475 0.79162,0.656986 1.54005,0.36188 2.343,-0.923843 0.6489,-1.039056 2.09286,-1.820415 3.20879,-1.736354 2.42886,0.18296 2.49393,0.618407 0.51469,3.444171 -1.48474,2.11976 -1.44267,2.150333 2.15547,1.566434 2.74797,-0.445934 3.47985,-0.288224 2.91368,0.62786 -0.48255,0.78078 0.0115,1.42411 1.3656,1.778215 1.67168,0.437153 1.87915,0.84708 0.97817,1.932692 C 126.26969,43.379964 125.14933,44 124.40894,44 c -0.82882,0 -1.1078,0.621184 -0.72592,1.616334 0.52673,1.372647 0.29924,1.444541 -1.50888,0.476861 -1.7767,-0.95086 -2.03238,-0.887353 -1.54465,0.383666 C 121.06197,47.603866 120.5278,48 118.5756,48 c -1.4511,0 -2.9018,-0.686486 -3.22377,-1.525523 -0.44599,-1.162228 -0.90887,-1.257067 -1.94369,-0.398242 -1.06416,0.883177 -1.61626,0.561095 -2.54961,-1.487386 l -1.19132,-2.614667 -2.63389,3.154976 c -2.44072,2.923586 -2.81356,3.055828 -5.08361,1.803104 -1.34734,-0.743529 -2.998101,-1.240973 -3.668356,-1.10543 -0.670256,0.135543 -1.791002,-0.670045 -2.490547,-1.790195 C 94.116993,41.356434 93.350497,41.467373 92.589356,44.5 91.961375,47.002075 90,48.02089 90,45.845012 c 0,-0.691042 -0.734585,-0.490197 -1.828741,0.5 C 85.6276,48.646992 81.844999,48.58108 82.718616,46.25 z M 106,33.364671 c 0,-0.349431 1.125,-1.677944 2.5,-2.952251 2.7938,-2.589206 3.69594,-6.649848 0.97583,-4.392364 -0.83829,0.69572 -1.75054,1.038572 -2.02721,0.761894 -0.27668,-0.276679 1.05417,-1.690804 2.95744,-3.142501 4.0385,-3.080312 6.7755,-3.60254 4.24893,-0.810708 -2.41116,2.664296 -2.12153,4.441732 0.59501,3.651606 1.62551,-0.472791 1.00102,0.468101 -2.25,3.389974 -4.09642,3.681687 -7,5.131131 -7,3.49435 z M 95,28.5 c 1.189715,-1.925 1.870514,-3.5 1.512886,-3.5 -0.357627,0 1.698156,-2.7 4.568404,-6 2.87026,-3.3 5.60116,-6 6.06868,-6 1.87337,0 0.62715,2.454036 -3.67767,7.242035 -4.697844,5.225132 -5.272905,7.132566 -1.31446,4.359964 C 105.87573,21.997888 107.73745,22.586114 105,25.5 103.70825,26.875 103.17981,28 103.82569,28 104.47156,28 105,28.685374 105,29.523053 c 0,1.327448 -0.32585,1.309548 -2.53719,-0.139377 -2.41153,-1.580094 -2.649974,-1.556472 -4.81445,0.476947 C 93.998187,33.289782 92.511733,32.5261 95,28.5 z m -13.433385,1.607785 c -0.92074,-1.489788 1.053263,-4.833983 3.684672,-6.24227 4.295135,-2.298686 11.490715,-1.6782 7.700863,0.664058 -0.576317,0.356184 -0.913817,1.620241 -0.75,2.809017 0.244574,1.774804 -0.238752,2.188845 -2.70215,2.314789 -1.65,0.08436 -3.961713,0.461062 -5.137141,0.837118 -1.19034,0.380828 -2.429139,0.211277 -2.796244,-0.382712 z M 88.5,26 c 2.330003,-2.574624 0.439923,-2.59845 -2.639216,-0.03327 -1.79398,1.494536 -1.977835,1.974718 -0.765772,2 C 85.972269,27.985029 87.504514,27.1 88.5,26 z M 0,22.622445 c 0,-1.863237 2.6487507,-3.999795 3.4172029,-2.756414 0.3273921,0.529732 0.029955,1.164976 -0.6609723,1.411654 -0.6909268,0.246678 -0.893216,0.835627 -0.4495315,1.308776 1.6668457,1.777538 6.1492595,-2.281902 9.3705449,-8.486312 1.827516,-3.519918 3.31929,-6.6699181 3.315054,-7 C 14.988062,6.770067 13.185905,5.4728218 10.987504,4.2173817 7.7380454,2.3617137 6.5971403,2.1452365 4.8878472,3.0600224 3.4861367,3.8101951 3.1186147,4.5186147 3.7852814,5.1852814 4.4519481,5.8519481 5.5162833,5.7940611 6.9782871,5.0116204 8.1844402,4.3661069 9.4159036,4.0825703 9.7148725,4.3815391 10.655214,5.321881 5.2073733,7.2935542 3.4898632,6.6344837 1.0493649,5.6979767 2.1268037,2.6794092 5.2998872,1.5634955 7.5465112,0.77340005 8.9021771,1.0346066 12.360849,2.9239853 15.842635,4.8259912 17.033996,5.0521732 18.745613,4.1361437 21.46499,2.6807773 26,3.0585541 26,4.7404509 c 0,0.7173294 -1.836505,3.2966076 -4.081122,5.7317291 -2.244616,2.435122 -4.16977,5.012568 -4.27812,5.727657 C 17.342161,18.170535 16.00419,20 14.861528,20 13.553537,20 14.831273,13.903056 16.430309,12.514288 17.072629,11.956429 18.193677,10.7125 18.921527,9.75 20.048117,8.2602091 20.005787,8 18.63684,8 17.662998,8 15.801114,10.464973 13.915986,14.25 12.203944,17.6875 9.8349662,21.277494 8.6515911,22.227764 6.0238742,24.337865 0,24.612671 0,22.622445 z M 21.729167,5.3958333 C 21.396875,5.0635417 20.534375,5.0280154 19.8125,5.316886 c -0.797733,0.3192263 -0.560776,0.5561827 0.604167,0.6041666 1.054166,0.043421 1.644791,-0.1929276 1.3125,-0.5252193 z M 19.695024,19.058227 c 0.347609,-1.329256 0.05421,-2.069491 -0.828393,-2.09003 C 17.368131,16.933324 20.708467,14 22.246678,14 c 1.603731,0 0.190259,6.484755 -1.483742,6.807138 -1.18077,0.227395 -1.463601,-0.235794 -1.067912,-1.748911 z m 4.426758,0.588511 c -0.863239,-1.040139 -0.555543,-1.965674 1.329806,-4 C 27.871604,13.035497 31,12.087169 31,13.964816 31,14.495465 30.1,15.411298 29,16 c -2.834457,1.516955 -2.601331,3.362119 0.25,1.978721 2.212937,-1.073664 2.211112,-1.057771 -0.110784,0.964816 -2.77531,2.417554 -3.509276,2.52042 -5.017434,0.703201 z"
       id="path3159"
       style="fill:#d6d6d6;fill-opacity:1" />
    <path
       d="M 35.091948,52.847199 C 28.963742,48.626572 27.5,45.701666 27.5,37.67667 27.5,32.094767 28.043289,29.388923 29.944876,25.5 38.587926,7.8241563 67.245427,-4.7545731 76.892936,4.8929361 79.424433,7.4244329 80.501433,22.016004 78.618561,28.272311 74.66121,41.421589 58.959509,53.618413 44.561205,54.727506 c -5.1823,0.39919 -6.55539,0.126536 -9.469257,-1.880307 z m 18.27748,-1.78399 c 6.482417,-3.138084 15.864722,-12.842991 19.554471,-20.22683 4.104475,-8.213782 3.979168,-9.836467 -0.458695,-5.939971 -1.944138,1.706976 -4.081638,3.100627 -4.75,3.097003 -0.668362,-0.0036 0.120205,-0.886846 1.752371,-1.962716 7.228,-4.764456 8.64104,-11.078625 3.4557,-15.441801 -5.852541,-4.9245884 -14.817996,-2.5847237 -24.240149,6.326357 -2.907226,2.749533 -6.316193,7.062182 -7.575482,9.583664 -4.653363,9.317455 -2.10356,18.825803 4.551376,16.972323 2.173238,-0.605273 2.415919,-0.89104 1.032513,-1.215826 C 44.042421,41.633471 44.886347,37.587153 47.75,37.180449 49.509003,36.930631 50,37.34989 50,39.101708 50,42.055095 47.243904,45 44.479871,45 41.099384,45 37.151957,41.326923 36.437055,37.516167 34.796368,28.770552 43.868714,15.651448 55.52593,9.9126198 60.945354,7.2446461 62.771035,6.8196282 67.047076,7.2305015 70.05325,7.5193568 73.327237,8.6051518 75.064153,9.8893091 L 78,12.059875 78,9.6025176 C 78,8.1143281 76.915416,6.2895903 75.25,4.975834 71.310873,1.8684698 62.445411,2.5242817 54.577555,6.5050533 34.765782,16.528896 23.760324,44.209687 36.420309,52.173937 40.331188,54.634226 46.879105,54.20512 53.369428,51.063209 z M 83,46.31858 c 0,-0.763331 -0.656324,-1.003955 -1.673609,-0.613586 -1.282405,0.492104 -1.518831,0.238879 -1.011454,-1.083323 0.396805,-1.034058 0.262935,-1.478815 -0.334062,-1.109851 -0.547919,0.338633 -1.669145,-0.05723 -2.491613,-0.879701 -1.327196,-1.327195 -1.275833,-1.565083 0.456642,-2.11495 1.181639,-0.375037 1.732621,-1.191345 1.396078,-2.068361 -0.656773,-1.711524 -0.304887,-1.765402 3.092918,-0.473559 3.002803,1.141664 3.126294,0.810875 0.94188,-2.522962 -1.553584,-2.371069 -1.534045,-2.463738 0.455453,-2.160119 1.14327,0.174475 2.998719,1.149858 4.12322,2.167518 C 89.209345,36.594443 90,36.840503 90,36.095971 c 0,-1.920605 2.020294,-0.164284 3.164666,2.751168 l 1.0413,2.652861 0.880146,-2.291505 c 0.72977,-1.899991 1.532004,-2.253043 4.695418,-2.066388 2.0984,0.123815 4.30677,-0.07864 4.90749,-0.449908 0.60071,-0.371265 1.87743,0.523365 2.83714,1.988066 l 1.74492,2.663093 1.64843,-3.187709 c 1.19913,-2.318863 1.94833,-2.88781 2.74873,-2.087409 0.8004,0.800401 1.47255,0.57546 2.46603,-0.825288 0.75115,-1.059074 2.15323,-1.921996 3.11573,-1.917604 2.1621,0.0099 2.18719,0.605458 0.14818,3.516561 -1.60072,2.28534 -1.59923,2.286435 2.14456,1.584096 2.7059,-0.507632 3.54952,-0.384308 3.03757,0.444043 -0.42153,0.682061 0.22913,1.502277 1.60545,2.023804 l 2.31424,0.876935 -2.67086,1.239062 c -1.72922,0.802219 -2.46902,1.765037 -2.09837,2.73094 C 124.21594,47.005108 123.95194,47.044646 122,46 c -1.9983,-1.069455 -2.22114,-1.018656 -1.68302,0.383666 0.79884,2.081737 -2.57647,2.213986 -4.60984,0.18062 -1.04301,-1.043011 -1.73619,-1.135232 -2.53427,-0.337161 -0.79807,0.798072 -1.38524,0.34449 -2.1467,-1.65828 l -1.04814,-2.756835 -2.94109,3.148449 c -2.84877,3.049615 -3.0197,3.096946 -5.44504,1.507799 -1.37717,-0.902357 -2.959019,-1.3594 -3.515217,-1.015651 -0.556198,0.34375 -1.584234,-0.292462 -2.284523,-1.413804 -1.686089,-2.699857 -2.441743,-2.571113 -3.224953,0.549448 -0.504487,2.010032 -0.945866,2.342379 -1.97573,1.487668 -0.984164,-0.816784 -1.635392,-0.72793 -2.525494,0.344577 C 86.62401,48.157967 83,48.085061 83,46.31858 z m 23,-13.20357 c 0,-0.486745 1.125,-1.622118 2.5,-2.523053 1.375,-0.900935 2.5,-2.543522 2.5,-3.650194 0,-1.745703 -0.29792,-1.866573 -2.25,-0.91284 -1.39867,0.683355 -0.92572,-0.04989 1.25,-1.937916 1.925,-1.670463 4.175,-3.034999 5,-3.032303 1.20882,0.004 1.16029,0.26278 -0.25,1.333342 -0.9625,0.730642 -1.75,2.38133 -1.75,3.668197 0,1.819811 0.26667,2.07309 1.2,1.139757 0.66,-0.66 1.61787,-1.2 2.12861,-1.2 0.51073,0 -1.04177,1.781544 -3.45,3.958987 C 108.67377,33.760853 106,34.987627 106,33.11501 z M 94.995141,29.006824 c 1.17223,-1.646246 1.868408,-3.418589 1.547061,-3.938539 -0.321347,-0.51995 0.06495,-1.310521 0.858433,-1.756825 C 98.19412,22.865157 100.4742,20.3625 102.46747,17.75 105.87009,13.290341 108,11.815232 108,13.918345 c 0,0.50509 -2.025,3.290694 -4.5,6.190232 -5.235393,6.13342 -5.770299,7.932144 -1.44242,4.850426 3.49864,-2.491257 5.10614,-1.902378 2.54182,0.931156 -1.32813,1.467576 -1.42197,2.00912 -0.41053,2.369226 0.72112,0.256743 1.03178,0.770261 0.69036,1.141151 -0.34143,0.37089 -1.81874,0.128516 -3.28292,-0.538608 -2.353505,-1.072329 -2.838803,-0.960734 -4.18593,0.96256 C 96.572297,31.021019 95.206466,32 94.375202,32 c -1.210442,0 -1.087,-0.596001 0.619939,-2.993176 z M 82.631483,30.29815 c -2.731673,-2.731673 1.760323,-7.206121 7.797697,-7.767236 3.447568,-0.320418 4.686839,0.661314 2.52297,1.998659 -0.576317,0.356184 -0.913817,1.620241 -0.75,2.809017 0.251268,1.823381 -0.154783,2.128879 -2.596354,1.953402 -1.591813,-0.114404 -3.670145,0.207263 -4.618517,0.714816 -0.948372,0.507554 -2.00848,0.638657 -2.355796,0.291342 z m 6.323206,-4.743554 C 90.008597,24.284715 90.007955,24 88.951185,24 87.438645,24 84,26.910114 84,28.190171 c 0,1.130318 3.275145,-0.611848 4.954689,-2.635575 z M 0.5,23 c -0.87217965,-1.411216 0.31948577,-3 2.2501466,-3 1.3691677,0 1.3193828,0.236537 -0.309017,1.468197 -1.85963672,1.406558 -1.8259419,1.469531 0.802598,1.5 2.0516303,0.02378 3.4457771,-0.937348 5.5269098,-3.810268 C 11.660908,15.168025 15.616129,7.1610001 14.906472,6.7364255 14.682912,6.6026741 13.055722,5.4822618 11.290493,4.2466205 7.5777983,1.6477748 5.7161204,1.4322014 4.0738864,3.4109723 2.4413842,5.3780171 4.3959346,6.3936535 7.0649796,4.965224 8.2234518,4.3452284 9.4159036,4.0825703 9.7148725,4.3815391 10.655214,5.321881 5.2073733,7.2935542 3.4898632,6.6344837 1.0977296,5.7165359 2.1018171,2.6881966 5.1542353,1.6147185 7.1987062,0.89571653 8.741784,1.1847052 12.041371,2.9045462 15.367945,4.6384532 16.860423,4.913497 18.896851,4.167919 22.402957,2.8842618 26,3.144039 26,4.680906 c 0,0.6887841 -2.035186,3.5438453 -4.522636,6.344581 -2.487449,2.800735 -4.292404,5.464768 -4.01101,5.920072 0.628329,1.016658 -2.279161,3.574967 -3.114059,2.74007 -0.329655,-0.329655 -0.33109,-1.298504 -0.0032,-2.152999 0.3279,-0.854494 0.663153,-1.886401 0.745006,-2.293128 0.08185,-0.406726 1.222173,-2.015104 2.534043,-3.574174 1.311871,-1.55907 2.126116,-3.2539101 1.809434,-3.766312 C 18.491559,6.3683083 17.107735,7.8498753 14.373521,13.320769 10.85926,20.352463 7.2723946,24 3.8719258,24 2.3572853,24 0.83991869,23.55 0.5,23 z M 22,5.0313848 C 22,4.4986464 21.325,4.3217914 20.5,4.6383736 19.675,4.9549558 19,5.3908326 19,5.6069888 19,5.823145 19.675,6 20.5,6 21.325,6 22,5.5641232 22,5.0313848 z M 20.202351,18.721804 c 0.378975,-1.982485 0.13594,-2.431705 -1.108475,-2.048874 -1.151003,0.354095 -1.054515,0.05087 0.347254,-1.091295 C 20.508751,14.711736 21.742463,14 22.182712,14 c 1.312041,0 0.209105,6.369394 -1.183308,6.833532 -0.894268,0.298089 -1.135529,-0.34111 -0.797053,-2.111728 z m 3.999958,1.080505 c -0.930255,-0.930255 -0.598198,-1.823428 1.487091,-4 C 28.303146,13.074146 31,12.100484 31,13.88499 c 0,0.486745 -1.164044,1.647701 -2.586764,2.579903 -3.099325,2.030756 -2.551586,3.168114 0.751118,1.559665 L 31.5,16.887075 29.139216,18.943537 c -2.738354,2.385362 -3.310749,2.48493 -4.936907,0.858772 z"
       id="path3157"
       style="fill:#c5c5c5;fill-opacity:1" />
    <path
       d="m 36.379122,53.563424 c -1.716483,-0.747061 -4.416483,-3.056918 -6,-5.133016 C 27.823831,45.080249 27.50334,43.8596 27.529699,37.577842 27.562557,29.747338 29.507268,24.872377 35.592671,17.365763 46.506463,3.9031144 71.051493,-2.7697989 77.718197,5.9133428 78.388205,6.7860043 78.922181,8.175 78.90481,9 78.886968,9.8473916 78.489135,9.5464509 77.990404,8.3082974 76.403416,4.3684346 72.591142,2.7168588 66.157993,3.1821908 49.742606,4.3695727 32.340333,21.99967 31.204151,38.593636 30.703178,45.910348 32.533962,50.190522 37.195685,52.601193 47.009937,57.67634 64.963856,46.765835 72.885893,30.912434 77.128082,22.423063 77.026212,20.173788 72.6,24.6 c -1.87,1.87 -4.0075,3.397035 -4.75,3.393411 -0.7425,-0.0036 0,-0.889944 1.65,-1.9696 4.282189,-2.801995 7.313735,-7.547365 6.739755,-10.549944 -0.742636,-3.884853 -5.69428,-7.4510597 -10.56648,-7.6100491 -2.561893,-0.0836 -3.253928,-0.3101421 -1.792283,-0.5867166 3.859061,-0.7302169 8.690749,0.5966606 11.435509,3.1404177 1.408034,1.304922 2.749507,2.18314 2.98105,1.951596 C 79.20363,11.463036 79.884984,22.699332 79.124109,26 c -1.889465,8.196487 -6.951253,15.186046 -15.175455,20.954996 -10.315058,7.2356 -20.51237,9.6799 -27.569532,6.608428 z m 47.089969,-7.343473 c 0.379206,-0.988195 -0.05739,-1.168008 -1.626655,-0.669942 -1.725521,0.547659 -2.019861,0.354736 -1.505162,-0.986547 0.379098,-0.987915 0.233869,-1.416448 -0.356399,-1.051642 -0.547919,0.338633 -1.669145,-0.05723 -2.491613,-0.879701 -1.327196,-1.327195 -1.26846,-1.567424 0.522191,-2.135754 1.109674,-0.352197 1.721003,-1.120244 1.358508,-1.706772 -0.451227,-0.7301 0.56475,-0.836822 3.221555,-0.338402 l 3.880635,0.728011 -1.946312,-2.150651 c -1.645691,-1.818467 -1.723156,-2.288568 -0.501533,-3.043573 0.986735,-0.609836 2.128859,-0.250264 3.602528,1.134176 1.611368,1.513802 2.270813,1.692061 2.604259,0.703973 0.262532,-0.77795 1.190148,0.109938 2.251293,2.154875 1.721612,3.317722 1.842472,3.376116 2.622637,1.26713 0.709977,-1.919249 1.508724,-2.195305 6.055547,-2.092867 3.93929,0.08875 5.63983,0.614621 6.85989,2.121329 1.59247,1.966617 1.64614,1.945519 2.92889,-1.151325 1.01068,-2.43998 1.60484,-2.907218 2.62273,-2.062447 0.99078,0.822274 1.61568,0.612386 2.52849,-0.849258 0.75077,-1.20217 1.927,-1.75461 3.08889,-1.450767 1.75157,0.458044 1.77042,0.652487 0.28335,2.922044 l -1.59308,2.431348 3.57233,-0.670174 c 3.02833,-0.568118 3.47805,-0.424453 2.95315,0.943405 -0.45907,1.196308 -0.0249,1.61358 1.67893,1.61358 2.22365,0 2.23558,0.04573 0.36802,1.411324 -1.06156,0.776229 -2.34345,1.155862 -2.84866,0.843629 -0.50706,-0.313385 -0.66797,0.390526 -0.35918,1.571327 0.49567,1.895435 0.32552,2.013873 -1.49411,1.040038 -1.72551,-0.923465 -1.95441,-0.840839 -1.43323,0.517348 0.81397,2.121167 -2.58531,2.202867 -4.32721,0.104003 -0.94654,-1.140501 -1.58723,-1.23671 -2.60588,-0.39131 -1.05848,0.878467 -1.57308,0.536244 -2.3783,-1.581664 l -1.02756,-2.702685 -2.96132,3.1701 c -2.80988,3.007993 -3.07638,3.089504 -5.21152,1.593994 C 100.56758,45.709247 98.740992,45 97.746109,45 c -0.994883,0 -2.0679,-0.675 -2.384483,-1.5 -0.873203,-2.275531 -2.248737,-1.797967 -2.957727,1.026876 -0.47247,1.88247 -0.953534,2.261857 -1.886374,1.487669 -0.888997,-0.737803 -1.600026,-0.620063 -2.451542,0.405951 -1.519174,1.830492 -5.312765,1.664992 -4.596892,-0.200545 z M 40.26137,43.470517 C 33.377757,38.649047 36.938078,24.383526 47.242953,15.496655 51.766519,11.595554 58.073253,7.9709753 60.210162,8.044196 60.919573,8.0685038 59.7,9.0161698 57.5,10.15012 52.283353,12.838948 44.521215,20.356116 41.241965,25.895059 37.961014,31.436878 37.577525,38.767113 40.404988,41.893568 42.393523,44.092382 46.435324,44.722681 47.5,43 47.839919,42.45 47.385178,42 46.489466,42 43.868475,42 45.027895,37.56705 47.75,37.180449 49.550332,36.924761 50,37.343455 50,39.275461 c 0,4.870045 -5.433397,7.210559 -9.73863,4.195056 z M 106,33.11501 c 0,-0.486745 1.125,-1.622118 2.5,-2.523053 1.375,-0.900935 2.5,-2.543522 2.5,-3.650194 0,-1.759216 -0.28281,-1.868223 -2.25,-0.867233 -1.35721,0.690606 -0.86121,-0.0729 1.25,-1.924175 1.925,-1.687991 4.175,-3.07305 5,-3.077911 1.20615,-0.0071 1.15717,0.251407 -0.25,1.319602 -2.36382,1.794397 -2.39583,5.793011 -0.0391,4.888661 0.94098,-0.361088 -0.12606,1.003035 -2.3712,3.031385 C 108.38569,33.884273 106,34.939045 106,33.11501 z M 94.995141,29.006824 c 1.17223,-1.646246 1.868408,-3.418589 1.547061,-3.938539 -0.321347,-0.51995 0.06495,-1.310521 0.858433,-1.756825 C 98.19412,22.865157 100.4742,20.3625 102.46747,17.75 105.89805,13.253692 108,11.816289 108,13.96662 c 0,0.531641 -2.025,3.246662 -4.5,6.03338 -5.201345,5.856437 -5.85403,8.100343 -1.44242,4.959003 1.68166,-1.197452 3.36845,-1.866302 3.74842,-1.486333 0.37997,0.379968 -0.16271,1.314994 -1.20596,2.077835 -1.65254,1.208371 -1.71673,1.608286 -0.49842,3.10547 1.25324,1.540128 1.1908,1.635385 -0.60162,0.917802 -4.43103,-1.773928 -5.347769,-1.726741 -6.449564,0.331982 C 96.433994,31.057591 95.239823,32 94.396722,32 93.152793,32 93.265606,31.435732 94.995141,29.006824 z M 82,28.538955 c 0,-2.407527 3.919249,-5.308746 7.831318,-5.797121 2.017775,-0.251895 3.817138,-0.3359 3.998585,-0.186676 0.181446,0.149223 -0.403364,1.390421 -1.299579,2.758218 -1.28075,1.954671 -1.351354,2.590366 -0.329903,2.970339 0.906985,0.337392 0.740427,0.713673 -0.551346,1.245577 -1.078622,0.444137 -2.132765,0.306115 -2.526393,-0.330788 C 88.686459,28.49268 87.925274,28.435645 86.973607,29.037474 84.73439,30.453542 82,30.179467 82,28.538955 z m 5.978276,-1.733343 C 89.512267,25.376483 89.906579,24.46886 89.108973,24.202991 87.813752,23.771251 84,26.721341 84,28.154988 c 0,1.450907 1.529305,0.932188 3.978276,-1.349376 z M 0.5,23 c -0.87217965,-1.411216 0.31948577,-3 2.2501466,-3 1.3691677,0 1.3193828,0.236537 -0.309017,1.468197 -1.86945038,1.413981 -1.8460184,1.469371 0.6345564,1.5 C 4.5117663,22.985929 6.5472709,22.004493 7.676243,20.75 9.5272172,18.693231 16.320252,6.7648986 15.746165,6.5794985 15.610774,6.5357743 14.508146,5.9465804 13.29588,5.2701787 11.483502,4.2589358 10.580343,4.3338705 8.2142965,5.691795 5.0468531,7.5096579 2,6.9302005 2,4.509946 2,3.655893 3.1435219,2.436099 4.5411598,1.7992925 6.6623648,0.83280684 7.8357313,1.0074982 11.641237,2.8563557 14.148642,4.0745469 16.98012,4.8236975 17.93341,4.5211347 19.056942,4.1645396 19.666667,4.5037875 19.666667,5.4855103 19.666667,6.3184796 19.149408,7 18.517202,7 c -0.632206,0 -2.463627,2.7495457 -4.069826,6.110102 -1.606198,3.360555 -4.198465,7.185555 -5.7605936,8.5 C 5.7688211,24.065404 1.5962646,24.773793 0.5,23 z M 8.5588704,4.5714201 C 10.450218,3.1794773 10.451634,3.1241043 8.6140772,2.4122729 6.6135617,1.6373146 3.8801513,2.859546 3.2261857,4.8214428 2.679062,6.4628141 6.2140805,6.2970749 8.5588704,4.5714201 z M 20.198887,18.73992 c 0.382349,-2.000127 0.141584,-2.450492 -1.105011,-2.06699 -1.151003,0.354095 -1.054515,0.05087 0.347254,-1.091295 2.849185,-2.32152 3.864054,-1.938332 3.094404,1.168365 l -0.681282,2.75 3.370481,-3.25 C 28.492107,13.099422 31,12.072423 31,13.88499 c 0,0.486745 -1.164044,1.647701 -2.586764,2.579903 -3.099,2.030543 -2.551817,3.16769 0.751118,1.560961 2.22749,-1.083574 2.245683,-1.064117 0.39288,0.420176 -1.068521,0.855999 -3.106399,1.467697 -4.528617,1.359327 -1.422219,-0.108369 -3.200719,0.182974 -3.952223,0.647429 -1.056078,0.652692 -1.255354,0.263713 -0.877507,-1.712866 z M 14,19.622124 C 14,16.5274 21.927478,4.6376478 24.294863,4.181731 c 2.68034,-0.5161863 2.031807,1.1655719 -2.384047,6.182247 -2.249051,2.555057 -4.174205,5.205912 -4.27812,5.89079 C 17.348756,18.126141 16.002006,20 14.940983,20 14.423442,20 14,19.829956 14,19.622124 z"
       id="path3155"
       style="fill:#b5b5b5;fill-opacity:1" />
    <path
       d="m 40.75,54.294267 c 1.2375,-0.238353 3.2625,-0.238353 4.5,0 1.2375,0.238353 0.225,0.433369 -2.25,0.433369 -2.475,0 -3.4875,-0.195016 -2.25,-0.433369 z M 33.148572,51.471562 C 28.965592,47.951815 26.559212,41.232555 27.368114,35.330966 28.996955,23.44728 37.487739,12.833559 50.517071,6.3941134 56.882623,3.2480871 59.141376,2.6591117 65.745608,2.4232349 L 73.5,2.1462791 66.5,2.8716437 C 57.62986,3.7907989 50.442519,7.5224093 42.872168,15.139026 35.238616,22.81923 31.622895,30.407492 31.149533,39.741147 c -0.362257,7.142912 -0.319637,7.288749 3.141614,10.75 4.053175,4.053175 3.288739,4.709119 -1.142575,0.980415 z m 19.66477,0.03533 c 10.40481,-4.843855 22.095306,-19.598853 22.761457,-28.728059 0.149342,-2.046644 0.534326,-4.146381 0.85552,-4.666084 0.903414,-1.461754 -1.286656,-6.409131 -3.731671,-8.429861 L 70.5,7.86577 73,9.0684943 c 4.927499,2.3705687 6.226368,4.6836697 6.325336,11.2645217 0.119384,7.938385 -2.52591,13.884077 -9.420596,21.174191 -5.0206,5.308545 -17.006988,12.505892 -20.789097,12.483024 -0.888604,-0.0054 0.775361,-1.122877 3.697699,-2.483342 z M 83.469091,46.219951 C 83.839335,45.255111 83.419628,45.049428 82,45.5 c -1.586584,0.503562 -1.853568,0.28198 -1.323769,-1.098654 0.453253,-1.181158 0.290313,-1.498703 -0.513963,-1.001633 -0.647685,0.400291 -1.833033,0.07238 -2.634106,-0.728694 -1.275329,-1.275329 -1.199667,-1.52366 0.608286,-1.99645 1.293998,-0.338388 1.786609,-0.990049 1.319608,-1.745671 -0.559629,-0.9055 0.221086,-1.024447 3.13546,-0.477707 l 3.880635,0.728011 -1.946312,-2.150651 c -1.645691,-1.818467 -1.723156,-2.288568 -0.501533,-3.043573 0.986735,-0.609836 2.128859,-0.250264 3.602528,1.134176 1.611368,1.513802 2.270813,1.692061 2.604259,0.703973 C 90.493432,35.045748 91.429285,35.94364 92.5,38 c 1.251307,2.403195 1.975556,3.029941 2.311142,2 0.755758,-2.319482 2.293316,-2.924907 7.179128,-2.826838 3.3068,0.06638 4.8795,0.623598 5.90919,2.093691 1.37397,1.961612 1.43268,1.946842 2.8251,-0.710679 0.87893,-1.677506 1.97025,-2.503528 2.85768,-2.162989 0.78964,0.303013 1.95211,-0.275945 2.58325,-1.286575 0.69642,-1.11514 1.88522,-1.644605 3.02397,-1.346813 1.75157,0.458044 1.77042,0.652487 0.28335,2.922044 l -1.59308,2.431348 3.57233,-0.670174 c 3.02833,-0.568118 3.47805,-0.424453 2.95315,0.943405 -0.42267,1.101453 -0.0703,1.61358 1.11025,1.61358 1.4182,0 1.50705,0.267956 0.49368,1.48899 -0.67967,0.818944 -1.70565,1.198576 -2.27997,0.843628 -0.65678,-0.40591 -0.83667,0.148291 -0.48485,1.493662 0.49567,1.895435 0.32552,2.013873 -1.49411,1.040038 -1.72551,-0.923465 -1.95441,-0.840839 -1.43323,0.517348 0.81397,2.121167 -2.58531,2.202867 -4.32721,0.104003 -0.86868,-1.046694 -1.62779,-1.203047 -2.46549,-0.507816 -0.87106,0.722911 -1.53975,0.281608 -2.3853,-1.574179 l -1.17494,-2.578694 -2.95432,3.162614 c -2.80299,3.000607 -3.06959,3.081877 -5.20453,1.58651 C 100.56758,45.709247 98.80326,45 97.884483,45 c -0.918778,0 -1.929527,-0.675 -2.246109,-1.5 -0.884465,-2.304878 -2.529324,-1.78267 -3.234475,1.026876 -0.47247,1.88247 -0.953534,2.261857 -1.886374,1.487669 -0.888997,-0.737803 -1.600026,-0.620063 -2.451542,0.405951 -1.519174,1.830492 -5.312765,1.664992 -4.596892,-0.200545 z M 39.454545,42.545455 c -2.426938,-2.426939 -2.862743,-4.206106 -2.459429,-10.040579 0.425518,-6.155688 5.883733,-13.875882 13.836711,-19.570884 7.126799,-5.1033881 8.95864,-5.1284287 2.172873,-0.0297 -8.744905,6.570795 -14.979918,16.427204 -14.999123,23.710851 -0.0075,2.840075 3.506391,7.149014 6.264348,7.681737 L 46.5,44.727636 44.204545,44.863818 c -1.2625,0.0749 -3.4,-0.968363 -4.75,-2.318363 z M 47.367059,43.25 C 47.845112,42.45428 47.526174,42 46.489466,42 45.372566,42 44.961295,41.293089 45.180449,39.75 45.39019,38.273184 46.187274,37.5 47.5,37.5 c 2.611157,0 3.178583,3.702559 0.856299,5.587505 -1.121407,0.910221 -1.473174,0.968003 -0.98924,0.162495 z M 106,33.11501 c 0,-0.486745 1.125,-1.622118 2.5,-2.523053 1.375,-0.900935 2.5,-2.543522 2.5,-3.650194 0,-1.759216 -0.28281,-1.868223 -2.25,-0.867233 -1.35721,0.690606 -0.86121,-0.0729 1.25,-1.924175 1.925,-1.687991 4.175,-3.073678 5,-3.079306 1.16675,-0.008 1.11121,0.216217 -0.25,1.00905 -2.01852,1.17568 -2.50592,6.4298 -0.5,5.389942 0.6875,-0.356397 -0.43089,0.967046 -2.48531,2.940983 C 108.12398,33.909095 106,34.905371 106,33.11501 z M 94,31.222506 c 0,-0.427621 0.70107,-1.778411 1.557933,-3.001754 0.856863,-1.223343 1.294259,-2.650893 0.971992,-3.172333 -0.322268,-0.52144 0.246823,-1.393754 1.264646,-1.938477 1.017823,-0.544722 3.116629,-2.8173 4.664009,-5.050173 C 104.00596,15.826896 105.97408,14 106.83217,14 c 1.10896,0 0.67953,0.939903 -1.48488,3.25 C 101.97978,20.844169 99,25.040548 99,26.188781 c 0,0.409073 1.575,-0.185504 3.5,-1.321282 1.925,-1.135778 3.5,-1.592962 3.5,-1.015965 0,0.576997 -0.76624,1.477897 -1.70276,2.001999 -1.43581,0.803518 -1.495,1.203254 -0.37756,2.54969 C 104.71965,29.367124 104.8234,30 104.18146,30 103.59658,30 102.83992,29.55 102.5,29 101.45261,27.305291 98.083764,27.893011 96.767927,30 95.514463,32.007116 94,32.676006 94,31.222506 z M 82,28.674314 c 0,-2.310917 4.724655,-5.979581 6.950973,-5.397386 1.12587,0.294422 2.299041,0.127558 2.607048,-0.370808 1.380161,-2.233148 2.347913,-0.618091 1.104865,1.84388 -0.763661,1.5125 -1.187718,3.3125 -0.942347,4 0.529875,1.484652 -1.329593,1.69158 -2.22221,0.247296 -0.414252,-0.670273 -1.24086,-0.670273 -2.493276,0 C 84.384048,30.400015 82,30.24617 82,28.674314 z M 87.535183,27.38499 C 90.273733,25.590624 90.760669,24 88.571429,24 86.969935,24 84,26.645099 84,28.071429 c 0,1.303816 0.707266,1.166484 3.535183,-0.686439 z M 67,27.606989 c 0,-0.216156 0.698372,-0.661002 1.551938,-0.988546 0.889925,-0.341496 1.291322,-0.173849 0.940983,0.393011 C 68.905663,27.961658 67,28.416902 67,27.606989 z M 0.5,23 C -0.25804146,21.773463 0.735962,20 2.1814617,20 2.852049,20 2.7850153,20.554114 2,21.5 0.9510873,22.763862 1.1405076,23 3.2032413,23 6.7714107,23 9.8561506,19.053491 15.770166,6.9223138 16.243316,5.9517594 10.923099,3.9294936 9.7705558,4.6418043 9.1256253,5.0403933 8.9803572,4.8407997 9.4097362,4.1460499 9.8420926,3.4464826 9.2063478,2.6132471 7.8142447,2.0549277 6.5414101,1.5444424 6.0804271,1.0982488 6.7898381,1.0633863 c 0.7094109,-0.034862 3.097503,0.8588155 5.3068709,1.9859511 2.253938,1.1498734 4.979608,1.8122821 6.210162,1.509231 1.206221,-0.2970586 1.627825,-0.2808259 0.936898,0.036073 C 18.552843,4.9115397 18.2419,5.5823858 18.552786,6.0854102 18.863673,6.5884346 18.699571,7 18.188117,7 17.676663,7 15.737605,9.9767654 13.8791,13.615034 c -1.858505,3.638269 -4.4522864,7.463269 -5.7639587,8.5 C 5.5425461,24.148385 1.5000811,24.618165 0.5,23 z M 20.421919,18.455077 C 21.112428,15.70387 21.106435,15.700241 18.592532,17.347414 14.905295,19.763384 13.907767,19.430715 15.301865,16.25 18.563703,8.807929 26,0.90291789 26,4.8775553 c 0,1.4121089 -2.608798,3.1733195 -3.501339,2.3637688 -0.449526,-0.4077283 -0.56227,-0.025554 -0.250542,0.8492773 0.347555,0.9753767 -0.557787,2.6520096 -2.340671,4.3347656 -3.811524,3.597468 -3.703946,5.037878 0.224535,3.006382 l 3.131984,-1.619612 -0.672065,2.67772 c -0.777195,3.096592 0.702686,2.623426 3.730678,-1.192819 1.002419,-1.263371 2.352419,-2.290147 3,-2.281725 C 30.011164,13.024268 29.877236,13.433086 29,14 c -1.302127,0.841499 -1.305753,0.971394 -0.02749,0.984687 0.95653,0.0099 0.658038,0.585789 -0.851845,1.643352 -1.85393,1.298543 -2.050754,1.822071 -0.972506,2.586747 0.960907,0.68146 0.654418,0.803874 -1.059828,0.423302 -1.32642,-0.294473 -3.299864,-0.06006 -4.38543,0.520917 -1.798887,0.962735 -1.912378,0.811771 -1.280978,-1.703928 z M 63.761659,7.2927391 c 1.243913,-0.2391932 3.043913,-0.2301119 4,0.020181 C 68.717747,7.5632124 67.7,7.758916 65.5,7.7478166 63.3,7.7367172 62.517747,7.5319324 63.761659,7.2927391 z M 4,6.6166314 C 4,6.4057786 4.900621,5.9977451 6.0013799,5.7098901 7.1021389,5.4220352 7.7505812,5.5945511 7.4423629,6.0932588 6.904112,6.964167 4,7.4057046 4,6.6166314 z M 75.404988,4.75 73.5,2.5 75.75,4.4049876 C 77.864445,6.1952058 78.455241,7 77.654988,7 77.465231,7 76.452731,5.9875 75.404988,4.75 z M 2,4.7501466 C 2,3.8524847 2.479939,2.8214154 3.0665312,2.4588815 4.7815408,1.3989472 4.9498211,2.3481385 3.418239,4.4427019 2.2321412,6.0647873 2,6.1151107 2,4.7501466 z"
       id="path3153"
       style="fill:#a5a5a5;fill-opacity:1" />
    <path
       d="m 41.25,54.310674 c 0.9625,-0.251527 2.5375,-0.251527 3.5,0 0.9625,0.251528 0.175,0.457323 -1.75,0.457323 -1.925,0 -2.7125,-0.205795 -1.75,-0.457323 z M 33.722002,51.864518 C 32.194104,50.724852 30.203687,48.376608 29.298853,46.646199 26.923298,42.10317 27.147719,32.632157 29.770324,26.749239 32.288172,21.101306 40.837265,11.765716 46.565892,8.4085169 51.531187,5.49866 61.532179,1.9625286 64.40655,2.1004511 65.557948,2.1556992 64.752983,2.6110329 62.617739,3.1123038 52.277358,5.5398175 42.082185,13.561008 35.608651,24.362071 c -6.745017,11.254032 -6.942497,21.654895 -0.513864,27.064233 3.641759,3.064339 2.595636,3.398277 -1.372785,0.438214 z m 19.015432,-0.32246 C 59.03684,48.609228 66.772098,41.588615 71.051125,34.920329 74.477714,29.580452 77.493481,21 75.943695,21 c -0.528354,0 -0.39433,-0.912671 0.297831,-2.028158 1.064648,-1.715789 0.905649,-2.674727 -1.032352,-6.226205 l -2.290825,-4.1980463 2.884435,2.7634643 c 2.545665,2.438902 2.909477,3.537022 3.09766,9.349894 0.28089,8.676566 -2.8651,15.276867 -10.69468,22.437488 C 62.808478,48.034578 52.27281,54.009035 49,53.989442 c -0.825,-0.0049 0.856845,-1.106262 3.737434,-2.447384 z m 30.664539,-5.1472 C 83.845909,45.23798 83.507038,45.021685 82,45.5 c -1.589859,0.504601 -1.853928,0.282916 -1.320099,-1.108218 0.47987,-1.250522 0.265953,-1.584982 -0.761556,-1.19069 -0.78588,0.301571 -1.96386,-0.0244 -2.617734,-0.724371 -0.933253,-0.999051 -0.749237,-1.387646 0.855879,-1.807393 1.27931,-0.334547 1.765791,-0.986062 1.299566,-1.74043 -0.559629,-0.9055 0.221086,-1.024447 3.13546,-0.477707 l 3.880635,0.728011 -1.946312,-2.150651 c -1.645691,-1.818467 -1.723156,-2.288568 -0.501533,-3.043573 0.986735,-0.609836 2.128859,-0.250264 3.602528,1.134176 1.611368,1.513802 2.270813,1.692061 2.604259,0.703973 0.263706,-0.78143 1.208374,0.109796 2.307407,2.176873 1.398173,2.629706 1.953799,3.064853 2.234522,1.75 0.205494,-0.9625 0.67813,-1.800549 1.050302,-1.862332 0.372172,-0.06178 2.895023,-0.271485 5.606336,-0.466005 4.11101,-0.29494 5.17405,-0.0048 6.4013,1.74738 l 1.47163,2.101054 1.36161,-2.598714 c 0.82875,-1.58174 1.91979,-2.384516 2.78796,-2.051365 0.78565,0.301481 1.97316,-0.328194 2.64362,-1.401785 0.75478,-1.20859 1.93018,-1.7627 3.09368,-1.458436 1.75157,0.458044 1.77042,0.652487 0.28335,2.922044 l -1.59308,2.431348 3.57233,-0.670174 c 3.02833,-0.568118 3.47805,-0.424453 2.95315,0.943405 -0.42267,1.101453 -0.0703,1.61358 1.11025,1.61358 1.4182,0 1.50705,0.267956 0.49368,1.48899 -0.67967,0.818944 -1.70565,1.198576 -2.27997,0.843628 -0.65678,-0.40591 -0.83667,0.148291 -0.48485,1.493662 0.49567,1.895435 0.32552,2.013873 -1.49411,1.040038 -1.72551,-0.923465 -1.95441,-0.840839 -1.43323,0.517348 0.81397,2.121167 -2.58531,2.202867 -4.32721,0.104003 -0.86868,-1.046694 -1.62779,-1.203047 -2.46549,-0.507816 -0.87106,0.722911 -1.53975,0.281608 -2.3853,-1.574179 l -1.17494,-2.578694 -3.00694,3.218944 c -2.81242,3.010705 -3.12364,3.113339 -4.81076,1.58651 C 101.15424,45.734595 99.413597,45 98.278248,45 c -1.135349,0 -2.323292,-0.675 -2.639874,-1.5 -0.820459,-2.138081 -2.391341,-1.853691 -3.161328,0.572321 -0.361751,1.139777 -1.237241,1.849943 -1.945533,1.578145 -0.708291,-0.271797 -1.713172,-0.06881 -2.233067,0.451088 -0.519896,0.519896 -1.966011,1.141843 -3.21359,1.382104 -1.71663,0.330593 -2.125936,0.06578 -1.682883,-1.0888 z m 34.105697,-2.030044 c -2.05415,-2.054153 -1.89918,-2.539659 0.74233,-2.325689 3.72361,0.301624 4.90075,0.01381 4.25,-1.039125 -0.33992,-0.55 -1.99323,-1 -3.67403,-1 -3.01994,0 -3.0369,-0.02914 -1.43766,-2.469891 1.37834,-2.103608 1.3954,-2.38434 0.11501,-1.893011 C 116.6765,35.954382 116,36.615833 116,37.106989 116,37.598145 115.14814,38 114.10699,38 c -2.19264,0 -3.19339,1.953618 -2.45234,4.787373 0.34042,1.301762 1.12632,1.821159 2.2937,1.515884 1.0461,-0.273562 2.03507,0.211149 2.40668,1.179557 0.34697,0.904172 1.08747,1.361737 1.64558,1.01681 0.63485,-0.392362 0.45032,-1.191554 -0.49294,-2.13481 z M 87.5,45 c 0.339919,-0.55 1.491476,-1 2.559017,-1 2.55648,0 2.717356,-4.787439 0.190983,-5.683384 -0.9625,-0.341338 -2.602979,-1.339715 -3.645509,-2.218616 -1.796277,-1.514342 -1.83554,-1.483651 -0.75,0.586259 1.679759,3.202966 1.456493,3.588382 -1.801678,3.110184 -1.620953,-0.237905 -2.719396,-0.06398 -2.440983,0.386501 0.278412,0.450481 -0.307854,0.871257 -1.302813,0.935057 -1.671845,0.107206 -1.67632,0.150679 -0.05902,0.573325 0.9625,0.251527 1.75,0.799326 1.75,1.217331 0,0.418006 0.655205,0.76001 1.456011,0.76001 0.800807,0 1.224249,-0.375 0.940983,-0.833334 C 84.113729,42.375 84.583524,42 85.440983,42 87.303015,42 87.450415,43.149585 85.8,44.8 84.935633,45.664367 84.919126,46 85.740983,46 86.368524,46 87.160081,45.55 87.5,45 z M 43.8125,44.316886 c 0.721875,-0.288871 1.584375,-0.253344 1.916667,0.07895 0.332291,0.332292 -0.258334,0.568641 -1.3125,0.52522 -1.164943,-0.04798 -1.4019,-0.284941 -0.604167,-0.604167 z M 38.556704,41.777494 C 36.612044,39.001103 36.546904,32.020175 38.423742,27.528268 40.808956,21.819647 53.88424,9 57.321483,9 c 0.561773,0 -1.090851,1.399101 -3.6725,3.109114 -13.09758,8.675477 -19.91762,26.005285 -12.249279,31.125573 0.775026,0.517499 0.747534,0.739214 -0.093,0.75 -0.656313,0.0084 -1.893813,-0.984815 -2.75,-2.207193 z M 47.367059,43.25 C 47.845112,42.45428 47.526174,42 46.489466,42 45.372566,42 44.961295,41.293089 45.180449,39.75 45.39019,38.273184 46.187274,37.5 47.5,37.5 c 2.611157,0 3.178583,3.702559 0.856299,5.587505 -1.121407,0.910221 -1.473174,0.968003 -0.98924,0.162495 z M 106.5676,33.109384 c -0.30273,-0.489839 0.61557,-1.654605 2.04067,-2.588369 1.93731,-1.269376 2.47306,-2.315249 2.12327,-4.145036 -0.45805,-2.39614 2.22386,-5.420064 4.74097,-5.34557 0.56512,0.01672 0.21017,0.505773 -0.78877,1.086773 -1.22246,0.710999 -1.71907,1.983047 -1.51896,3.890792 0.21551,2.054528 -0.46831,3.54399 -2.48525,5.413226 -3.09169,2.865281 -3.32519,2.961147 -4.11193,1.688184 z M 94.022236,31.25 C 94.034466,30.8375 94.924459,29.375 96,28 c 1.075541,-1.375 1.96844,-2.95 1.98422,-3.5 0.04041,-1.40832 8.14076,-10.708352 8.77478,-10.074337 0.28681,0.286814 -1.07949,2.29356 -3.03623,4.459435 -5.872601,6.500269 -7.147424,10.416053 -2.1639,6.646705 1.06762,-0.807508 2.61613,-1.468196 3.44113,-1.468196 1.1485,0 1.05515,0.33672 -0.39838,1.436941 -1.5697,1.188142 -1.67835,1.702068 -0.62756,2.968196 1.67734,2.021066 0.16736,1.969213 -2.08782,-0.0717 -1.63912,-1.483377 -1.965416,-1.40878 -4.374197,1 -2.694954,2.694955 -3.527882,3.137208 -3.489807,1.852953 z M 82,28.654988 c 0,-0.739757 1.0125,-2.190317 2.25,-3.223467 1.2375,-1.03315 1.6875,-1.237894 1,-0.454987 -1.783476,2.030974 -1.589737,4.367813 0.301938,3.641909 0.889925,-0.341496 1.291322,-0.173849 0.940983,0.393011 C 85.580075,30.48847 82,30.204428 82,28.654988 z m 7.201442,0.08976 c -0.87252,-1.052687 -0.954542,-1.779312 -0.25,-2.214742 1.592276,-0.984081 1.255616,-2.332858 -0.701442,-2.810218 -0.9625,-0.234771 -0.2875,-0.424286 1.5,-0.421144 3.332068,0.0059 3.933233,0.582505 2.347065,2.251351 -0.496615,0.5225 -1.059115,1.807577 -1.25,2.855726 -0.310621,1.705613 -0.483421,1.741213 -1.645623,0.339027 z M 0.5,23 C -0.29752832,21.709572 0.77528553,19.97728 2.309017,20.078947 3.1677702,20.135872 3.1513071,20.298595 2.25,20.662281 0.11301081,21.524575 0.87734824,23 3.4610449,23 4.8146195,23 6.7841224,22.074717 7.8377179,20.943815 9.7567263,18.884001 16.370932,6.9478761 15.802292,6.5707888 15.636031,6.4605351 13.925,5.3945849 12,4.2020105 7.2346262,1.2497702 8.8269376,1.4325466 14.596025,4.5 17.182044,5.875 18.786513,7 18.161511,7 c -0.625002,0 -2.705912,3.1167 -4.624245,6.925999 -1.918332,3.8093 -4.4991176,7.6343 -5.7350779,8.5 C 5.2656352,24.20267 1.4296493,24.504204 0.5,23 z m 19.946104,-4.641282 0.668593,-2.663891 -2.644112,1.73249 c -2.876923,1.885032 -4.058229,1.546443 -3.12148,-0.894687 0.3279,-0.854494 0.68885,-1.886401 0.80211,-2.293128 0.11326,-0.406726 0.688071,-1.221968 1.277356,-1.811648 C 18.017857,11.838173 19.625,9.7037483 21,7.6846869 23.457321,4.0763357 26.491046,2.5567789 25.361626,5.5 25.045044,6.325 24.159167,7 23.393011,7 22.626855,7 22,7.4975398 22,8.1056441 c 0,0.6081042 -1.125,2.4426309 -2.5,4.0767249 -3.019494,3.588465 -3.270897,5.30057 -0.565741,3.852815 C 19.998101,15.465833 21.300497,15 21.828472,15 c 1.471241,0 0.856023,4.905468 -0.689717,5.499488 -1.030206,0.395903 -1.198651,-0.124708 -0.692651,-2.14077 z m 4.126538,0.758819 C 23.875701,17.989863 27.763645,12.995038 29.32258,13.015313 30.011164,13.024268 29.877236,13.433086 29,14 c -0.825,0.533156 -1.076492,0.976265 -0.55887,0.984687 0.517621,0.0084 0.06762,0.681762 -1,1.49631 -1.680151,1.281881 -1.73946,1.61594 -0.44113,2.484687 1.296598,0.867589 1.270701,1.005767 -0.190983,1.019003 -0.930041,0.0084 -1.936409,-0.381795 -2.236375,-0.86715 z M 64.25,7.3106745 c 0.9625,-0.2515276 2.5375,-0.2515276 3.5,0 0.9625,0.2515275 0.175,0.4573228 -1.75,0.4573228 -1.925,0 -2.7125,-0.2057953 -1.75,-0.4573228 z M 2.0789474,4.4166667 C 2.1269313,3.2517237 2.3638877,3.0147673 2.683114,3.8125 2.9719846,4.534375 2.9364583,5.396875 2.6041667,5.7291667 2.271875,6.0614583 2.0355263,5.4708333 2.0789474,4.4166667 z"
       id="path3151"
       style="fill:#949494;fill-opacity:1" />
    <path
       d="m 42.269032,54.307009 c 1.69748,-0.790673 5.007125,0.704828 1.230968,0.498042 0.06554,0.07538 -2.778975,-0.08821 -1.230968,-0.498042 z M 57.5,49.299326 C 65.653502,42.720771 73.497382,34.410286 75.864963,23.884265 76.932091,18.956398 77.106481,13.082956 73.243675,9.2651971 79.331488,12.950758 79.837908,21.405638 78.072337,27.637906 74.910313,38.723718 65.503421,46.667646 55.476365,51.548687 53.927748,51.762011 57.15277,49.64962 57.5,49.299326 z M 30.716978,48.690806 C 26.70842,42.144929 26.255717,33.56241 30.134813,26.844084 35.560128,16.370257 45.017463,7.6956902 56.347427,4.1812344 52.43794,7.6283525 47.519933,9.9444843 43.8671,13.782191 35.15743,22.006412 28.621501,34.191465 31.0762,46.449396 c 0.752565,1.570798 3.059494,6.127374 -0.03672,2.707468 l -0.322502,-0.466058 0,0 z m 52.684995,-2.295948 c 0.838917,-2.630671 -4.94106,1.085312 -2.494127,-2.772133 -0.694598,-0.210114 -6.621546,-1.410743 -2.751356,-2.953397 2.609957,-0.192965 -0.138504,-3.903993 3.314015,-2.415318 1.123346,-0.191353 5.504171,1.838109 4.057608,-0.04457 -2.019658,-1.844778 -2.920072,-6.377327 1.253143,-3.834264 1.223884,1.849695 2.826787,2.132446 4.282304,1.20992 1.150205,2.264332 3.478829,8.255227 4.580443,2.8116 4.032414,-0.771758 9.442657,-2.359125 12.613587,1.307852 2.80726,2.408612 2.7709,-5.105286 6.54858,-3.257638 1.47847,-3.740726 8.24898,-3.216809 4.03917,0.911876 -2.03126,2.157622 -0.18859,1.732078 1.74503,1.245879 3.27033,-2.114369 5.73713,1.58265 1.69428,2.28118 -0.80786,-2.757476 -7.71599,0.871734 -4.24947,-3.95159 1.17939,-4.589092 -4.09749,2.108311 -6.26359,1.771046 -1.80408,2.971868 0.29988,6.428456 3.58211,6.182618 2.04812,3.175532 4.55257,0.525951 1.77088,-1.751299 1.34686,-2.713715 9.55404,4.371515 3.16139,2.333331 0.51215,5.667744 -5.79277,-1.943691 -7.74787,0.849711 -1.56576,-0.425924 -1.83341,-5.623255 -3.38758,-3.621802 -1.8041,1.627279 -3.11941,4.144769 -5.48482,4.900023 -3.31887,-1.872644 -7.020221,-3.971191 -10.180514,-5.32609 -1.298701,4.215943 -5.916852,3.749589 -9.449788,5.343568 -0.752252,0.25566 -1.035694,-0.782395 -0.633425,-1.220507 z M 87.51639,44.97348 c 3.398529,-0.233207 5.745673,-3.469235 3.739454,-6.812885 -1.920399,0.590431 -7.535879,-5.263355 -5.439177,-0.943928 4.177523,4.879057 -6.802271,0.307953 -6.150595,4.733178 2.431787,0.40884 3.260719,2.422202 5.870551,0.182157 3.573718,-0.151613 -3.027775,6.281781 1.979767,2.841478 z m 35.02006,-1.935059 c -4.02753,-1.534184 8.20561,-2.97012 2.58804,0.03475 -0.83645,0.267193 -1.75859,0.252157 -2.58804,-0.03475 z M 45.472927,40.956195 c -1.219277,-4.25183 6.172224,-5.161028 3.87107,-0.308397 -0.91617,0.98835 -3.081717,2.09316 -3.87107,0.308397 z m -8.348171,-5.739439 c 0.0499,-8.892113 6.594369,-15.7808 12.820252,-21.367023 2.262072,-2.233849 0.660159,-0.457969 -0.525568,0.886027 -5.134616,5.777691 -10.889555,11.846859 -11.468914,19.992822 -0.225794,1.320836 -0.535459,4.076714 -0.708878,4.501416 -0.03896,-1.337747 -0.07793,-2.675495 -0.116892,-4.013242 z M 107,33.551762 c 2.35454,-3.054054 5.15052,-5.702073 4.83646,-9.861465 0.3069,-2.433655 6.22872,-3.614668 2.21884,-0.995542 -1.34806,4.114176 -2.32311,9.134429 -6.99407,10.963551 L 107,33.551762 z m -11.634343,-4.23835 c 0.429848,-2.606143 4.850063,-5.585838 2.578219,-1.105234 -0.647123,1.03663 -3.9808,4.388798 -3.953502,3.810256 0.458428,-0.901674 0.916855,-1.803348 1.375283,-2.705022 z M 82,28.654988 C 82.442224,26.206909 87.82589,21.96675 84.341757,26.908575 85.113117,29.113864 83.451753,31.784334 82,28.654988 z M 102.44113,28.5 c -5.280277,-2.271994 7.48181,-6.462698 1.10883,-2.779279 -3.2224,1.167945 4.52943,6.021752 -0.63878,3.134331 L 102.44113,28.5 z M 88.542705,28.069098 c 0.08771,-1.721932 3.061372,-3.993674 -0.730132,-4.532576 3.678486,-1.511505 5.753596,1.458098 2.996313,4.42363 -0.448546,1.143084 -1.758041,1.338079 -2.266181,0.108946 z M 2.8125,23.316886 c 4.939431,-0.982475 -0.980728,2.080516 0,0 z M 11.119193,16.5 c 1.39072,-2.328096 2.620562,-5.308474 4.399372,-7.0642953 C 13.843681,13.414753 11.870956,17.446253 9.1592953,20.803125 9.5413001,19.269113 10.428513,17.908388 11.119193,16.5 z m 90.668427,2.911186 c 0.49723,-1.785929 6.96773,-7.636249 4.13558,-3.063303 -1.90859,2.223258 -4.14875,4.123232 -6.254596,6.152117 0.706336,-1.029605 1.412676,-2.059209 2.119016,-3.088814 z M 20.5,17.666667 c 3.135386,-8.3334757 0.983868,7.6483 0,0 z m 4.5,0.455778 c -0.192206,-2.716732 4.697671,-5.842796 1.720868,-1.576205 -1.330926,1.990693 3.097356,4.554651 -1.239891,2.933517 L 25.125679,18.890299 25,18.122445 z M 15,18.504524 C 16.195766,15.490702 18.694861,10.539856 20.563814,9.3748047 19.141853,12.135642 16.751463,17.737427 15,18.504524 z M 14.5,5.7425855 c -1.532235,-1.4350873 -2.6642,-2.580092 -0.07185,-1.0260219 2.476126,0.4482258 4.952886,3.8762548 0.912844,1.7659641 L 14.918423,6.1350375 14.5,5.7425855 l 0,0 z M 22.079891,6.25 C 22.942604,3.1370607 27.527575,3.9794019 24.472713,6.6375593 22.870628,5.8184287 19.857244,9.7339357 22.079891,6.25 z M 62.8125,2.316886 c 4.939427,-0.9824738 -0.980726,2.0805076 0,0 z"
       id="path3149"
       style="fill:#848484;fill-opacity:1" />
    <path
       d="m 84.243769,47.279462 c -0.690926,-0.247655 -0.972073,-0.910058 -0.62477,-1.472006 0.397659,-0.643426 -0.153086,-0.772719 -1.487478,-0.349199 -1.726029,0.54782 -1.995199,0.350067 -1.45162,-1.066475 0.47987,-1.250522 0.265953,-1.584982 -0.761556,-1.19069 -0.78588,0.301571 -1.96386,-0.0244 -2.617734,-0.724371 -0.933253,-0.999051 -0.749237,-1.387646 0.855879,-1.807393 1.27931,-0.334547 1.765791,-0.986062 1.299566,-1.74043 -0.557003,-0.90125 0.190337,-1.030216 2.95952,-0.510714 l 3.704694,0.695005 -1.59602,-2.435835 c -1.36713,-2.086504 -1.389229,-2.515189 -0.154091,-2.989156 0.793061,-0.304326 2.21935,0.305721 3.169532,1.35566 0.950181,1.049939 2.167773,1.636939 2.705759,1.304445 0.537986,-0.332493 1.370955,0.01562 1.851041,0.773582 1.463753,2.310984 1.00177,3.390287 -0.564688,1.319245 -0.807508,-1.067622 -1.482508,-1.533886 -1.5,-1.036142 -0.01749,0.497743 -0.934562,0.088 -2.037934,-0.910536 -2.142764,-1.939176 -4.16709,-1.267673 -2.177202,0.722215 1.973332,1.973332 1.334343,3.045355 -1.49305,2.504864 -1.580676,-0.302165 -3.247512,0.05951 -4.071428,0.883423 C 79.058794,41.798349 79.08429,42 80.428571,42 81.292857,42 82,42.54 82,43.2 c 0,0.933333 0.266667,0.933333 1.2,0 0.66,-0.66 1.875,-1.2 2.7,-1.2 1.166667,0 1.233333,0.266667 0.3,1.2 -0.66,0.66 -1.2,1.854744 -1.2,2.654988 0,1.170765 0.378378,1.11256 1.936987,-0.297962 1.065342,-0.964122 2.445631,-1.438589 3.067308,-1.054372 0.665145,0.411083 1.356391,-0.165917 1.679644,-1.402038 C 91.986067,41.945277 92.855779,41 93.616631,41 94.377484,41 95,40.273925 95,39.386501 c 0,-1.217531 0.723268,-1.507346 2.947187,-1.180944 1.620953,0.237905 2.719393,0.06398 2.440983,-0.386501 -0.698783,-1.130655 0.35944,-1.024497 2.79825,0.280712 1.49423,0.799691 1.86948,0.799691 1.37524,0 -1.15836,-1.874266 1.02953,-1.208975 2.92992,0.890924 1.69894,1.877308 1.8758,1.891548 3.10525,0.25 1.1848,-1.581943 1.25279,-1.538515 0.74546,0.476189 -0.30703,1.219284 -1.41618,2.489183 -2.46478,2.821996 -1.0486,0.332814 -1.66749,0.991927 -1.3753,1.464697 0.29219,0.47277 -0.46341,1.556266 -1.6791,2.40777 -1.95314,1.368036 -2.40061,1.375998 -3.84547,0.06842 C 101.07832,45.665895 99.645552,45 98.793704,45 97.941856,45 96.684689,44.325 96,43.5 94.305861,41.458688 93.256612,41.616128 92.49161,44.026435 92.137869,45.140974 91.320044,45.946562 90.674222,45.816631 90.0284,45.686699 88.6,46.063995 87.5,46.655068 c -1.1,0.591072 -2.565304,0.87205 -3.256231,0.624394 z m 19.485401,-5.883629 c -0.3323,-0.332291 -1.1948,-0.367818 -1.91667,-0.07895 -0.79773,0.319226 -0.56078,0.556183 0.60417,0.604167 1.05416,0.04342 1.64479,-0.192928 1.3125,-0.52522 z m 12.2606,5.091836 c -0.89275,-1.075689 -1.61618,-1.21268 -2.50567,-0.474477 -0.90327,0.749648 -1.42835,0.574479 -1.89086,-0.630797 -0.35217,-0.917758 -0.40472,-1.904244 -0.11678,-2.19219 0.28795,-0.287946 0.52354,-0.01266 0.52354,0.611744 0,0.624405 0.59089,0.908534 1.3131,0.631399 0.7222,-0.277135 2.14194,0.411988 3.15498,1.531385 C 117.48112,47.08413 118.07033,48 117.77743,48 c -0.2929,0 -1.09735,-0.680549 -1.78766,-1.512331 z m 2.27071,-1.172621 c -1.3748,-2.960694 -0.86602,-4.320587 0.94057,-2.513995 1.21835,1.218351 1.89552,5.204713 0.88183,5.191145 -0.32058,-0.0043 -1.14066,-1.209009 -1.8224,-2.67715 z m 4.77481,-2.293237 c -0.99678,-0.616046 -0.97547,-0.893498 0.10156,-1.321813 1.06673,-0.424221 1.0785,-0.559271 0.0541,-0.621051 -0.71996,-0.04342 -1.03509,-0.522171 -0.70029,-1.063889 0.37754,-0.610862 -0.54955,-0.753287 -2.44098,-0.375 -3.05342,0.610684 -4.23855,-0.78728 -1.8952,-2.23555 0.73687,-0.45541 0.88213,-0.272814 0.40156,0.504763 -0.56523,0.914565 0.1472,1.04942 2.85769,0.540929 2.9907,-0.561058 3.51009,-0.415328 3.02501,0.848756 -0.3419,0.890983 0.0283,1.666559 0.88942,1.863579 1.17361,0.268504 1.21895,0.572624 0.22187,1.488225 -0.68925,0.632918 -1.82089,0.799891 -2.51477,0.371051 z m -10.52821,-6.010357 c -0.33603,-0.5437 0.0153,-0.748221 0.78077,-0.454491 0.76545,0.29373 1.96892,-0.161424 2.67438,-1.011454 1.37187,-1.652996 5.55601,-2.193051 4.56476,-0.589183 -0.32507,0.525979 -1.17953,0.7305 -1.8988,0.454491 -0.71927,-0.276009 -1.88496,0.193644 -2.59042,1.043674 -1.47823,1.781153 -2.65898,1.967416 -3.53069,0.556963 z"
       id="path3147"
       style="fill:#747474;fill-opacity:1" />
    <path
       d="M 101.98256,46.478987 C 101.30746,45.665544 99.965311,45 99,45 c -0.965311,0 -2.332307,-0.695479 -3.037769,-1.545509 -0.705462,-0.85003 -1.908934,-1.305184 -2.674383,-1.011454 -0.765448,0.29373 -1.116794,0.08921 -0.780769,-0.454491 0.957617,-1.549457 3.213632,-1.158744 3.918715,0.678671 0.465288,1.212522 0.939771,1.367218 1.739771,0.567218 1.534521,-1.534521 0.270259,-4.338907 -1.627711,-3.610587 C 95.671724,39.956213 95,39.680877 95,38.993489 c 0,-0.782417 1.057837,-1.06523 2.947187,-0.787932 1.620953,0.237905 2.719393,0.06398 2.440983,-0.386501 -0.698783,-1.130655 0.35944,-1.024497 2.79825,0.280712 1.49423,0.799691 1.86948,0.799691 1.37524,0 -1.15436,-1.86779 1.02644,-1.21239 2.917,0.876651 0.98375,1.08703 2.17849,1.735472 2.65499,1.440983 0.47649,-0.29449 0.86635,-0.107023 0.86635,0.416592 0,1.583506 -3.27895,2.325001 -4.20043,0.949876 -0.52597,-0.784912 -0.62008,-0.247054 -0.24216,1.383965 0.77927,3.36313 -2.53869,5.764577 -4.57485,3.311152 z M 104.5,43.430362 c 0,-1.046635 -0.7875,-2.054631 -1.75,-2.239991 -1.75992,-0.33893 -2.53354,2.692759 -1.0625,4.163796 1.18142,1.181424 2.8125,0.06574 2.8125,-1.923805 z M 115.40499,45.75 113.5,43.5 l 2.25,1.904988 c 1.2375,1.047743 2.25,2.060243 2.25,2.25 0,0.800253 -0.80479,0.209457 -2.59501,-1.904988 z m 3.13012,-0.336764 c -1.79051,-2.732663 -1.31596,-4.594089 0.66594,-2.612183 C 120.16623,43.766229 121.18159,48 120.44789,48 c -0.11983,0 -0.98058,-1.164044 -1.91278,-2.586764 z m -34.996657,0.72963 c 0.535132,-1.02 0.185628,-1.190068 -1.406932,-0.684609 -1.656004,0.525595 -1.9877,0.330527 -1.51824,-0.892866 C 80.998957,43.560336 80.659877,43 79.666006,43 c -0.851385,0 -1.855883,-0.49821 -2.232218,-1.107134 -0.860383,-1.392127 3.774129,-0.07715 4.678015,1.327325 0.852746,1.325008 2.019547,1.185315 2.972021,-0.35582 0.444086,-0.718548 1.026121,-1.087759 1.29341,-0.82047 0.267289,0.267289 -0.422292,1.604257 -1.532404,2.971039 -1.110111,1.366783 -1.697981,1.87435 -1.306377,1.127926 z m 28.025837,-0.849738 c -0.54268,-1.425198 -0.42782,-1.540062 0.5598,-0.559795 0.68342,0.678334 0.99067,1.485241 0.68278,1.793128 -0.30789,0.307888 -0.86705,-0.247112 -1.24258,-1.233333 z M 89.012608,45.028954 c -1.168964,-0.739091 -1.008401,-0.904339 0.75,-0.771883 C 90.993174,44.349767 92,44.779847 92,45.212804 92,46.2563 90.840996,46.184973 89.012608,45.028954 z M 124,43.098444 c 0,-1.038441 1.90221,-2.541728 2.46567,-1.94858 0.18294,0.192575 -0.297,0.930378 -1.06653,1.639563 C 124.62961,43.498611 124,43.637669 124,43.098444 z M 79.70233,39.666667 c -0.281407,-0.733334 0.07755,-1.333334 0.79767,-1.333334 0.720125,0 1.079077,0.6 0.79767,1.333334 C 81.016264,40.4 80.657312,41 80.5,41 80.342688,41 79.983736,40.4 79.70233,39.666667 z m 5.089408,-0.34286 c 1.05565,-0.423571 1.05565,-0.820368 0,-2.171053 -1.154173,-1.476742 -1.105369,-1.506594 0.458262,-0.280309 0.9625,0.754844 1.75,1.767344 1.75,2.25 0,0.482655 -0.7875,0.842029 -1.75,0.798608 -1.112893,-0.05021 -1.279729,-0.26764 -0.458262,-0.597246 z m 6.838863,-0.844061 C 91.29154,37.596165 90.611935,37.121803 90.12037,37.425607 89.628804,37.729412 88.670525,37.307934 87.990862,36.48899 87.311199,35.670045 85.797711,34.993109 84.627555,34.984687 82.91228,34.972342 82.787676,34.78748 83.984543,34.030715 c 1.045952,-0.661344 2.101904,-0.358679 3.574187,1.024459 1.149304,1.079715 2.329635,1.723128 2.622956,1.429806 C 90.475008,36.191659 91.293249,36.648417 92,37.5 c 0.706751,0.851583 1.051468,1.781865 0.766039,2.067294 -0.285429,0.285429 -0.796376,-0.203967 -1.135438,-1.087548 z M 117,39.059017 c 0,-0.517541 0.44485,-1.215913 0.98855,-1.551938 0.56686,-0.350339 0.7345,0.05106 0.39301,0.940983 C 117.71677,40.180479 117,40.497449 117,39.059017 z m 5.8125,-0.742131 c 0.72187,-0.288871 1.58437,-0.253344 1.91667,0.07895 0.33229,0.332292 -0.25834,0.568641 -1.3125,0.52522 -1.16495,-0.04798 -1.4019,-0.284941 -0.60417,-0.604167 z m -10.30542,-1.305432 c -0.33603,-0.5437 0.0153,-0.748221 0.78077,-0.454491 0.76545,0.29373 1.96892,-0.161424 2.67438,-1.011454 1.37187,-1.652996 5.55601,-2.193051 4.56476,-0.589183 -0.32507,0.525979 -1.17953,0.7305 -1.8988,0.454491 -0.71927,-0.276009 -1.88496,0.193644 -2.59042,1.043674 -1.47823,1.781153 -2.65898,1.967416 -3.53069,0.556963 z"
       id="path3145"
       style="fill:#646464;fill-opacity:1" />
    <path
       d="M 115.40499,45.75 113.5,43.5 l 2.25,1.904988 c 1.2375,1.047743 2.25,2.060243 2.25,2.25 0,0.800253 -0.80479,0.209457 -2.59501,-1.904988 z M 100.23627,45.634177 C 98.979455,45.012213 98.201054,43.918446 98.486274,43.175174 98.768823,42.438862 99,41.198229 99,40.418213 99,39.638196 99.435877,39 99.968615,39 c 0.532735,0 0.708265,0.678474 0.390045,1.50772 -0.31821,0.829247 0.15629,2.629247 1.05444,4 0.89815,1.370754 1.51013,2.437027 1.35995,2.369496 -0.15018,-0.06753 -1.29173,-0.626899 -2.53678,-1.243039 z m 4.39766,-1.55382 C 105.17865,41.356764 104.98458,41 102.95833,41 c -1.26041,0 -1.99557,-0.296096 -1.63367,-0.657991 0.36189,-0.361895 0.0994,-1.335569 -0.58334,-2.16372 -1.078547,-1.308285 -0.954902,-1.353132 0.94294,-0.342009 2.67989,1.427783 3.63116,1.483094 2.81574,0.16372 -0.33992,-0.55 -0.14148,-1 0.44098,-1 0.58246,0 1.05902,0.345772 1.05902,0.768383 0,0.422611 1.2375,1.57747 2.75,2.566355 l 2.75,1.797972 -2.66711,-0.411837 c -2.31669,-0.357729 -2.64515,-0.08518 -2.5,2.074431 0.0919,1.367447 -0.39137,2.684075 -1.07396,2.925839 -0.89408,0.316671 -1.06882,-0.421669 -0.625,-2.640786 z m 6.93036,1.212771 c -0.54268,-1.425198 -0.42782,-1.540062 0.5598,-0.559795 0.68342,0.678334 0.99067,1.485241 0.68278,1.793128 -0.30789,0.307888 -0.86705,-0.247112 -1.24258,-1.233333 z M 89.012608,45.028954 c -1.178315,-0.745003 -1.036862,-0.906483 0.680722,-0.777102 1.192463,0.08983 1.947731,0.519906 1.678375,0.955734 -0.598823,0.968916 -0.536662,0.973623 -2.359097,-0.178632 z m -7.56136,-1.107836 c -0.253426,-0.410052 0.203344,-0.648077 1.015045,-0.528944 2.089593,0.306687 2.841151,1.274493 0.989718,1.274493 -0.849193,0 -1.751337,-0.335497 -2.004763,-0.745549 z m 35.904632,-0.154316 c -0.30588,-0.494925 -0.28609,-1.169925 0.044,-1.5 C 117.72994,41.936728 118,42.218224 118,42.89235 c 0,0.674126 0.41891,0.966786 0.9309,0.650355 0.512,-0.316431 1.1672,-0.192988 1.45601,0.274316 0.28881,0.467305 -0.14989,0.849646 -0.97489,0.849646 -0.825,0 -1.75026,-0.404939 -2.05614,-0.899865 z M 124,43.059017 c 0,-0.517541 0.44485,-1.215913 0.98855,-1.551938 0.56686,-0.350339 0.7345,0.05106 0.39301,0.940983 C 124.71677,44.180479 124,44.497449 124,43.059017 z M 78,42 C 77.098708,41.41754 76.975367,41.024514 77.690983,41.015313 78.346024,41.006891 79.160081,41.45 79.5,42 c 0.767305,1.241525 0.421123,1.241525 -1.5,0 z m 14.76845,-0.16845 c 0.581102,-0.581102 1.646819,-0.859794 2.36826,-0.619313 0.748946,0.249648 0.295653,0.702941 -1.056551,1.05655 -1.663345,0.434974 -2.053777,0.304831 -1.311709,-0.437237 z M 79.603006,39.166667 C 79.31974,38.708333 79.723388,38.333333 80.5,38.333333 c 0.776612,0 1.18026,0.375 0.896994,0.833334 C 81.113729,39.625 80.710081,40 80.5,40 80.289919,40 79.886271,39.625 79.603006,39.166667 z m 5.153225,0.168975 c 0.690926,-0.278554 0.958898,-0.987557 0.595491,-1.575561 -0.393821,-0.637216 -0.187764,-0.776783 0.510081,-0.345491 1.376715,0.850856 0.550061,2.620536 -1.17082,2.506463 -0.852441,-0.05651 -0.833894,-0.222912 0.06525,-0.585411 z M 117,39.059017 c 0,-0.517541 0.44485,-1.215913 0.98855,-1.551938 0.56686,-0.350339 0.7345,0.05106 0.39301,0.940983 C 117.71677,40.180479 117,40.497449 117,39.059017 z M 90.872445,37.25 C 89.628574,35.663944 89.663944,35.628574 91.25,36.872445 92.915748,38.178814 93.445479,39 92.622445,39 c -0.207656,0 -0.995156,-0.7875 -1.75,-1.75 z m 31.940055,1.066886 c 0.72187,-0.288871 1.58437,-0.253344 1.91667,0.07895 0.33229,0.332292 -0.25834,0.568641 -1.3125,0.52522 -1.16495,-0.04798 -1.4019,-0.284941 -0.60417,-0.604167 z m -10.30542,-1.305432 c -0.33603,-0.5437 0.0153,-0.748221 0.78077,-0.454491 0.76545,0.29373 1.96892,-0.161424 2.67438,-1.011454 1.37187,-1.652996 5.55601,-2.193051 4.56476,-0.589183 -0.32507,0.525979 -1.17953,0.7305 -1.8988,0.454491 -0.71927,-0.276009 -1.88496,0.193644 -2.59042,1.043674 -1.47823,1.781153 -2.65898,1.967416 -3.53069,0.556963 z M 87.049332,35.559441 C 86.391775,34.767133 85.211675,34.365278 84.426887,34.66643 83.642099,34.967581 83,34.988978 83,34.713978 83,33.176989 86.065166,33.414526 87.561032,35.067439 88.522951,36.130348 89.070331,37 88.777432,37 c -0.292898,0 -1.070544,-0.648252 -1.7281,-1.440559 z"
       id="path3143"
       style="fill:#535353;fill-opacity:1" />
    <path
       d="M 104.38866,45.429553 C 104.7249,44.553333 105,43.648229 105,43.418213 105,43.188196 105.45,43 106,43 c 1.62899,0 1.13821,2.732988 -0.61134,3.404352 -1.17937,0.452567 -1.44745,0.191242 -1,-0.974799 z m -4.531274,-0.0982 c -1.671637,-0.444357 -1.523328,-3.600198 0.278374,-5.923364 0.46579,-0.600605 0.51329,-1.44906 0.10556,-1.885455 -0.407724,-0.436395 0.2416,-0.282491 1.44294,0.342009 2.69453,1.400713 3.62539,1.445493 2.81574,0.135455 -0.33992,-0.55 -0.0933,-1 0.54797,-1 0.66142,0 0.89842,0.69731 0.54768,1.611341 -0.449,1.170066 -0.19022,1.447058 0.94495,1.011454 0.8598,-0.329937 1.31159,-0.192657 1.00398,0.305067 -0.30761,0.497725 -2.13098,0.780247 -4.05193,0.627829 C 100.79327,40.341508 100,40.655757 100,41.939283 c 0,0.913394 0.54,2.200717 1.2,2.860717 0.66,0.66 0.9975,1.147799 0.75,1.083999 -0.2475,-0.0638 -1.18918,-0.312491 -2.092614,-0.552644 z m 18.755704,-1.514334 c 0.28881,-0.467304 0.94401,-0.590747 1.45601,-0.274316 1.30838,0.808625 1.16106,1.123962 -0.52511,1.123962 -0.80081,0 -1.21971,-0.382341 -0.9309,-0.849646 z M 124,43.059017 c 0,-0.517541 0.44485,-1.215913 0.98855,-1.551938 0.56686,-0.350339 0.7345,0.05106 0.39301,0.940983 C 124.71677,44.180479 124,44.497449 124,43.059017 z M 92.733333,41.875912 c 0.678334,-0.683418 1.485241,-0.990671 1.793128,-0.682784 0.307888,0.307887 -0.247112,0.867048 -1.233333,1.242579 -1.425198,0.542685 -1.540062,0.427821 -0.559795,-0.559795 z M 108.8125,41.316886 c 0.72187,-0.288871 1.58437,-0.253344 1.91667,0.07895 0.33229,0.332292 -0.25834,0.568641 -1.3125,0.52522 -1.16495,-0.04798 -1.4019,-0.284941 -0.60417,-0.604167 z"
       id="path3141"
       style="fill:#434343;fill-opacity:1" />
    <path
       d="m 105.01204,44.977495 c 1.2607,-2.355637 1.65463,-2.479562 1.65463,-0.520528 0,0.801332 -0.61042,1.691205 -1.35648,1.977495 -1.06401,0.408299 -1.12829,0.09417 -0.29815,-1.456967 z M 98.737691,42.75138 c 0.694395,-2.836396 2.175659,-4.760321 3.634749,-4.720971 0.62016,0.01672 0.34006,0.489085 -0.62244,1.04969 -0.9625,0.560605 -1.75,1.870363 -1.75,2.910574 0,1.040211 -0.408034,2.143472 -0.906741,2.45169 -0.498708,0.308218 -0.658713,-0.452724 -0.355568,-1.690983 z M 108.8125,41.316886 c 0.72187,-0.288871 1.58437,-0.253344 1.91667,0.07895 0.33229,0.332292 -0.25834,0.568641 -1.3125,0.52522 -1.16495,-0.04798 -1.4019,-0.284941 -0.60417,-0.604167 z"
       id="path3139"
       style="fill:#333333;fill-opacity:1" />
  </g>
</svg>
