<?xml version="1.0" encoding="UTF-8" standalone="no"?>
<!-- Created with Inkscape (http://www.inkscape.org/) -->

<svg
   xmlns:dc="http://purl.org/dc/elements/1.1/"
   xmlns:cc="http://creativecommons.org/ns#"
   xmlns:rdf="http://www.w3.org/1999/02/22-rdf-syntax-ns#"
   xmlns:svg="http://www.w3.org/2000/svg"
   xmlns="http://www.w3.org/2000/svg"
   xmlns:sodipodi="http://sodipodi.sourceforge.net/DTD/sodipodi-0.dtd"
   xmlns:inkscape="http://www.inkscape.org/namespaces/inkscape"
   width="334"
   height="55"
   id="svg4103"
   version="1.1"
   inkscape:version="0.48.2 r9819"
   sodipodi:docname="story_coral.svg">
  <defs
     id="defs4105">
    <filter
       id="filter4797"
       inkscape:label="Drop shadow"
       width="1.5"
       height="1.5"
       x="-0.25"
       y="-0.25"
       color-interpolation-filters="sRGB">
      <feGaussianBlur
         id="feGaussianBlur4799"
         in="SourceAlpha"
         stdDeviation="2"
         result="blur" />
      <feColorMatrix
         id="feColorMatrix4801"
         result="bluralpha"
         type="matrix"
         values="1 0 0 0 0 0 1 0 0 0 0 0 1 0 0 0 0 0 0.6 0 " />
      <feOffset
         id="feOffset4803"
         in="bluralpha"
         dx="-2.41474e-15"
         dy="0"
         result="offsetBlur" />
      <feMerge
         id="feMerge4805">
        <feMergeNode
           id="feMergeNode4807"
           in="offsetBlur" />
        <feMergeNode
           id="feMergeNode4809"
           in="SourceGraphic" />
      </feMerge>
    </filter>
  </defs>
  <sodipodi:namedview
     id="base"
     pagecolor="#ffffff"
     bordercolor="#666666"
     borderopacity="1.0"
     inkscape:pageopacity="0.0"
     inkscape:pageshadow="2"
     inkscape:zoom="1.4"
     inkscape:cx="173.21444"
     inkscape:cy="5.5568818"
     inkscape:document-units="px"
     inkscape:current-layer="text4111"
     showgrid="false"
     inkscape:window-width="1066"
     inkscape:window-height="763"
     inkscape:window-x="16"
     inkscape:window-y="13"
     inkscape:window-maximized="0"
     fit-margin-top="0"
     fit-margin-left="0"
     fit-margin-right="0"
     fit-margin-bottom="0" />
  <metadata
     id="metadata4108">
    <rdf:RDF>
      <cc:Work
         rdf:about="">
        <dc:format>image/svg+xml</dc:format>
        <dc:type
           rdf:resource="http://purl.org/dc/dcmitype/StillImage" />
        <dc:title></dc:title>
      </cc:Work>
    </rdf:RDF>
  </metadata>
  <g
     inkscape:label="Layer 1"
     inkscape:groupmode="layer"
     id="layer1"
     transform="translate(24.67312,-967.25)">
    <g
       style="font-size:32px;font-style:normal;font-variant:normal;font-weight:normal;font-stretch:normal;line-height:125%;letter-spacing:0px;word-spacing:0px;fill:#000000;fill-opacity:1;stroke:#232323;stroke-width:1;stroke-miterlimit:4;stroke-opacity:1;filter:url(#filter4797);font-family:Palatino Linotype;-inkscape-font-specification:Palatino Linotype"
       id="text4111">
      <path
         d="m -13.415852,994.78797 7.2362999,-13.67544 5.151264,0 -6.9910023,13.18484 5.7645113,-0.061 -1.47179,3.67937 -2.269009,-0.061 -4.0474219,0.1227 -0.490597,1.0425 c -0.981203,2.08506 -1.778422,3.94516 -2.391658,5.58046 -0.613256,1.5945 -1.042526,3.005 -1.287816,4.2315 -0.69502,3.5159 -0.429279,5.2738 0.797219,5.2738 0.65412,0 1.860168,-0.5315 3.6181496,-1.5945 2.166787,-1.3082 4.6402083,-3.1478 7.4202733,-5.5191 l -1.042517,5.2126 c -3.1888943,2.4939 -6.0711463,4.2927 -8.6467649,5.3965 -1.75798,0.7768 -3.229768,1.1652 -4.415369,1.1652 -1.553561,0 -2.63696,-0.7971 -3.250201,-2.3916 -0.613249,-1.6354 -0.654133,-3.7818 -0.122645,-6.4391 0.367945,-1.6761 0.756333,-3.0866 1.165167,-4.2314 0.449709,-1.1447 1.328693,-3.1071 2.636957,-5.88716 l 0.858543,-1.8397 -1.962386,0.3066 0.735895,-2.453 c 0.122645,-0.327 0.470147,-0.5519 1.042517,-0.6746 0.572356,-0.1226 1.226483,-0.2452 1.962386,-0.3679"
         style="font-style:italic;fill:#f08080;stroke:#232323;stroke-width:0.75000000000000000;stroke-miterlimit:4;stroke-dasharray:none;font-family:PilGi;-inkscape-font-specification:PilGi Bold Italic"
         id="path4869"
         inkscape:connector-curvature="0" />
      <path
         d="m 28.46883,1006.9915 -1.04252,5.2126 c -2.24859,2.044 -4.476718,3.6589 -6.684375,4.8446 -2.166825,1.1856 -4.006561,1.7783 -5.519212,1.7783 -1.185626,0 -2.105494,-0.5313 -2.759605,-1.5943 -0.613262,-1.063 -0.776795,-2.3713 -0.490597,-3.9248 0.327047,-1.6353 1.349123,-3.9452 3.066228,-6.9297 1.717067,-2.9844 2.677818,-5.0695 2.882255,-6.2551 0.204394,-0.85846 -0.0409,-1.28776 -0.735895,-1.28776 -1.144746,0 -2.861832,0.7767 -5.151263,2.33016 -2.2894651,1.5537 -4.9468611,3.7818 -7.9721941,6.6845 -0.327073,1.0629 -0.572371,1.901 -0.735895,2.5143 -0.163549,0.6132 -0.367955,1.4921 -0.613246,2.637 l -0.919869,5.5805 -4.783316,0 c -2e-6,-0.2453 0.143089,-1.6558 0.429272,-4.2315 0.327061,-2.6165 0.490594,-3.986 0.490597,-4.1086 0.654125,-3.189 2.08502898,-7.318 4.292719,-12.38753 2.493856,-5.8054 5.151252,-10.6091 7.9721951,-14.4113 3.352391,-4.61974 6.418617,-6.92963 9.198685,-6.92967 1.349115,4e-5 2.350749,0.55197 3.004904,1.65575 0.6541,1.10389 0.797192,2.51435 0.429272,4.23141 -0.817687,4.08831 -3.986121,8.99431 -9.505309,14.71791 2.125899,-1.1856 3.638569,-1.9419 4.538019,-2.269 0.899403,-0.368 1.757946,-0.5519 2.575631,-0.5519 1.103817,0 1.880594,0.4497 2.330335,1.3491 0.449685,0.8994 0.490569,2.1872 0.122645,3.86337 -0.327091,1.63526 -1.328724,3.94516 -3.004904,6.92976 -1.635344,2.9844 -2.596096,5.2126 -2.882255,6.6843 -0.16355,0.8994 0.08174,1.3491 0.735895,1.3491 1.962362,0 5.539626,-2.4938 10.731803,-7.4815 m -9.505312,-24.16187 c 0.286158,-1.51265 0.02043,-2.26898 -0.797219,-2.26901 -1.349162,3e-5 -3.434195,2.47346 -6.255105,7.42025 -2.7800611,4.906 -4.8855361,9.4849 -6.3164321,13.73653 4.251823,-4.41513 7.4202561,-8.09463 9.5053091,-11.03823 2.125896,-2.9844 3.413712,-5.60094 3.863447,-7.84954"
         style="font-style:italic;fill:#f08080;stroke:#232323;stroke-width:0.75000000000000000;stroke-miterlimit:4;stroke-dasharray:none;font-family:PilGi;-inkscape-font-specification:PilGi Bold Italic"
         id="path4871"
         inkscape:connector-curvature="0" />
      <path
         d="m 54.22515,1006.9915 -1.04252,5.1512 c -7.19543,4.5381 -13.75716,6.8071 -19.68518,6.8071 -2.16681,0 -3.6386,-0.8791 -4.41537,-2.6371 -0.77678,-1.7988 -0.94032,-3.8225 -0.4906,-6.071 0.89942,-4.4563 3.02534,-8.4015 6.37776,-11.83566 3.35239,-3.47497 6.76612,-5.21257 10.2412,-5.21257 3.27062,0 4.59932,1.5536 3.9861,4.6607 -0.57239,2.78003 -2.49389,5.21253 -5.76451,7.29753 -1.71711,1.1038 -4.41539,2.3509 -8.09485,3.7408 l -1.41046,0.5519 -0.0613,0.2454 c -0.28619,1.3899 -0.28619,2.5143 0,3.3729 0.40882,1.2672 1.32869,1.9009 2.7596,1.9009 2.45297,0 5.04904,-0.6133 7.78822,-1.8397 2.73915,-1.2675 6.00979,-3.3115 9.81193,-6.1324 m -18.88796,-1.5945 c 2.73915,-0.9402 4.98771,-2.0236 6.7457,-3.2503 1.75795,-1.2672 2.75959,-2.51426 3.0049,-3.74066 0.16352,-0.89937 -0.22487,-1.34907 -1.16516,-1.34907 -1.34916,0 -2.88227,0.83807 -4.59935,2.51427 -1.7171,1.63526 -3.04579,3.57726 -3.98609,5.82576"
         style="font-style:italic;fill:#f08080;stroke:#232323;stroke-width:0.75000000000000000;stroke-miterlimit:4;stroke-dasharray:none;font-family:PilGi;-inkscape-font-specification:PilGi Bold Italic"
         id="path4873"
         inkscape:connector-curvature="0" />
      <path
         d="m 111.34899,973.99889 0,9.68929 c -2.51435,-1.12425 -4.96733,-1.97258 -7.35895,-2.54498 -2.39168,-0.57232 -4.65047,-0.8585 -6.77637,-0.85854 -2.82095,4e-5 -4.90598,0.38842 -6.25509,1.16516 -1.34917,0.77682 -2.02374,1.98286 -2.02372,3.61815 -2e-5,1.22653 0.44969,2.1873 1.34914,2.8823 0.91985,0.6746 2.57561,1.2571 4.96728,1.7477 l 5.02863,1.0119 c 5.08991,1.0221 8.70804,2.5756 10.85444,4.6606 2.14633,2.0851 3.2195,5.04903 3.21955,8.89193 -5e-5,5.0492 -1.50251,8.8104 -4.50736,11.2839 -2.98451,2.4528 -7.55317,3.6795 -13.70604,3.6795 -2.90271,0 -5.81563,-0.276 -8.73876,-0.8281 -2.92314,-0.5519 -5.84627,-1.3695 -8.76941,-2.4529 l 0,-9.9652 c 2.92314,1.5535 5.74405,2.729 8.46279,3.5262 2.73916,0.7767 5.3761,1.1652 7.91087,1.1652 2.57561,0 4.54822,-0.4293 5.91783,-1.2879 1.36955,-0.8585 2.05433,-2.085 2.05436,-3.6795 -3e-5,-1.4309 -0.47018,-2.5347 -1.41046,-3.3114 -0.91989,-0.7768 -2.76986,-1.4719 -5.54987,-2.0851 l -4.56868,-1.01176 c -4.57892,-0.9812 -7.93132,-2.54497 -10.05724,-4.69137 -2.10547,-2.1464 -3.15822,-5.0388 -3.15822,-8.67745 0,-4.55843 1.47179,-8.06414 4.41537,-10.51717 2.94358,-2.45293 7.17498,-3.67943 12.6942,-3.67947 2.51428,4e-5 5.10013,0.19423 7.75755,0.58258 2.65737,0.368 5.40675,0.93013 8.24816,1.68643"
         style="font-size:36px;font-weight:bold;text-align:start;line-height:125%;writing-mode:lr-tb;text-anchor:start;fill:#f08080;stroke:#232323;stroke-width:0.75000000000000000;stroke-miterlimit:4;stroke-dasharray:none;font-family:Sans;-inkscape-font-specification:Sans Bold"
         id="path4875"
         inkscape:connector-curvature="0" />
      <path
         d="m 119.29051,972.55776 42.19131,0 0,8.92272 -15.17783,0 0,36.85602 -11.80498,0 0,-36.85602 -15.2085,0 0,-8.92272"
         style="font-size:36px;font-weight:bold;text-align:start;line-height:125%;writing-mode:lr-tb;text-anchor:start;fill:#f08080;stroke:#232323;stroke-width:0.75000000000000000;stroke-miterlimit:4;stroke-dasharray:none;font-family:Sans;-inkscape-font-specification:Sans Bold"
         id="path4877"
         inkscape:connector-curvature="0" />
      <path
         d="m 188.46463,980.28466 c -3.59772,4e-5 -6.38799,1.32872 -8.37079,3.98609 -1.98285,2.65742 -2.97426,6.39822 -2.97424,11.22242 -2e-5,4.80373 0.99139,8.53433 2.97424,11.19163 1.9828,2.6573 4.77307,3.9862 8.37079,3.9862 3.61812,0 6.41861,-1.3289 8.40147,-3.9862 1.9828,-2.6573 2.97421,-6.3879 2.97425,-11.19163 -4e-5,-4.8242 -0.99145,-8.565 -2.97425,-11.22242 -1.98286,-2.65737 -4.78335,-3.98605 -8.40147,-3.98609 m 0,-8.55478 c 7.35891,4e-5 13.12343,2.10551 17.29354,6.31643 4.17001,4.211 6.25504,10.02656 6.2551,17.44686 -6e-5,7.39983 -2.08509,13.20513 -6.2551,17.41613 -4.17011,4.2109 -9.93463,6.3165 -17.29354,6.3165 -7.33852,0 -13.10302,-2.1056 -17.29352,-6.3165 -4.17008,-4.211 -6.25511,-10.0163 -6.25511,-17.41613 0,-7.4203 2.08503,-13.23586 6.25511,-17.44686 4.1905,-4.21092 9.955,-6.31639 17.29352,-6.31643"
         style="font-size:36px;font-weight:bold;text-align:start;line-height:125%;writing-mode:lr-tb;text-anchor:start;fill:#f08080;stroke:#232323;stroke-width:0.75000000000000000;stroke-miterlimit:4;stroke-dasharray:none;font-family:Sans;-inkscape-font-specification:Sans Bold"
         id="path4879"
         inkscape:connector-curvature="0" />
      <path
         d="m 237.6776,992.85617 c 2.47341,0 4.2416,-0.4599 5.30458,-1.3798 1.08338,-0.9198 1.62507,-2.4325 1.6251,-4.538 -3e-5,-2.08501 -0.54172,-3.57722 -1.6251,-4.47669 -1.06298,-0.89939 -2.83117,-1.3491 -5.30458,-1.34915 l -4.96728,0 0,11.74364 4.96728,0 m -4.96728,8.15603 0,17.3243 -11.80498,0 0,-45.77874 18.02942,0 c 6.03022,4e-5 10.44559,1.0119 13.24611,3.03556 2.82088,2.02376 4.23134,5.22285 4.23139,9.59731 -5e-5,3.02534 -0.73593,5.50904 -2.20769,7.45094 -1.45138,1.9419 -3.64883,3.3729 -6.59238,4.2927 1.61485,0.368 3.05597,1.20607 4.32337,2.51437 1.28778,1.28776 2.58582,3.25016 3.89411,5.88706 l 6.40842,13.0008 -12.57153,0 -5.58054,-11.3757 c -1.12432,-2.2895 -2.26903,-3.8533 -3.43418,-4.6913 -1.14474,-0.8381 -2.67786,-1.2571 -4.59934,-1.2573 l -3.34218,0"
         style="font-size:36px;font-weight:bold;text-align:start;line-height:125%;writing-mode:lr-tb;text-anchor:start;fill:#f08080;stroke:#232323;stroke-width:0.75000000000000000;stroke-miterlimit:4;stroke-dasharray:none;font-family:Sans;-inkscape-font-specification:Sans Bold"
         id="path4881"
         inkscape:connector-curvature="0" />
      <path
         d="m 259.41716,972.55776 12.90884,0 10.42517,16.31231 10.42517,-16.31231 12.93949,0 -17.44684,26.49208 0,19.28666 -11.80498,0 0,-19.28666 -17.44685,-26.49208"
         style="font-size:36px;font-weight:bold;text-align:start;line-height:125%;writing-mode:lr-tb;text-anchor:start;fill:#f08080;stroke:#232323;stroke-width:0.75000000000000000;stroke-miterlimit:4;stroke-dasharray:none;font-family:Sans;-inkscape-font-specification:Sans Bold"
         id="path4883"
         inkscape:connector-curvature="0" />
    </g>
  </g>
</svg>
