<?xml version="1.0" encoding="UTF-8" standalone="no"?>
<!-- Created with Inkscape (http://www.inkscape.org/) -->

<svg
   xmlns:dc="http://purl.org/dc/elements/1.1/"
   xmlns:cc="http://creativecommons.org/ns#"
   xmlns:rdf="http://www.w3.org/1999/02/22-rdf-syntax-ns#"
   xmlns:svg="http://www.w3.org/2000/svg"
   xmlns="http://www.w3.org/2000/svg"
   version="1.1"
   width="1129"
   height="1342"
   id="svg3039">
  <metadata
     id="metadata3045">
    <rdf:RDF>
      <cc:Work
         rdf:about="">
        <dc:format>image/svg+xml</dc:format>
        <dc:type
           rdf:resource="http://purl.org/dc/dcmitype/StillImage" />
        <dc:title></dc:title>
      </cc:Work>
    </rdf:RDF>
  </metadata>
  <defs
     id="defs3043" />
  <path
     d="m 723.41783,1268.8431 c -12.81737,-25.869 -12.76427,-27.2663 -23.93252,-54.7779 -12.73024,-31.3593 -23.76467,-64.5539 -44.93747,-107.9031 -20.89584,-42.7823 -25.45536,-49.9566 -58.63753,-92.2642 C 539.32039,941.74503 498.64576,908.01352 349.4758,809.52949 228.82425,729.87368 182.20194,694.20198 136.66237,646.70154 111.16069,620.1018 96.498303,601.88932 72.574743,567.09688 36.947963,515.28426 26.708663,489.37274 24.665603,445.85834 20.570355,358.63487 70.589273,273.2934 148.32277,234.87649 c 47.08981,-23.27241 119.17954,-25.63635 185.9418,-6.09736 44.01047,12.88033 100.87347,42.77977 137.13946,72.11002 30.41517,24.59837 39.08843,33.57827 42.04385,43.53027 3.33948,11.2452 1.7262,20.72026 -3.70614,21.7669 -6.93376,1.33593 -29.76137,-12.68088 -69.05051,-42.39899 -42.19763,-31.91811 -55.70011,-40.40784 -77.34945,-48.63377 -7.46383,-2.83598 -19.67738,-7.49304 -27.14121,-10.34903 -27.70272,-10.60026 -72.12199,-14.04549 -103.55299,-8.03175 -79.18424,15.15045 -139.416117,77.18263 -145.474027,149.82218 -0.7469,8.95601 -0.27519,24.3876 1.08835,35.6042 7.73318,63.61378 26.970997,89.42199 99.085067,161.4312 21.3547,21.32365 47.10713,43.16596 87.10338,71.87304 29.79819,21.38748 132.45799,99.61557 151.0729,115.90801 22.56203,19.74711 51.75207,34.80991 151.43244,138.01683 49.73595,51.49554 37.50449,38.28977 72.55072,79.41316 29.87723,35.0581 42.39466,54.3791 50.98674,64.3262 30.3202,35.1019 53.15458,74.7307 61.6527,106.9977 5.50557,20.9045 5.91387,52.5016 0.93696,72.5076 -3.33327,13.3988 -6.3909,14.6445 -12.36188,20.6385 -4.10856,4.1244 -11.2508,6.5052 -14.34383,7.1231 -6.18301,0.029 -6.20533,0.1154 -12.95927,-11.5914 z"
     id="path3837"
     style="fill:#f08080;fill-opacity:1;fill-rule:nonzero;stroke:#f08080;stroke-width:20.00499916;stroke-linecap:butt;stroke-linejoin:miter;stroke-miterlimit:4;stroke-opacity:1;stroke-dasharray:none;stroke-dashoffset:0" />
  <path
     d="m 673.42628,991.93977 c -10.34855,-11.36177 -12.6346,-27.89799 -6.90488,-49.94665 7.42034,-28.55439 23.89502,-58.73162 67.31073,-123.29542 13.44332,-19.99164 28.88363,-43.47965 34.31181,-52.19558 18.20788,-29.23603 54.81394,-78.05538 111.73214,-149.0106 90.91903,-113.34125 132.19132,-182.16552 153.77112,-256.42354 11.3342,-39.00191 13.9412,-55.78483 14.0396,-90.38087 0.083,-29.19975 -0.2772,-32.23827 -5.7202,-48.25105 -7.2536,-21.33916 -13.5102,-33.91382 -23.9659,-48.16776 -18.42196,-25.11429 -45.67,-46.61201 -75.26751,-59.38354 -51.27959,-22.127495 -114.73257,-15.977273 -155.31235,15.05375 -7.18739,5.49614 -20.758,15.32237 -30.1569,21.83608 -29.99821,20.78959 -48.79111,38.66551 -70.05907,66.64055 -29.66394,39.01882 -49.7992,78.77886 -82.97805,163.85252 -9.91864,25.43232 -23.04414,57.21887 -29.16776,70.63676 -12.00393,26.30261 -12.65647,26.82262 -24.26836,19.33884 -10.87851,-7.0111 -11.08645,-32.19833 -0.52206,-63.23555 5.12619,-15.0603 52.50097,-116.41012 70.76481,-151.38858 22.84048,-43.74357 68.10246,-101.59794 104.68682,-133.81189 87.81579,-77.3252 181.63308,-95.975104 265.62281,-52.803029 71.06952,36.530889 115.70142,118.597529 115.73292,212.803629 0.02,58.05606 -10.6012,96.27188 -47.198,169.83116 -35.6658,71.68816 -70.41047,121.02863 -176.96642,251.30755 -114.04303,139.43289 -147.21049,186.63751 -184.03201,261.9181 -15.78813,32.27838 -17.42429,33.89025 -25.45329,25.07512 l 0,0 z"
     id="path3839"
     style="fill:#f08080;fill-opacity:1;fill-rule:nonzero;stroke:#f08080;stroke-width:20.00499916;stroke-linecap:butt;stroke-linejoin:miter;stroke-miterlimit:4;stroke-opacity:1;stroke-dasharray:none;stroke-dashoffset:0" />
</svg>
